<svg width="68" height="67" viewBox="0 0 68 67" fill="none" xmlns="http://www.w3.org/2000/svg">
<g clip-path="url(#clip0_676_7891)">
<path d="M63.1751 15.6263H55.8835V9.3763H57.9668V1.04297H1.7168V9.3763H3.80013V65.6263H17.8522C17.8553 65.6263 17.8585 65.6273 17.8626 65.6273C17.8668 65.6273 17.8689 65.6263 17.873 65.6263H23.0616C23.0647 65.6263 23.0678 65.6273 23.072 65.6273C23.0762 65.6273 23.0772 65.6263 23.0814 65.6263H32.4366C32.4397 65.6263 32.4428 65.6273 32.447 65.6273C32.4512 65.6273 32.4522 65.6263 32.4564 65.6263H37.6449C37.6481 65.6263 37.6512 65.6273 37.6553 65.6273C37.6595 65.6273 37.6605 65.6263 37.6647 65.6263H55.8835V46.8763H63.1751C64.8981 46.8763 66.3001 45.4742 66.3001 43.7513V18.7513C66.3001 17.0284 64.8981 15.6263 63.1751 15.6263ZM53.8001 15.6263H52.7585C51.0355 15.6263 49.6335 17.0284 49.6335 18.7513V30.2107H39.6949C40.6897 29.1034 41.3001 27.6451 41.3001 26.043C41.3001 24.1982 40.4918 22.543 39.2168 21.3971V9.3763H53.8001V15.6263ZM59.2522 36.4596L57.9668 38.6023L56.6814 36.4596H59.2522ZM54.847 34.3763H53.0022L53.0033 34.3773H42.3418C40.6189 34.3773 39.2168 35.7794 39.2168 37.5023V61.9815C39.2168 62.8398 38.521 63.5378 37.6647 63.543H37.6439C36.7876 63.5378 36.0918 62.8398 36.0918 61.9815V46.8763H34.0085V61.9815C34.0085 62.8398 33.3126 63.5378 32.4564 63.543H32.4355C31.5793 63.5378 30.8835 62.8398 30.8835 61.9815V37.5023H28.8001V47.919C27.6512 47.919 26.7168 46.9846 26.7168 45.8357V43.7523V37.5023C26.7168 34.6305 29.0533 32.294 31.9251 32.294H54.8418C55.4158 32.294 55.8835 32.7607 55.8835 33.3357C55.8835 33.9086 55.4189 34.3732 54.847 34.3763ZM23.0605 63.543C22.2043 63.5378 21.5085 62.8398 21.5085 61.9815V46.8773H19.4251V61.9815C19.4251 62.8398 18.7293 63.5378 17.873 63.543H17.8522C16.996 63.5378 16.3001 62.8398 16.3001 61.9815V59.444V34.3763H20.4668L23.5918 34.3773C24.147 34.3773 24.6939 34.4763 25.2168 34.6471C24.8418 35.5253 24.6335 36.4898 24.6335 37.5023V43.7523V45.8357V61.9815C24.6335 62.8398 23.9376 63.5378 23.0814 63.543H23.0605ZM37.1335 9.3763V20.1576C36.4803 19.9263 35.7814 19.793 35.0501 19.793C31.6033 19.793 28.8001 22.5961 28.8001 26.043C28.8001 27.7117 29.4616 29.2263 30.5303 30.3482C28.8585 30.6732 27.3887 31.5711 26.3356 32.8294C25.8981 32.6523 25.4408 32.5326 24.9772 32.4419C26.0522 31.319 26.7168 29.8003 26.7168 28.1263C26.7168 24.6794 23.9137 21.8763 20.4668 21.8763C18.8647 21.8763 17.4074 22.4867 16.3001 23.4805V9.3763H37.1335ZM39.2168 26.043C39.2168 28.3409 37.348 30.2096 35.0501 30.2096C32.7522 30.2096 30.8835 28.3409 30.8835 26.043C30.8835 23.7451 32.7522 21.8763 35.0501 21.8763C37.348 21.8763 39.2168 23.7451 39.2168 26.043ZM16.3001 28.1263C16.3001 25.8284 18.1689 23.9596 20.4668 23.9596C22.7647 23.9596 24.6335 25.8284 24.6335 28.1263C24.6335 30.4242 22.7647 32.293 20.4668 32.293C18.1689 32.293 16.3001 30.4242 16.3001 28.1263ZM26.7168 61.9815V49.4232C27.3324 49.7815 28.0376 50.0023 28.8001 50.0023V61.9815C28.8001 62.5419 28.9376 63.068 29.1658 63.543H26.3522C26.5793 63.068 26.7168 62.5419 26.7168 61.9815ZM3.80013 3.1263H55.8835V7.29297H3.80013V3.1263ZM5.88346 9.3763H14.2168V59.444V61.9815V63.543H5.88346V9.3763ZM53.8001 63.543H40.9345C41.1626 63.068 41.3001 62.5419 41.3001 61.9815V37.5023C41.3001 36.9273 41.7678 36.4607 42.3418 36.4607H49.6335V43.7513C49.6335 45.4742 51.0355 46.8763 52.7585 46.8763H53.8001V63.543ZM64.2168 43.7513C64.2168 44.3263 63.7491 44.793 63.1751 44.793H52.7585C52.1845 44.793 51.7168 44.3263 51.7168 43.7513V36.4607H54.2533L57.9668 42.6503L62.9314 34.3763H57.7751C57.8918 34.0492 57.9668 33.7023 57.9668 33.3357C57.9668 31.6128 56.5647 30.2107 54.8418 30.2107H51.7168V18.7513C51.7168 18.1763 52.1845 17.7096 52.7585 17.7096H63.1751C63.7491 17.7096 64.2168 18.1763 64.2168 18.7513V43.7513Z" fill="black"/>
<path d="M53.0039 28.1255H62.9331L57.9685 19.8516L53.0039 28.1255ZM56.6831 26.0422L57.9685 23.8995L59.2539 26.0422H56.6831Z" fill="black"/>
<path d="M7.9668 11.457H10.0501V13.5404H7.9668V11.457Z" fill="black"/>
<path d="M7.9668 15.625H10.0501V17.7083H7.9668V15.625Z" fill="black"/>
<path d="M7.9668 19.793H10.0501V21.8763H7.9668V19.793Z" fill="black"/>
<path d="M49.6328 11.457H51.7161V13.5404H49.6328V11.457Z" fill="black"/>
<path d="M45.4668 11.457H47.5501V13.5404H45.4668V11.457Z" fill="black"/>
<path d="M41.3008 11.457H43.3841V13.5404H41.3008V11.457Z" fill="black"/>
<path d="M49.6328 59.375H51.7161V61.4583H49.6328V59.375Z" fill="black"/>
<path d="M49.6328 48.957H51.7161V57.2904H49.6328V48.957Z" fill="black"/>
</g>
<defs>
<clipPath id="clip0_676_7891">
<rect width="66.6667" height="66.6667" fill="transparent" transform="translate(0.675781)"/>
</clipPath>
</defs>
</svg>
