<svg width="67" height="67" viewBox="0 0 67 67" fill="none" xmlns="http://www.w3.org/2000/svg">
<g clip-path="url(#clip0_848_7253)">
<path d="M33.4644 14.3672C24.0287 14.3672 16.3198 22.0761 16.3198 31.5118C16.3198 36.4455 18.4783 41.1942 22.1169 44.4011C24.8305 47.1146 24.5838 52.9117 24.5221 52.9734C24.5221 53.2818 24.5838 53.5285 24.8305 53.7751C25.0155 53.9602 25.3238 54.0835 25.5705 54.0835H41.2967C41.6051 54.0835 41.8517 53.9602 42.0368 53.7751C42.2218 53.5901 42.3451 53.2818 42.3451 52.9734C42.3451 52.9117 42.0368 47.1146 44.7503 44.4011C44.812 44.3394 44.8736 44.2778 44.9353 44.2161C48.5122 40.9475 50.6091 36.3222 50.6091 31.5118C50.6091 22.0761 42.9002 14.3672 33.4644 14.3672ZM43.3318 42.7977C43.2702 42.8593 43.1468 42.9827 43.1468 43.0443C40.7417 45.6345 40.31 49.8899 40.2483 51.925H26.6189C26.5573 49.8899 26.1256 45.4495 23.5354 42.7977C20.2668 39.9608 18.355 35.8288 18.355 31.4501C18.355 23.1245 25.0771 16.4023 33.4028 16.4023C41.7284 16.4023 48.4506 23.1245 48.4506 31.4501C48.4506 35.8288 46.6004 39.9608 43.3318 42.7977Z" fill="#231F20"/>
<path d="M33.4014 18.75C32.8464 18.75 32.353 19.2434 32.353 19.7984C32.353 20.3535 32.8464 20.8468 33.4014 20.8468C39.6302 20.8468 44.6256 25.9039 44.6256 32.071C44.6256 32.626 45.119 33.1194 45.674 33.1194C46.2291 33.1194 46.7224 32.626 46.7224 32.071C46.7841 24.7321 40.802 18.75 33.4014 18.75Z" fill="#231F20"/>
<path d="M40.2475 55.2578H26.5565C25.1381 55.2578 23.9663 56.4296 23.9663 57.848C23.9663 59.2664 25.1381 60.4382 26.5565 60.4382H40.1859C41.666 60.3765 42.8377 59.2664 42.8377 57.848C42.8377 56.4296 41.666 55.2578 40.2475 55.2578ZM40.2475 58.2797H26.5565C26.3098 58.2797 26.0631 58.0947 26.0631 57.7863C26.0631 57.478 26.2481 57.293 26.5565 57.293H40.1859C40.4325 57.293 40.6792 57.478 40.6792 57.7863C40.6792 58.0947 40.4942 58.2797 40.2475 58.2797Z" fill="#231F20"/>
<path d="M38.2124 61.4844H28.5917C27.1732 61.4844 26.0015 62.6561 26.0015 64.0746C26.0015 65.493 27.1732 66.6648 28.5917 66.6648H38.2124C39.6308 66.6648 40.8026 65.493 40.8026 64.0746C40.8026 62.5945 39.6308 61.4844 38.2124 61.4844ZM38.2124 64.5063H28.5917C28.345 64.5063 28.0983 64.3213 28.0983 64.0129C28.0983 63.7045 28.2833 63.5195 28.5917 63.5195H38.2124C38.4591 63.5195 38.7058 63.7045 38.7058 64.0129C38.7058 64.3213 38.4591 64.5063 38.2124 64.5063Z" fill="#231F20"/>
<path d="M33.4014 9.25069C34.0182 9.25069 34.4499 8.75732 34.4499 8.20228V1.04841C34.4499 0.49337 33.9565 0 33.4014 0C32.8464 0 32.353 0.49337 32.353 1.04841V8.20228C32.353 8.75732 32.8464 9.25069 33.4014 9.25069Z" fill="#231F20"/>
<path d="M50.8535 5.30387C50.3601 4.93384 49.7434 5.11885 49.4351 5.55055L45.4881 11.471C45.1181 11.9644 45.2414 12.6428 45.7348 12.9511C45.9198 13.0745 46.1048 13.1361 46.2898 13.1361C46.6599 13.1361 46.9682 12.9511 47.1532 12.6428L51.1002 6.72231C51.4702 6.29061 51.3469 5.61222 50.8535 5.30387Z" fill="#231F20"/>
<path d="M20.8831 12.8893C21.0681 12.8893 21.2531 12.8277 21.4382 12.7043C21.9315 12.396 22.0549 11.7176 21.7465 11.2242L17.9229 5.2421C17.6145 4.74872 16.9361 4.62538 16.4428 4.93374C15.9494 5.2421 15.8261 5.92048 16.1344 6.41385L19.958 12.396C20.2047 12.766 20.5131 12.8893 20.8831 12.8893Z" fill="#231F20"/>
<path d="M13.4203 19.4265L7.1915 16.0346C6.69813 15.7879 6.01974 15.9729 5.77306 16.4663C5.4647 16.9596 5.64971 17.638 6.20476 17.8847L12.4336 21.2766C12.6186 21.3383 12.7419 21.4 12.9269 21.4C13.297 21.4 13.667 21.215 13.852 20.8449C14.0987 20.3516 13.9137 19.6732 13.4203 19.4265Z" fill="#231F20"/>
<path d="M61.0927 16.4663C60.846 15.9729 60.1676 15.7879 59.6742 16.0346L53.3838 19.4265C52.8904 19.6732 52.7054 20.3516 52.9521 20.8449C53.1371 21.215 53.5071 21.4 53.8771 21.4C54.0621 21.4 54.2472 21.3383 54.3705 21.2766L60.661 17.8847C61.1543 17.638 61.3394 16.9596 61.0927 16.4663Z" fill="#231F20"/>
</g>
<defs>
<clipPath id="clip0_848_7253">
<rect width="66.6667" height="66.6667" fill="white" transform="translate(0.081543)"/>
</clipPath>
</defs>
</svg>
