<svg width="68" height="67" viewBox="0 0 68 67" fill="none" xmlns="http://www.w3.org/2000/svg">
<g clip-path="url(#clip0_676_7926)">
<path d="M66.5703 29.1155L25.9453 5.66183C24.7788 4.99066 23.3939 4.80932 22.0939 5.15756C20.794 5.50581 19.6851 6.35523 19.0104 7.51964L14.3333 15.6202L11.2198 21.0124C10.5482 22.1792 10.3668 23.5648 10.7154 24.8652C11.064 26.1656 11.914 27.2748 13.0792 27.9493L27.0078 35.9905L24.8417 39.6842C24.5535 40.1731 24.1431 40.5786 23.6506 40.8607C23.1582 41.1428 22.6008 41.2918 22.0333 41.2931H13.901V35.0952C13.901 34.8534 13.805 34.6216 13.6341 34.4507C13.4631 34.2797 13.2313 34.1837 12.9896 34.1837H8.04167V33.0077C8.04043 31.9375 7.61476 30.9115 6.85804 30.1548C6.10133 29.3981 5.07536 28.9724 4.00521 28.9712H1.27083C1.15112 28.9711 1.03257 28.9947 0.921952 29.0404C0.811338 29.0862 0.710833 29.1534 0.626182 29.238C0.541532 29.3227 0.474397 29.4232 0.428616 29.5338C0.382836 29.6444 0.359307 29.7629 0.359375 29.8827V60.7769C0.359307 60.8966 0.382836 61.0152 0.428616 61.1258C0.474397 61.2364 0.541532 61.3369 0.626182 61.4216C0.710833 61.5062 0.811338 61.5734 0.921952 61.6192C1.03257 61.6649 1.15112 61.6885 1.27083 61.6884H4.00521C5.07536 61.6872 6.10133 61.2615 6.85804 60.5048C7.61476 59.7481 8.04043 58.7221 8.04167 57.6519V54.7566H12.9896C13.2313 54.7566 13.4631 54.6606 13.6341 54.4897C13.805 54.3187 13.901 54.0869 13.901 53.8452V49.366H22.0333C24.0078 49.3618 25.9472 48.8436 27.6606 47.8623C29.374 46.881 30.8024 45.4705 31.8052 43.7696L33.9995 40.028L41.6344 44.4358C42.4031 44.8818 43.2758 45.1172 44.1646 45.1181C44.6113 45.1179 45.0561 45.0591 45.4875 44.9431C46.3166 44.7226 47.0757 44.2943 47.6932 43.6988C48.6919 44.1621 49.7793 44.4028 50.8802 44.404C51.5549 44.4036 52.2266 44.3146 52.8781 44.1394C54.5399 43.6978 56.0032 42.7065 57.0297 41.3269L58.8964 42.4045C59 42.4645 59.1145 42.5034 59.2332 42.5191C59.3519 42.5347 59.4726 42.5268 59.5882 42.4958C59.7039 42.4648 59.8123 42.4113 59.9073 42.3383C60.0022 42.2654 60.0819 42.1744 60.1417 42.0707L66.9021 30.3618C66.9621 30.2582 67.0012 30.1438 67.017 30.0251C67.0328 29.9063 67.0251 29.7857 66.9943 29.6699C66.9635 29.5542 66.9102 29.4457 66.8375 29.3505C66.7647 29.2554 66.6739 29.1755 66.5703 29.1155ZM6.21875 57.6519C6.2182 58.2388 5.98481 58.8015 5.56981 59.2165C5.15481 59.6315 4.59211 59.8649 4.00521 59.8655H2.18229V30.7941H4.00521C4.59211 30.7947 5.15481 31.0281 5.56981 31.4431C5.98481 31.8581 6.2182 32.4208 6.21875 33.0077V57.6519ZM12.0781 52.9337H8.04167V36.0066H12.0781V52.9337ZM30.2323 42.8472C29.3911 44.2746 28.1927 45.4582 26.755 46.2817C25.3174 47.1052 23.6901 47.5401 22.0333 47.5436H13.901V43.1165H22.0333C22.9186 43.1146 23.788 42.8822 24.5561 42.4422C25.3243 42.0022 25.9646 41.3698 26.4141 40.6071L28.5885 36.903L32.4229 39.1165L30.2323 42.8472ZM42.5469 42.8571L13.9906 26.3707C13.2436 25.9384 12.6986 25.2274 12.4752 24.3937C12.2518 23.56 12.3682 22.6717 12.799 21.9238L15.4552 17.3212L41.6255 32.4306L49.649 37.0629L46.9922 41.6676L46.9885 41.6733C46.9192 41.7909 46.8425 41.904 46.7589 42.0118V42.0155C46.2782 42.6426 45.586 43.0737 44.8112 43.2286C44.0363 43.3834 43.2316 43.2514 42.5469 42.8571ZM52.4099 42.3785C51.216 42.7013 49.9503 42.6347 48.7969 42.1884L51.2307 37.9733L55.4458 40.4066C54.6694 41.3707 53.6054 42.0615 52.4089 42.3785H52.4099ZM59.0219 40.3681L53.1276 36.965L51.349 35.9384L31.2255 24.3207L16.3677 15.7426L20.5891 8.4311C21.0216 7.68427 21.7326 7.13949 22.5663 6.91628C23.4 6.69307 24.2881 6.80966 25.0359 7.24048L64.8693 30.2389L59.0219 40.3681Z" fill="black"/>
<path d="M55.1272 35.4156C55.6579 35.7239 56.2607 35.8865 56.8746 35.8869C57.1827 35.8867 57.4895 35.846 57.7871 35.7661C58.5704 35.5563 59.2567 35.0814 59.7292 34.4222C60.2016 33.7631 60.4309 32.9606 60.3779 32.1514C60.325 31.3422 59.9931 30.5763 59.4388 29.9844C58.8845 29.3924 58.1422 29.011 57.3382 28.9051C56.5342 28.7991 55.7183 28.9752 55.0296 29.4033C54.3409 29.8315 53.8219 30.4852 53.5612 31.2531C53.3004 32.0209 53.3139 32.8555 53.5995 33.6145C53.885 34.3735 54.4249 35.01 55.1272 35.4156ZM55.4235 31.539C55.5338 31.3478 55.6808 31.1804 55.8561 31.0463C56.0314 30.9122 56.2315 30.8141 56.4449 30.7577C56.5876 30.7196 56.7347 30.7001 56.8824 30.6999C57.2531 30.7 57.6134 30.8223 57.9074 31.048C58.2014 31.2737 58.4128 31.5902 58.5087 31.9482C58.6046 32.3063 58.5796 32.686 58.4377 33.0284C58.2958 33.3708 58.0449 33.6569 57.7239 33.8422C57.4028 34.0275 57.0296 34.1016 56.6621 34.0532C56.2946 34.0048 55.9534 33.8364 55.6913 33.5743C55.4292 33.3121 55.261 32.9708 55.2127 32.6033C55.1643 32.2358 55.2386 31.8626 55.424 31.5416L55.4235 31.539Z" fill="black"/>
<path d="M24.058 26.1843L16.5892 21.8713C16.4855 21.8105 16.3708 21.7708 16.2517 21.7545C16.1326 21.7382 16.0115 21.7456 15.8953 21.7764C15.7791 21.8071 15.6701 21.8605 15.5746 21.9335C15.4791 22.0065 15.399 22.0977 15.3389 22.2018C15.2788 22.3059 15.2399 22.4209 15.2244 22.5401C15.2089 22.6593 15.2171 22.7804 15.2486 22.8964C15.2801 23.0124 15.3343 23.121 15.4079 23.216C15.4816 23.311 15.5733 23.3905 15.6778 23.4499L23.1486 27.7624C23.3571 27.8714 23.5996 27.8956 23.8255 27.8298C24.0514 27.7641 24.2432 27.6136 24.3606 27.4098C24.4781 27.2059 24.5122 26.9645 24.4558 26.7361C24.3994 26.5077 24.2568 26.31 24.058 26.1843Z" fill="black"/>
</g>
<defs>
<clipPath id="clip0_676_7926">
<rect width="66.6667" height="66.6667" fill="transparent" transform="translate(0.359375)"/>
</clipPath>
</defs>
</svg>
