<svg width="67" height="67" viewBox="0 0 67 67" fill="none" xmlns="http://www.w3.org/2000/svg">
<g clip-path="url(#clip0_676_7914)">
<path d="M53.9254 45.495C52.0316 45.541 50.1549 45.1284 48.4551 44.2923C46.9828 43.5613 45.3542 43.201 43.7109 43.2428C42.0686 43.201 40.4408 43.5613 38.9695 44.2923C37.271 45.1283 35.3954 45.541 33.5028 45.495C31.6097 45.541 29.7335 45.1284 28.0344 44.2923C26.5628 43.5612 24.9347 43.2009 23.292 43.2428C21.6508 43.2031 20.0247 43.5649 18.5551 44.2968C16.8548 45.132 14.9776 45.5431 13.0839 45.495C11.1923 45.5424 9.31731 45.1313 7.61906 44.2968C6.14878 43.5642 4.52162 43.2023 2.87942 43.2428C2.64048 43.2428 2.41134 43.1479 2.24238 42.9789C2.07343 42.81 1.97852 42.5808 1.97852 42.3419C1.97852 42.1029 2.07343 41.8738 2.24238 41.7048C2.41134 41.5359 2.64048 41.441 2.87942 41.441C4.77237 41.3962 6.64803 41.8104 8.34608 42.6482C9.81658 43.3775 11.4431 43.7362 13.0839 43.6932C14.726 43.7349 16.3534 43.3746 17.8245 42.6437C19.5233 41.8076 21.3992 41.3949 23.292 41.441C25.1852 41.395 27.0614 41.8076 28.7605 42.6437C30.2321 43.3748 31.8601 43.7351 33.5028 43.6932C35.1449 43.7349 36.7723 43.3746 38.2434 42.6437C39.9422 41.8076 41.8181 41.3949 43.7109 41.441C45.6066 41.3956 47.485 41.8098 49.1857 42.6482C50.6717 43.3395 52.2909 43.6977 53.9299 43.6977C55.5688 43.6977 57.188 43.3395 58.674 42.6482C60.3723 41.8111 62.2478 41.397 64.1407 41.441C64.3796 41.441 64.6088 41.5359 64.7777 41.7048C64.9467 41.8738 65.0416 42.1029 65.0416 42.3419C65.0416 42.5808 64.9467 42.81 64.7777 42.9789C64.6088 43.1479 64.3796 43.2428 64.1407 43.2428C62.4974 43.201 60.8688 43.5613 59.3965 44.2923C57.6965 45.1285 55.8194 45.5411 53.9254 45.495Z" fill="black"/>
<path d="M53.9254 52.7021C52.0316 52.7481 50.1549 52.3354 48.4551 51.4994C46.9828 50.7683 45.3542 50.408 43.7109 50.4498C42.0686 50.408 40.4408 50.7683 38.9695 51.4994C37.271 52.3354 35.3954 52.748 33.5028 52.7021C31.6097 52.7481 29.7335 52.3354 28.0344 51.4994C26.5628 50.7682 24.9347 50.4079 23.292 50.4498C21.6508 50.4101 20.0247 50.772 18.5551 51.5039C16.8548 52.339 14.9776 52.7501 13.0839 52.7021C11.1923 52.7495 9.31731 52.3384 7.61906 51.5039C6.14878 50.7712 4.52162 50.4094 2.87942 50.4498C2.64048 50.4498 2.41134 50.3549 2.24238 50.1859C2.07343 50.017 1.97852 49.7878 1.97852 49.5489C1.97852 49.31 2.07343 49.0808 2.24238 48.9119C2.41134 48.7429 2.64048 48.648 2.87942 48.648C4.77237 48.6032 6.64803 49.0174 8.34608 49.8552C9.81658 50.5845 11.4431 50.9433 13.0839 50.9003C14.726 50.942 16.3534 50.5816 17.8245 49.8507C19.5233 49.0146 21.3992 48.6019 23.292 48.648C25.1852 48.602 27.0614 49.0146 28.7605 49.8507C30.2321 50.5819 31.8601 50.9422 33.5028 50.9003C35.1449 50.942 36.7723 50.5816 38.2434 49.8507C39.9422 49.0146 41.8181 48.6019 43.7109 48.648C45.6066 48.6027 47.485 49.0169 49.1857 49.8552C50.6717 50.5466 52.2909 50.9048 53.9299 50.9048C55.5688 50.9048 57.188 50.5466 58.674 49.8552C60.3723 49.0182 62.2478 48.604 64.1407 48.648C64.3796 48.648 64.6088 48.7429 64.7777 48.9119C64.9467 49.0808 65.0416 49.31 65.0416 49.5489C65.0416 49.7878 64.9467 50.017 64.7777 50.1859C64.6088 50.3549 64.3796 50.4498 64.1407 50.4498C62.4974 50.408 60.8688 50.7683 59.3965 51.4994C57.6965 52.3355 55.8194 52.7482 53.9254 52.7021Z" fill="black"/>
<path d="M53.9254 59.9091C52.0316 59.9551 50.1549 59.5425 48.4551 58.7064C46.9828 57.9753 45.3542 57.615 43.7109 57.6568C42.0686 57.615 40.4408 57.9753 38.9695 58.7064C37.271 59.5424 35.3954 59.955 33.5028 59.9091C31.6097 59.9551 29.7335 59.5425 28.0344 58.7064C26.5628 57.9752 24.9347 57.6149 23.292 57.6568C21.6508 57.6172 20.0247 57.979 18.5551 58.7109C16.8548 59.5461 14.9776 59.9572 13.0839 59.9091C11.1923 59.9565 9.31731 59.5454 7.61906 58.7109C6.14878 57.9783 4.52162 57.6164 2.87942 57.6568C2.64048 57.6568 2.41134 57.5619 2.24238 57.393C2.07343 57.224 1.97852 56.9949 1.97852 56.7559C1.97852 56.517 2.07343 56.2879 2.24238 56.1189C2.41134 55.95 2.64048 55.855 2.87942 55.855C4.77237 55.8102 6.64803 56.2244 8.34608 57.0622C9.81658 57.7915 11.4431 58.1503 13.0839 58.1073C14.726 58.149 16.3534 57.7887 17.8245 57.0577C19.5233 56.2216 21.3992 55.809 23.292 55.855C25.1852 55.809 27.0614 56.2216 28.7605 57.0577C30.2321 57.7889 31.8601 58.1492 33.5028 58.1073C35.1449 58.149 36.7723 57.7887 38.2434 57.0577C39.9422 56.2216 41.8181 55.809 43.7109 55.855C45.6066 55.8097 47.485 56.2239 49.1857 57.0622C50.6717 57.7536 52.2909 58.1118 53.9299 58.1118C55.5688 58.1118 57.188 57.7536 58.674 57.0622C60.3723 56.2252 62.2478 55.811 64.1407 55.855C64.3796 55.855 64.6088 55.95 64.7777 56.1189C64.9467 56.2879 65.0416 56.517 65.0416 56.7559C65.0416 56.9949 64.9467 57.224 64.7777 57.393C64.6088 57.5619 64.3796 57.6568 64.1407 57.6568C62.4974 57.615 60.8688 57.9753 59.3965 58.7064C57.6965 59.5426 55.8194 59.9552 53.9254 59.9091Z" fill="black"/>
<path d="M33.5083 45.4966C33.2694 45.4966 33.0402 45.4016 32.8713 45.2327C32.7023 45.0637 32.6074 44.8346 32.6074 44.5956V12.6137C32.6074 11.0606 33.2244 9.57114 34.3226 8.47295C35.4207 7.37477 36.9102 6.75781 38.4633 6.75781C40.0163 6.75781 41.5058 7.37477 42.604 8.47295C43.7022 9.57114 44.3191 11.0606 44.3191 12.6137C44.3191 12.8526 44.2242 13.0817 44.0553 13.2507C43.8863 13.4197 43.6572 13.5146 43.4182 13.5146C43.1793 13.5146 42.9502 13.4197 42.7812 13.2507C42.6122 13.0817 42.5173 12.8526 42.5173 12.6137C42.5173 11.5385 42.0902 10.5073 41.3299 9.74702C40.5696 8.98674 39.5385 8.55961 38.4633 8.55961C37.3881 8.55961 36.3569 8.98674 35.5966 9.74702C34.8363 10.5073 34.4092 11.5385 34.4092 12.6137V44.5956C34.4092 44.8346 34.3143 45.0637 34.1454 45.2327C33.9764 45.4016 33.7473 45.4966 33.5083 45.4966Z" fill="black"/>
<path d="M53.7798 45.4966C53.5409 45.4966 53.3117 45.4016 53.1428 45.2327C52.9738 45.0637 52.8789 44.8346 52.8789 44.5956V12.6137C52.8789 11.0606 53.4959 9.57114 54.594 8.47295C55.6922 7.37477 57.1817 6.75781 58.7348 6.75781C60.2878 6.75781 61.7773 7.37477 62.8755 8.47295C63.9737 9.57114 64.5906 11.0606 64.5906 12.6137C64.5906 12.8526 64.4957 13.0817 64.3268 13.2507C64.1578 13.4197 63.9287 13.5146 63.6897 13.5146C63.4508 13.5146 63.2216 13.4197 63.0527 13.2507C62.8837 13.0817 62.7888 12.8526 62.7888 12.6137C62.7888 11.5385 62.3617 10.5073 61.6014 9.74702C60.8411 8.98674 59.81 8.55961 58.7348 8.55961C57.6596 8.55961 56.6284 8.98674 55.8681 9.74702C55.1078 10.5073 54.6807 11.5385 54.6807 12.6137V44.5956C54.6807 44.8346 54.5858 45.0637 54.4168 45.2327C54.2479 45.4016 54.0187 45.4966 53.7798 45.4966Z" fill="black"/>
<path d="M53.7786 21.8526H33.5083C33.2694 21.8526 33.0402 21.7577 32.8713 21.5887C32.7023 21.4198 32.6074 21.1906 32.6074 20.9517C32.6074 20.7127 32.7023 20.4836 32.8713 20.3147C33.0402 20.1457 33.2694 20.0508 33.5083 20.0508H53.7786C54.0175 20.0508 54.2467 20.1457 54.4156 20.3147C54.5846 20.4836 54.6795 20.7127 54.6795 20.9517C54.6795 21.1906 54.5846 21.4198 54.4156 21.5887C54.2467 21.7577 54.0175 21.8526 53.7786 21.8526Z" fill="black"/>
<path d="M53.7786 29.0596H33.5083C33.2694 29.0596 33.0402 28.9647 32.8713 28.7957C32.7023 28.6268 32.6074 28.3976 32.6074 28.1587C32.6074 27.9198 32.7023 27.6906 32.8713 27.5217C33.0402 27.3527 33.2694 27.2578 33.5083 27.2578H53.7786C54.0175 27.2578 54.2467 27.3527 54.4156 27.5217C54.5846 27.6906 54.6795 27.9198 54.6795 28.1587C54.6795 28.3976 54.5846 28.6268 54.4156 28.7957C54.2467 28.9647 54.0175 29.0596 53.7786 29.0596Z" fill="black"/>
<path d="M53.7786 36.2666H33.5083C33.2694 36.2666 33.0402 36.1717 32.8713 36.0028C32.7023 35.8338 32.6074 35.6047 32.6074 35.3657C32.6074 35.1268 32.7023 34.8977 32.8713 34.7287C33.0402 34.5598 33.2694 34.4648 33.5083 34.4648H53.7786C54.0175 34.4648 54.2467 34.5598 54.4156 34.7287C54.5846 34.8977 54.6795 35.1268 54.6795 35.3657C54.6795 35.6047 54.5846 35.8338 54.4156 36.0028C54.2467 36.1717 54.0175 36.2666 53.7786 36.2666Z" fill="black"/>
</g>
<defs>
<clipPath id="clip0_676_7914">
<rect width="66.6667" height="66.6667" fill="white" transform="translate(0.175781)"/>
</clipPath>
</defs>
</svg>
