<svg xmlns="http://www.w3.org/2000/svg" width="17" height="17" viewBox="0 0 17 17" fill="none">
  <path d="M8.43348 0.945088C12.3704 0.945088 15.5703 4.14504 15.5703 8.08192C15.5703 12.0188 12.3704 15.2188 8.43348 15.2188C8.16129 15.2188 7.93556 14.993 7.93556 14.7208C7.93556 14.4486 8.16129 14.2229 8.43348 14.2229C11.8193 14.2229 14.5745 11.4678 14.5745 8.08192C14.5745 4.69607 11.8193 1.94093 8.43348 1.94093C5.04764 1.94093 2.29249 4.69607 2.29249 8.08192C2.29249 8.35411 2.06676 8.57984 1.79457 8.57984C1.52237 8.57984 1.29665 8.35411 1.29665 8.08192C1.29665 4.14504 4.49661 0.945088 8.43348 0.945088Z" fill="#1D2939"/>
  <path d="M7.23812 8.77676C7.36426 8.77676 7.49039 8.82323 7.58998 8.92281C7.78251 9.11534 7.78251 9.43401 7.58998 9.62654L2.14607 15.0704C1.95354 15.263 1.63487 15.263 1.44235 15.0704C1.24982 14.8779 1.24982 14.5593 1.44235 14.3667L6.88625 8.92281C6.9792 8.82987 7.10534 8.77676 7.23812 8.77676Z" fill="#1D2939"/>
  <path d="M4.56307 8.24679H7.76966C8.04186 8.24679 8.26758 8.47251 8.26758 8.74471V11.9513C8.26758 12.2235 8.04186 12.4492 7.76966 12.4492C7.49746 12.4492 7.27174 12.2235 7.27174 11.9513V9.24262H4.56307C4.29087 9.24262 4.06515 9.0169 4.06515 8.74471C4.06515 8.47251 4.29087 8.24679 4.56307 8.24679Z" fill="#1D2939"/>
</svg>