<svg width="98" height="33" viewBox="0 0 98 33" fill="none" xmlns="http://www.w3.org/2000/svg">
<g id="Group">
<g id="Group_2">
<g id="Group_3">
<path id="Vector" d="M89.7356 0.000105921H7.76867C7.46989 0.000105921 7.17469 0.000105921 6.87671 0.00173548C6.62726 0.00336504 6.3798 0.00809892 6.12796 0.0120832C5.58085 0.0185214 5.03502 0.0666541 4.49522 0.156063C3.95619 0.247418 3.43403 0.419649 2.94642 0.66693C2.45941 0.916303 2.01442 1.24034 1.62758 1.62728C1.23871 2.01313 0.914561 2.45913 0.66759 2.94811C0.419938 3.43612 0.248215 3.95907 0.158353 4.4989C0.0676357 5.03804 0.0188201 5.5834 0.0123439 6.13009C0.00478276 6.3799 0.00398428 6.63054 0 6.88039V25.7134C0.00398428 25.9664 0.00478276 26.2115 0.0123439 26.4646C0.0188221 27.0112 0.0676377 27.5566 0.158353 28.0957C0.247967 28.6358 0.4197 29.1591 0.66759 29.6473C0.914449 30.1347 1.23865 30.5789 1.62758 30.9626C2.01295 31.3512 2.45823 31.6755 2.94642 31.923C3.43403 32.1709 3.95613 32.3442 4.49522 32.4369C5.03511 32.5256 5.58088 32.5738 6.12796 32.581C6.3798 32.5865 6.62726 32.5897 6.87671 32.5897C7.17469 32.5913 7.46991 32.5913 7.76867 32.5913H89.7356C90.0285 32.5913 90.326 32.5913 90.6189 32.5897C90.8671 32.5897 91.1217 32.5865 91.37 32.581C91.9161 32.5741 92.4608 32.526 92.9996 32.4369C93.5404 32.3435 94.0644 32.1703 94.5543 31.923C95.0421 31.6753 95.487 31.3511 95.872 30.9626C96.2599 30.5774 96.5848 30.1335 96.8347 29.6473C97.0808 29.1587 97.2509 28.6355 97.3392 28.0957C97.43 27.5565 97.4806 27.0113 97.4904 26.4646C97.4936 26.2115 97.4936 25.9664 97.4936 25.7134C97.4999 25.4174 97.4999 25.123 97.4999 24.8222V7.76996C97.4999 7.47158 97.4999 7.17558 97.4936 6.88039C97.4936 6.63054 97.4936 6.3799 97.4904 6.13006C97.4806 5.58332 97.43 5.03808 97.3392 4.49887C97.2506 3.95935 97.0805 3.43644 96.8347 2.94808C96.3318 1.96796 95.5343 1.17015 94.5543 0.666857C94.0644 0.42018 93.5404 0.247995 92.9996 0.15599C92.4609 0.0661869 91.9161 0.0180374 91.37 0.0119691C91.1217 0.00799299 90.8671 0.00321838 90.6189 0.00162956C90.326 0 90.0285 0 89.7356 0V0.000105921Z" fill="#A6A6A6"/>
<path id="Vector_2" d="M6.88031 31.8802C6.63206 31.8802 6.38981 31.877 6.14351 31.8715C5.63328 31.8648 5.12424 31.8204 4.62057 31.7386C4.15092 31.6577 3.69596 31.5072 3.27069 31.2922C2.84932 31.0789 2.465 30.7992 2.13244 30.4639C1.79508 30.1325 1.5142 29.7481 1.30095 29.326C1.08535 28.9012 0.936145 28.4458 0.858527 27.9758C0.774706 27.4707 0.729355 26.96 0.722866 26.448C0.7177 26.2762 0.710938 25.7041 0.710938 25.7041V6.88219C0.710938 6.88219 0.71814 6.31885 0.722907 6.15334C0.72912 5.64221 0.774207 5.1323 0.857777 4.62801C0.935539 4.15668 1.08486 3.69999 1.30058 3.27377C1.51304 2.85197 1.79236 2.46732 2.12769 2.13475C2.46265 1.79901 2.84821 1.51789 3.27029 1.30166C3.69459 1.08727 4.14869 0.937876 4.61739 0.858465C5.12271 0.775819 5.63351 0.731136 6.14551 0.724792L6.88071 0.714844H90.6145L91.3585 0.725191C91.8658 0.73122 92.372 0.775504 92.8727 0.857667C93.3461 0.938073 93.8049 1.08851 94.2341 1.30404C95.0797 1.73983 95.7677 2.42927 96.2018 3.27576C96.414 3.69904 96.5611 4.152 96.6378 4.61926C96.7224 5.12769 96.7697 5.64161 96.7795 6.15692C96.7818 6.38767 96.7818 6.63553 96.7818 6.88219C96.7883 7.18774 96.7882 7.47855 96.7882 7.77176V24.824C96.7882 25.12 96.7883 25.4089 96.7818 25.7001C96.7818 25.965 96.7818 26.2078 96.7786 26.4576C96.7691 26.9637 96.7226 27.4685 96.6394 27.9678C96.5634 28.4412 96.415 28.9001 96.1994 29.3285C95.9846 29.746 95.7054 30.127 95.3719 30.4575C95.0391 30.7946 94.6541 31.076 94.2317 31.2906C93.8038 31.5073 93.3456 31.6584 92.8727 31.7386C92.369 31.8208 91.8599 31.8653 91.3497 31.8715C91.111 31.877 90.8611 31.8802 90.6185 31.8802L89.7353 31.8818L6.88031 31.8802Z" fill="black"/>
</g>
<g id="&#60;Group&#62;">
<g id="&#60;Group&#62;_2">
<g id="&#60;Group&#62;_3">
<path id="&#60;Path&#62;" d="M20.1835 16.5346C20.1923 15.8545 20.3729 15.1877 20.7086 14.5962C21.0443 14.0047 21.5242 13.5078 22.1036 13.1516C21.7355 12.6259 21.25 12.1933 20.6855 11.8881C20.121 11.5829 19.4931 11.4136 18.8517 11.3935C17.4835 11.2499 16.157 12.2122 15.4598 12.2122C14.7491 12.2122 13.6756 11.4078 12.5197 11.4316C11.772 11.4557 11.0433 11.6731 10.4046 12.0627C9.76591 12.4522 9.23901 13.0005 8.87524 13.6542C7.29946 16.3824 8.47485 20.392 9.98432 22.5973C10.7395 23.6771 11.6222 24.8834 12.7771 24.8406C13.9072 24.7937 14.3293 24.1199 15.6935 24.1199C17.045 24.1199 17.441 24.8406 18.6194 24.8134C19.8321 24.7937 20.5961 23.7287 21.3249 22.6386C21.8675 21.8692 22.285 21.0188 22.5621 20.1189C21.8575 19.8209 21.2563 19.3221 20.8333 18.6847C20.4103 18.0473 20.1843 17.2995 20.1835 16.5346Z" fill="white"/>
<path id="&#60;Path&#62;_2" d="M17.9577 9.94174C18.6189 9.14798 18.9447 8.12773 18.8658 7.09766C17.8556 7.20376 16.9225 7.68656 16.2523 8.44987C15.9247 8.82277 15.6737 9.25659 15.5138 9.72653C15.3539 10.1965 15.2882 10.6933 15.3205 11.1887C15.8258 11.1939 16.3256 11.0844 16.7824 10.8684C17.2393 10.6524 17.6411 10.3355 17.9577 9.94174Z" fill="white"/>
</g>
</g>
<g id="Group_4">
<path id="Vector_3" d="M34.4672 22.1058H30.6105L29.6843 24.8406H28.0508L31.7038 14.7227H33.401L37.0539 24.8406H35.3925L34.4672 22.1058ZM31.0099 20.8439H34.067L32.56 16.4055H32.5178L31.0099 20.8439Z" fill="white"/>
<path id="Vector_4" d="M44.9429 21.1541C44.9429 23.4464 43.7159 24.9192 41.8644 24.9192C41.3953 24.9438 40.9289 24.8357 40.5184 24.6075C40.1079 24.3792 39.77 24.04 39.5434 23.6286H39.5083V27.2824H37.9941V17.4653H39.4598V18.6922H39.4877C39.7247 18.2828 40.0683 17.9453 40.482 17.7157C40.8956 17.486 41.3637 17.3728 41.8365 17.3881C43.7087 17.3881 44.9429 18.8681 44.9429 21.1541ZM43.3865 21.1541C43.3865 19.6606 42.6147 18.6787 41.4371 18.6787C40.2802 18.6787 39.502 19.6812 39.502 21.1541C39.502 22.6404 40.2802 23.6358 41.4371 23.6358C42.6147 23.6358 43.3865 22.6611 43.3865 21.1541Z" fill="white"/>
<path id="Vector_5" d="M53.062 21.1541C53.062 23.4464 51.8351 24.9192 49.9835 24.9192C49.5145 24.9438 49.048 24.8357 48.6375 24.6075C48.2271 24.3792 47.8891 24.04 47.6625 23.6286H47.6275V27.2824H46.1133V17.4653H47.5789V18.6922H47.6068C47.8438 18.2828 48.1875 17.9453 48.6011 17.7157C49.0147 17.486 49.4828 17.3728 49.9556 17.3881C51.8279 17.3881 53.062 18.868 53.062 21.1541ZM51.5057 21.1541C51.5057 19.6606 50.7338 18.6787 49.5562 18.6787C48.3993 18.6787 47.6211 19.6812 47.6211 21.1541C47.6211 22.6404 48.3993 23.6358 49.5562 23.6358C50.7338 23.6358 51.5057 22.6611 51.5057 21.1541H51.5057Z" fill="white"/>
<path id="Vector_6" d="M58.4289 22.0222C58.5411 23.0256 59.5158 23.6844 60.8478 23.6844C62.1241 23.6844 63.0423 23.0256 63.0423 22.1209C63.0423 21.3355 62.4885 20.8653 61.1772 20.543L59.8659 20.2271C58.008 19.7784 57.1455 18.9095 57.1455 17.4995C57.1455 15.7538 58.6668 14.5547 60.8271 14.5547C62.9651 14.5547 64.4308 15.7538 64.4801 17.4995H62.9516C62.8601 16.4898 62.0254 15.8803 60.8056 15.8803C59.5858 15.8803 58.7512 16.497 58.7512 17.3945C58.7512 18.1098 59.2843 18.5307 60.5884 18.8529L61.7031 19.1267C63.7791 19.6176 64.6416 20.4515 64.6416 21.9314C64.6416 23.8244 63.1338 25.0099 60.7356 25.0099C58.4918 25.0099 56.9768 23.8522 56.8789 22.0221L58.4289 22.0222Z" fill="white"/>
<path id="Vector_7" d="M67.9084 15.7188V17.4645H69.3112V18.6636H67.9084V22.7303C67.9084 23.3621 68.1893 23.6565 68.8059 23.6565C68.9724 23.6536 69.1387 23.6419 69.304 23.6215V24.8134C69.0268 24.8652 68.745 24.8887 68.463 24.8834C66.9695 24.8834 66.387 24.3225 66.387 22.8918V18.6636H65.3145V17.4645H66.387V15.7188H67.9084Z" fill="white"/>
<path id="Vector_8" d="M70.125 21.1545C70.125 18.8335 71.492 17.375 73.6236 17.375C75.7624 17.375 77.123 18.8335 77.123 21.1545C77.123 23.4819 75.7696 24.934 73.6236 24.934C71.4784 24.934 70.125 23.4819 70.125 21.1545ZM75.5802 21.1545C75.5802 19.5623 74.8506 18.6226 73.6236 18.6226C72.3967 18.6226 71.6678 19.5695 71.6678 21.1545C71.6678 22.753 72.3967 23.6856 73.6236 23.6856C74.8506 23.6856 75.5802 22.753 75.5802 21.1545H75.5802Z" fill="white"/>
<path id="Vector_9" d="M78.3691 17.4652H79.8133V18.7208H79.8483C79.9461 18.3286 80.1758 17.9821 80.4989 17.7394C80.8221 17.4967 81.2189 17.3726 81.6227 17.388C81.7972 17.3874 81.9712 17.4063 82.1415 17.4445V18.8608C81.9212 18.7935 81.6914 18.7626 81.4612 18.7693C81.2412 18.7604 81.0219 18.7992 80.8183 18.883C80.6148 18.9668 80.4317 19.0937 80.2818 19.255C80.1319 19.4162 80.0187 19.608 79.9499 19.8171C79.8811 20.0262 79.8584 20.2478 79.8833 20.4665V24.842H78.3691L78.3691 17.4652Z" fill="white"/>
<path id="Vector_10" d="M89.1231 22.6758C88.9194 24.015 87.6152 24.934 85.9467 24.934C83.8007 24.934 82.4688 23.4962 82.4688 21.1895C82.4688 18.8757 83.8079 17.375 85.883 17.375C87.924 17.375 89.2074 18.777 89.2074 21.0137V21.5324H83.9973V21.6239C83.9732 21.8954 84.0072 22.1689 84.097 22.4263C84.1867 22.6836 84.3302 22.9189 84.5179 23.1165C84.7056 23.3142 84.9332 23.4696 85.1856 23.5725C85.438 23.6754 85.7093 23.7234 85.9817 23.7134C86.3395 23.7469 86.6986 23.6641 87.0055 23.4771C87.3125 23.2902 87.5509 23.0092 87.6853 22.6758L89.1231 22.6758ZM84.0044 20.4742H87.6924C87.706 20.2301 87.669 19.9858 87.5837 19.7567C87.4984 19.5276 87.3667 19.3185 87.1968 19.1427C87.0269 18.9669 86.8225 18.8281 86.5964 18.7351C86.3703 18.642 86.1275 18.5967 85.883 18.6019C85.6365 18.6005 85.392 18.6478 85.1638 18.7413C84.9357 18.8348 84.7283 18.9726 84.5536 19.1466C84.379 19.3207 84.2405 19.5276 84.1463 19.7555C84.052 19.9833 84.0038 20.2276 84.0044 20.4742V20.4742Z" fill="white"/>
</g>
</g>
</g>
<g id="&#60;Group&#62;_4">
<g id="Group_5">
<path id="Vector_11" d="M30.8205 7.11489C31.138 7.09211 31.4565 7.14007 31.7532 7.25531C32.0499 7.37054 32.3173 7.55019 32.5361 7.78128C32.7549 8.01237 32.9198 8.28915 33.0187 8.59165C33.1176 8.89416 33.1481 9.21485 33.1081 9.53058C33.1081 11.0838 32.2687 11.9766 30.8205 11.9766H29.0645V7.11489H30.8205ZM29.8196 11.289H30.7362C30.963 11.3026 31.19 11.2654 31.4007 11.1801C31.6113 11.0949 31.8003 10.9638 31.9539 10.7963C32.1075 10.6288 32.2218 10.4292 32.2885 10.2119C32.3552 9.99468 32.3726 9.76531 32.3395 9.54049C32.3702 9.31656 32.351 9.08861 32.2833 8.87297C32.2156 8.65733 32.101 8.45933 31.9478 8.29317C31.7945 8.12701 31.6064 7.99681 31.397 7.91188C31.1875 7.82695 30.9619 7.7894 30.7362 7.80192H29.8196V11.289Z" fill="white"/>
<path id="Vector_12" d="M33.9613 10.1419C33.9382 9.90081 33.9658 9.65754 34.0423 9.42772C34.1187 9.19789 34.2424 8.98658 34.4053 8.80735C34.5682 8.62811 34.7668 8.4849 34.9883 8.3869C35.2098 8.2889 35.4493 8.23828 35.6915 8.23828C35.9337 8.23828 36.1733 8.2889 36.3948 8.3869C36.6163 8.4849 36.8148 8.62811 36.9777 8.80735C37.1407 8.98658 37.2643 9.19789 37.3408 9.42772C37.4172 9.65754 37.4448 9.90081 37.4217 10.1419C37.4452 10.3833 37.418 10.6269 37.3417 10.8571C37.2655 11.0873 37.1419 11.299 36.979 11.4786C36.816 11.6581 36.6173 11.8017 36.3956 11.8999C36.1738 11.9981 35.934 12.0488 35.6915 12.0488C35.449 12.0488 35.2092 11.9981 34.9875 11.8999C34.7658 11.8017 34.567 11.6581 34.4041 11.4786C34.2411 11.299 34.1176 11.0873 34.0413 10.8571C33.9651 10.6269 33.9378 10.3833 33.9613 10.1419ZM36.677 10.1419C36.677 9.34663 36.3197 8.88156 35.6927 8.88156C35.0633 8.88156 34.7093 9.34663 34.7093 10.1419C34.7093 10.9436 35.0634 11.4051 35.6927 11.4051C36.3197 11.4051 36.677 10.9404 36.677 10.1419H36.677Z" fill="white"/>
<path id="Vector_13" d="M42.0204 11.9775H41.2693L40.511 9.27535H40.4537L39.6986 11.9775H38.9547L37.9434 8.30859H38.6778L39.335 11.1082H39.3891L40.1434 8.30859H40.8381L41.5924 11.1082H41.6497L42.3037 8.30859H43.0278L42.0204 11.9775Z" fill="white"/>
<path id="Vector_14" d="M43.8789 8.30881H44.5759V8.89164H44.63C44.7218 8.68231 44.8766 8.50683 45.0729 8.38966C45.2691 8.27249 45.4971 8.21947 45.7249 8.23799C45.9034 8.22456 46.0827 8.25148 46.2494 8.31674C46.4161 8.382 46.566 8.48394 46.6879 8.61499C46.8099 8.74604 46.9008 8.90285 46.9539 9.07381C47.007 9.24477 47.021 9.42549 46.9948 9.60258V11.9777H46.2707V9.78441C46.2707 9.19481 46.0145 8.90159 45.479 8.90159C45.3578 8.89595 45.2368 8.91658 45.1243 8.96207C45.0119 9.00756 44.9105 9.07683 44.8273 9.16514C44.7441 9.25345 44.681 9.35871 44.6423 9.4737C44.6035 9.58869 44.5901 9.71069 44.603 9.83135V11.9777H43.8789L43.8789 8.30881Z" fill="white"/>
<path id="Vector_15" d="M48.1484 6.875H48.8725V11.9761H48.1484V6.875Z" fill="white"/>
<path id="Vector_16" d="M49.8793 10.142C49.8562 9.90086 49.8838 9.65758 49.9603 9.42775C50.0368 9.19791 50.1604 8.9866 50.3234 8.80736C50.4863 8.62812 50.6849 8.4849 50.9064 8.3869C51.1279 8.2889 51.3675 8.23828 51.6097 8.23828C51.8519 8.23828 52.0914 8.2889 52.313 8.3869C52.5345 8.4849 52.7331 8.62812 52.896 8.80736C53.0589 8.9866 53.1826 9.19791 53.2591 9.42775C53.3355 9.65758 53.3631 9.90086 53.3401 10.142C53.3636 10.3834 53.3363 10.627 53.26 10.8572C53.1837 11.0873 53.0601 11.299 52.8972 11.4786C52.7342 11.6582 52.5355 11.8017 52.3137 11.8999C52.092 11.9981 51.8522 12.0489 51.6097 12.0489C51.3672 12.0489 51.1273 11.9981 50.9056 11.8999C50.6839 11.8017 50.4852 11.6582 50.3222 11.4786C50.1592 11.299 50.0356 11.0873 49.9593 10.8572C49.8831 10.627 49.8558 10.3834 49.8793 10.142ZM52.5949 10.142C52.5949 9.3467 52.2377 8.88163 51.6107 8.88163C50.9813 8.88163 50.6272 9.3467 50.6272 10.142C50.6272 10.9436 50.9813 11.4051 51.6107 11.4051C52.2377 11.4051 52.5949 10.9405 52.5949 10.142H52.5949Z" fill="white"/>
<path id="Vector_17" d="M54.1035 10.9404C54.1035 10.28 54.5952 9.89927 55.4681 9.84516L56.4619 9.78787V9.47119C56.4619 9.08369 56.2057 8.86488 55.7108 8.86488C55.3066 8.86488 55.0265 9.01328 54.9461 9.27267H54.2451C54.3191 8.64249 54.9119 8.23828 55.7442 8.23828C56.664 8.23828 57.1828 8.69619 57.1828 9.47119V11.978H56.4858V11.4624H56.4285C56.3122 11.6473 56.1489 11.7981 55.9553 11.8993C55.7617 12.0005 55.5447 12.0485 55.3265 12.0384C55.1725 12.0545 55.0168 12.038 54.8695 11.9902C54.7222 11.9424 54.5866 11.8642 54.4714 11.7608C54.3562 11.6573 54.2639 11.5309 54.2005 11.3896C54.1372 11.2483 54.1041 11.0953 54.1035 10.9404ZM56.4619 10.6269V10.3202L55.566 10.3775C55.0607 10.4113 54.8316 10.5832 54.8316 10.9066C54.8316 11.2368 55.118 11.429 55.5119 11.429C55.6273 11.4406 55.7439 11.429 55.8547 11.3947C55.9655 11.3604 56.0683 11.3042 56.1569 11.2293C56.2456 11.1545 56.3183 11.0626 56.3706 10.9591C56.423 10.8556 56.4541 10.7427 56.4619 10.6269Z" fill="white"/>
<path id="Vector_18" d="M58.1348 10.1401C58.1348 8.98079 58.7307 8.24637 59.6577 8.24637C59.887 8.23581 60.1146 8.29073 60.3138 8.40471C60.513 8.51869 60.6757 8.68703 60.7828 8.89005H60.8369V6.875H61.561V11.9761H60.8672V11.3965H60.8099C60.6945 11.5981 60.5261 11.7644 60.3231 11.8772C60.12 11.99 59.8899 12.0451 59.6577 12.0366C58.7244 12.0366 58.1348 11.3022 58.1348 10.1401ZM58.8827 10.1401C58.8827 10.9183 59.2495 11.3865 59.863 11.3865C60.4733 11.3865 60.8505 10.9115 60.8505 10.1433C60.8505 9.37863 60.4693 8.89684 59.863 8.89684C59.2535 8.89684 58.8827 9.36828 58.8827 10.1401H58.8827Z" fill="white"/>
<path id="Vector_19" d="M64.5551 10.1419C64.532 9.90081 64.5596 9.65754 64.636 9.42772C64.7125 9.19789 64.8361 8.98658 64.9991 8.80735C65.162 8.62811 65.3605 8.4849 65.582 8.3869C65.8035 8.2889 66.0431 8.23828 66.2853 8.23828C66.5275 8.23828 66.767 8.2889 66.9885 8.3869C67.21 8.4849 67.4086 8.62811 67.5715 8.80735C67.7344 8.98658 67.8581 9.19789 67.9345 9.42772C68.011 9.65754 68.0386 9.90081 68.0155 10.1419C68.039 10.3833 68.0117 10.6269 67.9355 10.8571C67.8592 11.0873 67.7356 11.299 67.5727 11.4786C67.4097 11.6581 67.211 11.8017 66.9893 11.8999C66.7676 11.9981 66.5278 12.0488 66.2853 12.0488C66.0428 12.0488 65.803 11.9981 65.5812 11.8999C65.3595 11.8017 65.1608 11.6581 64.9978 11.4786C64.8349 11.299 64.7113 11.0873 64.6351 10.8571C64.5588 10.6269 64.5316 10.3833 64.5551 10.1419ZM67.2707 10.1419C67.2707 9.34663 66.9135 8.88156 66.2865 8.88156C65.6571 8.88156 65.303 9.34663 65.303 10.1419C65.303 10.9436 65.6571 11.4051 66.2865 11.4051C66.9135 11.4051 67.2707 10.9404 67.2707 10.1419Z" fill="white"/>
<path id="Vector_20" d="M68.9863 8.30881H69.6833V8.89164H69.7375C69.8292 8.68231 69.9841 8.50683 70.1803 8.38966C70.3766 8.27249 70.6045 8.21947 70.8323 8.23799C71.0108 8.22456 71.1901 8.25148 71.3568 8.31674C71.5235 8.382 71.6734 8.48394 71.7953 8.61499C71.9173 8.74604 72.0082 8.90285 72.0613 9.07381C72.1145 9.24477 72.1284 9.42549 72.1022 9.60258V11.9777H71.3782V9.78441C71.3782 9.19481 71.122 8.90159 70.5865 8.90159C70.4653 8.89595 70.3443 8.91658 70.2318 8.96207C70.1193 9.00756 70.018 9.07683 69.9348 9.16514C69.8515 9.25345 69.7884 9.35871 69.7497 9.4737C69.711 9.58869 69.6976 9.71069 69.7104 9.83135V11.9777H68.9863V8.30881Z" fill="white"/>
<path id="Vector_21" d="M76.196 7.39453V8.32468H76.9909V8.93458H76.196V10.8211C76.196 11.2055 76.3543 11.3737 76.7148 11.3737C76.807 11.3735 76.8992 11.3679 76.9909 11.357V11.9602C76.8608 11.9834 76.7291 11.9958 76.597 11.9972C75.7918 11.9972 75.4711 11.7139 75.4711 11.0065V8.93455H74.8887V8.32465H75.4711V7.39453H76.196Z" fill="white"/>
<path id="Vector_22" d="M77.9785 6.875H78.6962V8.89684H78.7535C78.8498 8.68555 79.0088 8.50907 79.209 8.39146C79.4092 8.27385 79.6408 8.22082 79.8722 8.2396C80.0498 8.22994 80.2273 8.25959 80.3921 8.32643C80.5569 8.39328 80.705 8.49568 80.8257 8.62632C80.9463 8.75696 81.0367 8.91262 81.0903 9.08221C81.1439 9.25179 81.1594 9.43111 81.1357 9.60738V11.9761H80.411V9.78601C80.411 9.19998 80.138 8.90319 79.6264 8.90319C79.502 8.89299 79.3768 8.91009 79.2596 8.95332C79.1425 8.99655 79.0362 9.06485 78.9482 9.15345C78.8602 9.24204 78.7927 9.3488 78.7502 9.46624C78.7078 9.58368 78.6916 9.70897 78.7026 9.83334V11.9761H77.9785L77.9785 6.875Z" fill="white"/>
<path id="Vector_23" d="M85.3569 10.9874C85.2585 11.3227 85.0453 11.6128 84.7547 11.8068C84.4641 12.0009 84.1145 12.0865 83.7671 12.0489C83.5254 12.0552 83.2852 12.009 83.0631 11.9132C82.8411 11.8174 82.6426 11.6745 82.4813 11.4943C82.3201 11.3141 82.2 11.101 82.1293 10.8698C82.0587 10.6385 82.0392 10.3947 82.0723 10.1551C82.0401 9.91488 82.0599 9.6705 82.1304 9.43855C82.2008 9.20661 82.3203 8.99251 82.4807 8.81076C82.6411 8.629 82.8387 8.48383 83.0601 8.38507C83.2815 8.28631 83.5215 8.23628 83.7639 8.23834C84.7848 8.23834 85.4006 8.93579 85.4006 10.0879V10.3405H82.8099V10.3811C82.7985 10.5158 82.8155 10.6513 82.8596 10.779C82.9037 10.9067 82.974 11.0238 83.066 11.1228C83.158 11.2217 83.2696 11.3004 83.3938 11.3537C83.5179 11.4069 83.6519 11.4337 83.787 11.4322C83.9602 11.453 84.1357 11.4218 84.2911 11.3426C84.4465 11.2634 84.5749 11.1398 84.6598 10.9874L85.3569 10.9874ZM82.8099 9.80504H84.663C84.6721 9.68191 84.6554 9.55822 84.6139 9.44194C84.5724 9.32566 84.507 9.21934 84.4219 9.12983C84.3369 9.04032 84.234 8.9696 84.12 8.9222C84.006 8.8748 83.8833 8.85177 83.7599 8.8546C83.6347 8.85303 83.5104 8.87654 83.3944 8.92375C83.2784 8.97097 83.173 9.04092 83.0845 9.1295C82.9959 9.21808 82.926 9.32348 82.8789 9.4395C82.8317 9.55552 82.8083 9.67981 82.8099 9.80504H82.8099Z" fill="white"/>
</g>
</g>
</g>
</svg>
