<svg width="110" height="33" viewBox="0 0 110 33" fill="none" xmlns="http://www.w3.org/2000/svg">
<g id="Badges" clip-path="url(#clip0_3924_4763)">
<path id="Vector" fill-rule="evenodd" clip-rule="evenodd" d="M105.924 32.5912H4.07931C1.83318 32.5912 0.00390625 30.7544 0.00390625 28.5173V4.0739C0.00390625 1.82868 1.83318 0 4.07931 0H105.924C108.168 0 109.999 1.82868 109.999 4.0739V28.5173C109.999 30.7544 108.168 32.5912 105.924 32.5912Z" fill="black"/>
<path id="Vector_2" fill-rule="evenodd" clip-rule="evenodd" d="M105.924 0.652231C107.808 0.652231 109.35 2.19036 109.35 4.0739V28.5173C109.35 30.4009 107.818 31.939 105.924 31.939H4.07931C2.19539 31.939 0.653461 30.4009 0.653461 28.5173V4.0739C0.653461 2.19036 2.18528 0.652231 4.07931 0.652231H105.924ZM105.924 0H4.07931C1.83318 0 0.00390625 1.83681 0.00390625 4.0739V28.5173C0.00390625 30.7625 1.83318 32.5912 4.07931 32.5912H105.924C108.168 32.5912 109.999 30.7625 109.999 28.5173V4.0739C109.999 1.83681 108.168 0 105.924 0Z" fill="#A6A6A6"/>
<path id="Vector_3" d="M57.9509 10.7804C57.2164 10.7804 56.5972 10.5223 56.1075 10.0143C55.6219 9.5206 55.3507 8.83992 55.3628 8.14502C55.3628 7.40339 55.6138 6.77554 56.1075 6.27773C56.5952 5.76977 57.2144 5.51172 57.9489 5.51172C58.6754 5.51172 59.2946 5.76977 59.7923 6.27773C60.2861 6.7918 60.537 7.41965 60.537 8.14502C60.5289 8.88869 60.278 9.51654 59.7923 10.0123C59.3047 10.5243 58.6855 10.7804 57.9509 10.7804ZM36.0949 10.7804C35.3765 10.7804 34.7533 10.5264 34.2433 10.0245C33.7375 9.52466 33.4805 8.89275 33.4805 8.14706C33.4805 7.40136 33.7375 6.76945 34.2433 6.26961C34.7431 5.76773 35.3664 5.51375 36.0949 5.51375C36.451 5.51375 36.797 5.58487 37.1289 5.72913C37.4547 5.86933 37.7197 6.06032 37.916 6.29399L37.9646 6.35291L37.4162 6.89339L37.3596 6.82634C37.05 6.45654 36.6351 6.2757 36.0868 6.2757C35.5971 6.2757 35.1701 6.45044 34.818 6.79586C34.4639 7.14331 34.2838 7.59845 34.2838 8.14909C34.2838 8.69972 34.4639 9.15486 34.818 9.50231C35.1701 9.84773 35.5971 10.0225 36.0868 10.0225C36.6088 10.0225 37.0479 9.84773 37.3899 9.50231C37.5923 9.29913 37.7177 9.01466 37.7622 8.65502H36.0038V7.8951H38.517L38.5271 7.96419C38.5453 8.0922 38.5636 8.22427 38.5636 8.34618C38.5636 9.04717 38.3531 9.61407 37.9363 10.0326C37.4628 10.5284 36.8436 10.7804 36.0949 10.7804ZM65.1547 10.6727H64.3797L62.0061 6.85885L62.0263 7.54562V10.6706H61.2513V5.62144H62.1356L62.1599 5.66005L64.3918 9.25239L64.3716 8.56765V5.62144H65.1547V10.6727ZM52.1272 10.6727H51.3421V6.38136H49.9803V5.62144H53.487V6.38136H52.1252V10.6727H52.1272ZM49.3408 10.6727H48.5577V5.62144H49.3408V10.6727ZM44.9397 10.6727H44.1566V6.38136H42.7947V5.62144H46.3015V6.38136H44.9397V10.6727ZM42.299 10.6645H39.2961V5.62144H42.299V6.38136H40.0812V7.7671H42.0825V8.51889H40.0812V9.90462H42.299V10.6645ZM56.6822 9.49215C57.0323 9.84367 57.4572 10.0204 57.9509 10.0204C58.4588 10.0204 58.8737 9.84773 59.2197 9.49215C59.5637 9.14674 59.7377 8.69363 59.7377 8.14706C59.7377 7.60048 59.5637 7.14534 59.2217 6.80196C58.8716 6.45044 58.4447 6.27367 57.953 6.27367C57.4451 6.27367 57.0302 6.44638 56.6862 6.80196C56.3422 7.14737 56.1682 7.60048 56.1682 8.14706C56.1682 8.69363 56.3402 9.14877 56.6822 9.49215Z" fill="white"/>
<path id="Vector_4" fill-rule="evenodd" clip-rule="evenodd" d="M55.2897 17.7234C53.3774 17.7234 51.8274 19.1802 51.8274 21.1897C51.8274 23.181 53.3875 24.6561 55.2897 24.6561C57.2019 24.6561 58.7519 23.1891 58.7519 21.1897C58.7519 19.1802 57.2019 17.7234 55.2897 17.7234ZM55.2897 23.2826C54.2435 23.2826 53.343 22.4129 53.343 21.1816C53.343 19.932 54.2455 19.0807 55.2897 19.0807C56.3358 19.0807 57.2363 19.932 57.2363 21.1816C57.2383 22.421 56.3358 23.2826 55.2897 23.2826ZM47.7358 17.7234C45.8235 17.7234 44.2735 19.1802 44.2735 21.1897C44.2735 23.181 45.8337 24.6561 47.7358 24.6561C49.648 24.6561 51.1981 23.1891 51.1981 21.1897C51.1981 19.1802 49.646 17.7234 47.7358 17.7234ZM47.7358 23.2826C46.6896 23.2826 45.7891 22.4129 45.7891 21.1816C45.7891 19.932 46.6916 19.0807 47.7358 19.0807C48.782 19.0807 49.6824 19.932 49.6824 21.1816C49.6824 22.421 48.782 23.2826 47.7358 23.2826ZM38.7472 18.782V20.249H42.254C42.1468 21.0719 41.8756 21.6794 41.4608 22.0959C40.9468 22.612 40.1536 23.1728 38.7553 23.1728C36.6003 23.1728 34.9146 21.4254 34.9146 19.2615C34.9146 17.0975 36.6003 15.3501 38.7553 15.3501C39.9189 15.3501 40.7667 15.8114 41.396 16.4006L42.4321 15.3603C41.5579 14.5191 40.3944 13.875 38.7634 13.875C35.807 13.875 33.3262 16.2929 33.3262 19.2534C33.3262 22.2219 35.805 24.6317 38.7634 24.6317C40.36 24.6317 41.5579 24.1075 42.5049 23.12C43.4702 22.1508 43.7757 20.7834 43.7757 19.6801C43.7757 19.3367 43.7494 19.0278 43.6948 18.7657H38.7452C38.7472 18.7637 38.7472 18.782 38.7472 18.782ZM75.5129 19.9239C75.2235 19.1457 74.3494 17.7152 72.5565 17.7152C70.7798 17.7152 69.3027 19.1193 69.3027 21.1816C69.3027 23.1281 70.7637 24.648 72.7285 24.648C74.3069 24.648 75.2256 23.6788 75.604 23.1099L74.4323 22.3215C74.0438 22.9006 73.5035 23.2805 72.7366 23.2805C71.9616 23.2805 71.4193 22.927 71.0591 22.2301L75.6748 20.3099C75.6748 20.312 75.5129 19.9239 75.5129 19.9239ZM70.8061 21.082C70.7697 19.743 71.8422 19.0624 72.6091 19.0624C73.2142 19.0624 73.718 19.3611 73.89 19.7959L70.8061 21.082ZM67.0565 24.4407H68.5722V14.257H67.0565V24.4407ZM64.5676 18.4934H64.5129C64.171 18.085 63.5214 17.7152 62.6918 17.7152C60.9697 17.7152 59.3833 19.2371 59.3833 21.1918C59.3833 23.1383 60.9616 24.6419 62.6918 24.6419C63.5113 24.6419 64.171 24.2701 64.5129 23.8535H64.5676V24.3513C64.5676 25.6741 63.8634 26.3873 62.7282 26.3873C61.7994 26.3873 61.2227 25.7167 60.9879 25.1559L59.6706 25.7086C60.049 26.623 61.0588 27.7547 62.7262 27.7547C64.5028 27.7547 66.0083 26.7042 66.0083 24.142V17.9225H64.5757V18.4934C64.5777 18.4934 64.5676 18.4934 64.5676 18.4934ZM62.8273 23.2826C61.7812 23.2826 60.907 22.4048 60.907 21.1918C60.907 19.9686 61.7812 19.0827 62.8273 19.0827C63.8634 19.0827 64.6667 19.9787 64.6667 21.1918C64.6768 22.4048 63.8654 23.2826 62.8273 23.2826ZM82.6094 14.257H78.9853V24.4407H80.5009V20.5842H82.6115C84.289 20.5842 85.9382 19.3631 85.9382 17.4247C85.9382 15.4863 84.2951 14.257 82.6094 14.257ZM82.654 19.1619H80.4989V15.6671H82.654C83.7892 15.6671 84.4306 16.6079 84.4306 17.4145C84.4306 18.213 83.7811 19.1619 82.654 19.1619ZM92.0128 17.7051C90.912 17.7051 89.7768 18.1948 89.3074 19.2615L90.651 19.8223C90.9404 19.2615 91.4705 19.0705 92.031 19.0705C92.8162 19.0705 93.6094 19.5419 93.6276 20.3831V20.4908C93.3565 20.3363 92.7615 20.1007 92.0493 20.1007C90.5984 20.1007 89.1273 20.8971 89.1273 22.3906C89.1273 23.758 90.3171 24.6358 91.6425 24.6358C92.6604 24.6358 93.2209 24.1746 93.5709 23.6402H93.6256V24.4285H95.0866V20.5273C95.0866 18.7109 93.743 17.7051 92.0128 17.7051ZM91.8226 23.2826C91.3268 23.2826 90.6328 23.0387 90.6328 22.4129C90.6328 21.6246 91.4988 21.3259 92.2374 21.3259C92.9052 21.3259 93.2209 21.4701 93.6175 21.6693C93.5082 22.5836 92.7393 23.2744 91.8226 23.2826ZM100.417 17.9225L98.6763 22.3398H98.6217L96.8187 17.9225H95.1878L97.8932 24.0973L96.3513 27.5292H97.9296L102.092 17.9225H100.417ZM86.7739 24.4407H88.2895V14.257H86.7739V24.4407Z" fill="white"/>
<path id="Vector_5" fill-rule="evenodd" clip-rule="evenodd" d="M8.47187 6.13689C8.23714 6.39088 8.10156 6.77896 8.10156 7.28693V25.3035C8.10156 25.8115 8.23714 26.1996 8.47996 26.4434L8.54269 26.4983L18.5956 16.4039V16.1784L8.5346 6.08203L8.47187 6.13689Z" fill="url(#paint0_linear_3924_4763)"/>
<path id="Vector_6" fill-rule="evenodd" clip-rule="evenodd" d="M21.939 19.7779L18.5859 16.4111V16.1754L21.939 12.8086L22.0118 12.8533L25.978 15.1168C27.1132 15.7589 27.1132 16.8195 25.978 17.4697L22.0118 19.7332L21.939 19.7779Z" fill="url(#paint1_linear_3924_4763)"/>
<path id="Vector_7" fill-rule="evenodd" clip-rule="evenodd" d="M22.0122 19.7368L18.5864 16.2969L8.4707 26.4542C8.84101 26.8524 9.46224 26.8971 10.1563 26.5091L22.0122 19.7368Z" fill="url(#paint2_linear_3924_4763)"/>
<path id="Vector_8" fill-rule="evenodd" clip-rule="evenodd" d="M22.0122 12.855L10.1563 6.09298C9.46224 5.69473 8.83899 5.74959 8.4707 6.14784L18.5864 16.295L22.0122 12.855Z" fill="url(#paint3_linear_3924_4763)"/>
<path id="Vector_9" opacity="0.2" fill-rule="evenodd" clip-rule="evenodd" d="M21.9391 19.6641L10.1641 26.3814C9.50648 26.7614 8.91965 26.7349 8.54125 26.3895L8.47852 26.4525L8.54125 26.5074C8.91965 26.8508 9.50648 26.8792 10.1641 26.4993L22.0201 19.7372L21.9391 19.6641Z" fill="black"/>
<path id="Vector_10" opacity="0.12" fill-rule="evenodd" clip-rule="evenodd" d="M25.9768 17.3555L21.9277 19.6637L22.0006 19.7368L25.9667 17.4733C26.5353 17.1482 26.8146 16.7215 26.8146 16.2969C26.7802 16.687 26.4908 17.0568 25.9768 17.3555Z" fill="black"/>
<path id="Vector_11" opacity="0.25" fill-rule="evenodd" clip-rule="evenodd" d="M10.1575 6.21047L25.9795 15.236C26.4935 15.5266 26.7828 15.9066 26.8274 16.2946C26.8274 15.87 26.5481 15.4433 25.9795 15.1182L10.1575 6.09262C9.02227 5.44039 8.10156 5.98493 8.10156 7.28736V7.40521C8.10156 6.10075 9.02227 5.56637 10.1575 6.21047Z" fill="white"/>
</g>
<defs>
<linearGradient id="paint0_linear_3924_4763" x1="17.6939" y1="7.09255" x2="1.58209" y2="11.3679" gradientUnits="userSpaceOnUse">
<stop stop-color="#00A0FF"/>
<stop offset="0.00657" stop-color="#00A1FF"/>
<stop offset="0.2601" stop-color="#00BEFF"/>
<stop offset="0.5122" stop-color="#00D2FF"/>
<stop offset="0.7604" stop-color="#00DFFF"/>
<stop offset="1" stop-color="#00E3FF"/>
</linearGradient>
<linearGradient id="paint1_linear_3924_4763" x1="27.4584" y1="16.2933" x2="7.82401" y2="16.2933" gradientUnits="userSpaceOnUse">
<stop stop-color="#FFE000"/>
<stop offset="0.4087" stop-color="#FFBD00"/>
<stop offset="0.7754" stop-color="#FFA500"/>
<stop offset="1" stop-color="#FF9C00"/>
</linearGradient>
<linearGradient id="paint2_linear_3924_4763" x1="20.1494" y1="18.1687" x2="7.14321" y2="39.9693" gradientUnits="userSpaceOnUse">
<stop stop-color="#FF3A44"/>
<stop offset="1" stop-color="#C31162"/>
</linearGradient>
<linearGradient id="paint3_linear_3924_4763" x1="5.92347" y1="0.145074" x2="11.7261" y2="9.88161" gradientUnits="userSpaceOnUse">
<stop stop-color="#32A071"/>
<stop offset="0.0685" stop-color="#2DA771"/>
<stop offset="0.4762" stop-color="#15CF74"/>
<stop offset="0.8009" stop-color="#06E775"/>
<stop offset="1" stop-color="#00F076"/>
</linearGradient>
<clipPath id="clip0_3924_4763">
<rect width="109.995" height="32.5912" fill="white" transform="translate(0.00390625)"/>
</clipPath>
</defs>
</svg>
