<svg xmlns="http://www.w3.org/2000/svg" width="40" height="40" viewBox="0 0 40 40" fill="none">
<g clip-path="url(#clip0_13581_13153)">
<path d="M40.0007 38.3334C40.0007 38.7755 39.8251 39.1994 39.5126 39.5119C39.2 39.8245 38.7761 40.0001 38.3341 40.0001H1.6674C1.22537 40.0001 0.801449 39.8245 0.488888 39.5119C0.176328 39.1994 0.000732772 38.7755 0.000732772 38.3334C0.000732772 37.8914 0.176328 37.4675 0.488888 37.1549C0.801449 36.8424 1.22537 36.6668 1.6674 36.6668H38.3341C38.7761 36.6668 39.2 36.8424 39.5126 37.1549C39.8251 37.4675 40.0007 37.8914 40.0007 38.3334ZM0.485733 14.2534C0.126603 13.5873 -0.0397762 12.8343 0.00526682 12.0788C0.0503098 11.3234 0.304993 10.5955 0.740733 9.97676C1.45283 8.93195 2.40647 8.07436 3.52073 7.47676L16.0224 0.970092C17.2512 0.331144 18.6158 -0.00244141 20.0007 -0.00244141C21.3857 -0.00244141 22.7503 0.331144 23.9791 0.970092L36.4791 7.48176C37.5933 8.07936 38.547 8.93695 39.2591 9.98176C39.6948 10.6005 39.9495 11.3284 39.9945 12.0838C40.0396 12.8393 39.8732 13.5923 39.5141 14.2584C39.1274 14.9898 38.5475 15.6011 37.8376 16.0257C37.1276 16.4504 36.3147 16.6721 35.4874 16.6668H35.0007V30.0001H36.6674C37.1094 30.0001 37.5334 30.1757 37.8459 30.4882C38.1585 30.8008 38.3341 31.2247 38.3341 31.6668C38.3341 32.1088 38.1585 32.5327 37.8459 32.8453C37.5334 33.1578 37.1094 33.3334 36.6674 33.3334H3.33407C2.89204 33.3334 2.46812 33.1578 2.15556 32.8453C1.84299 32.5327 1.6674 32.1088 1.6674 31.6668C1.6674 31.2247 1.84299 30.8008 2.15556 30.4882C2.46812 30.1757 2.89204 30.0001 3.33407 30.0001H5.00073V16.6668H4.51407C3.686 16.6719 2.87241 16.4496 2.16205 16.024C1.45169 15.5985 0.871831 14.986 0.485733 14.2534ZM8.33407 30.0001H13.3341V16.6668H8.33407V30.0001ZM16.6674 16.6668V30.0001H23.3341V16.6668H16.6674ZM31.6674 16.6668H26.6674V30.0001H31.6674V16.6668ZM3.43907 12.7084C3.54364 12.9012 3.69926 13.0615 3.88887 13.1718C4.07848 13.282 4.29478 13.3379 4.51407 13.3334H35.4874C35.7067 13.3379 35.923 13.282 36.1126 13.1718C36.3022 13.0615 36.4578 12.9012 36.5624 12.7084C36.6386 12.581 36.6754 12.434 36.6683 12.2857C36.6612 12.1375 36.6104 11.9946 36.5224 11.8751C36.1186 11.2749 35.576 10.781 34.9407 10.4351L22.4407 3.92343C21.6874 3.53247 20.8511 3.32838 20.0024 3.32838C19.1537 3.32838 18.3174 3.53247 17.5641 3.92343L5.06407 10.4351C4.42904 10.7821 3.88661 11.2765 3.4824 11.8768C3.39421 11.9958 3.34307 12.1381 3.33536 12.2861C3.32766 12.434 3.36373 12.5809 3.43907 12.7084Z" fill="#374957"/>
</g>
<defs>
<clipPath id="clip0_13581_13153">
<rect width="40" height="40" fill="white"/>
</clipPath>
</defs>
</svg>