<svg width="25" height="25" viewBox="0 0 25 25" fill="none" xmlns="http://www.w3.org/2000/svg">
<g id="vuesax/outline/folder-open">
<g id="folder-open">
<path id="Vector" d="M18.9569 23.082H6.37694C2.97694 23.082 2.79694 21.212 2.64694 19.702L2.24694 14.692C2.15694 13.722 2.43694 12.752 3.05694 11.972C3.79694 11.072 4.84694 10.582 5.97694 10.582H19.3569C20.4669 10.582 21.5169 11.072 22.2269 11.922L22.3969 12.152C22.9369 12.892 23.1769 13.792 23.0869 14.702L22.6869 19.692C22.5369 21.212 22.3569 23.082 18.9569 23.082ZM5.97694 12.082C5.30694 12.082 4.66694 12.382 4.24694 12.902L4.17694 12.972C3.85694 13.382 3.68694 13.962 3.74694 14.562L4.14694 19.572C4.28694 21.032 4.34694 21.582 6.37694 21.582H18.9569C20.9969 21.582 21.0469 21.032 21.1869 19.562L21.5869 14.552C21.6469 13.962 21.4769 13.372 21.0869 12.912L20.9869 12.792C20.5369 12.322 19.9669 12.082 19.3469 12.082H5.97694Z" fill="white"/>
<path id="Vector_2" d="M21.166 12.5533C20.756 12.5533 20.416 12.2133 20.416 11.8033V10.0133C20.416 7.03328 19.896 6.51328 16.916 6.51328H14.366C13.236 6.51328 12.846 6.11328 12.416 5.54328L11.126 3.83328C10.686 3.25328 10.586 3.11328 9.68602 3.11328H8.41602C5.43602 3.11328 4.91602 3.63328 4.91602 6.61328V11.7633C4.91602 12.1733 4.57602 12.5133 4.16602 12.5133C3.75602 12.5133 3.41602 12.1733 3.41602 11.7633V6.61328C3.41602 2.78328 4.58602 1.61328 8.41602 1.61328H9.69602C11.236 1.61328 11.716 2.11328 12.336 2.93328L13.616 4.63328C13.886 4.99328 13.906 5.01328 14.376 5.01328H16.926C20.756 5.01328 21.926 6.18328 21.926 10.0133V11.8033C21.916 12.2133 21.576 12.5533 21.166 12.5533Z" fill="white"/>
<path id="Vector_3" d="M15.2357 18.082H10.0957C9.6857 18.082 9.3457 17.742 9.3457 17.332C9.3457 16.922 9.6857 16.582 10.0957 16.582H15.2357C15.6457 16.582 15.9857 16.922 15.9857 17.332C15.9857 17.742 15.6557 18.082 15.2357 18.082Z" fill="white"/>
</g>
</g>
</svg>
