<svg width="24" height="24" viewBox="0 0 24 24" fill="none" xmlns="http://www.w3.org/2000/svg">
<g id="Calendar 4">
<path id="Vector" fill-rule="evenodd" clip-rule="evenodd" d="M3 16.8708V9.25781H21V16.9318C21 20.0708 19.0241 22.0008 15.8628 22.0008H8.12733C4.99561 22.0008 3 20.0308 3 16.8708ZM7.95938 14.4108C7.50494 14.4318 7.12953 14.0708 7.10977 13.6118C7.10977 13.1518 7.46542 12.7718 7.91987 12.7508C8.36443 12.7508 8.72997 13.1018 8.73985 13.5508C8.7596 14.0118 8.40395 14.3918 7.95938 14.4108ZM12.0198 14.4108C11.5653 14.4318 11.1899 14.0708 11.1701 13.6118C11.1701 13.1518 11.5258 12.7718 11.9802 12.7508C12.4248 12.7508 12.7903 13.1018 12.8002 13.5508C12.82 14.0118 12.4643 14.3918 12.0198 14.4108ZM16.0505 18.0908C15.596 18.0808 15.2305 17.7008 15.2305 17.2408C15.2206 16.7808 15.5862 16.4018 16.0406 16.3918H16.0505C16.5148 16.3918 16.8902 16.7718 16.8902 17.2408C16.8902 17.7108 16.5148 18.0908 16.0505 18.0908ZM11.1701 17.2408C11.1899 17.7008 11.5653 18.0618 12.0198 18.0408C12.4643 18.0218 12.82 17.6418 12.8002 17.1818C12.7903 16.7318 12.4248 16.3808 11.9802 16.3808C11.5258 16.4018 11.1701 16.7808 11.1701 17.2408ZM7.09989 17.2408C7.11965 17.7008 7.49506 18.0618 7.94951 18.0408C8.39407 18.0218 8.74973 17.6418 8.72997 17.1818C8.72009 16.7318 8.35456 16.3808 7.90999 16.3808C7.45554 16.4018 7.09989 16.7808 7.09989 17.2408ZM15.2404 13.6018C15.2404 13.1418 15.596 12.7718 16.0505 12.7618C16.4951 12.7618 16.8507 13.1208 16.8705 13.5618C16.8804 14.0218 16.5247 14.4018 16.0801 14.4108C15.6257 14.4208 15.2503 14.0708 15.2404 13.6118V13.6018Z" fill="#2F2F2F"/>
<path id="Vector_2" opacity="0.4" d="M3.00391 9.25723C3.01675 8.67023 3.06615 7.50523 3.15901 7.13023C3.63322 5.02123 5.24353 3.68123 7.5454 3.49023H16.4564C18.7385 3.69123 20.3686 5.04023 20.8428 7.13023C20.9347 7.49523 20.9841 8.66923 20.9969 9.25723H3.00391Z" fill="#2F2F2F"/>
<path id="Vector_3" d="M8.30562 6.59C8.74031 6.59 9.06632 6.261 9.06632 5.82V2.771C9.06632 2.33 8.74031 2 8.30562 2C7.87093 2 7.54492 2.33 7.54492 2.771V5.82C7.54492 6.261 7.87093 6.59 8.30562 6.59Z" fill="#2F2F2F"/>
<path id="Vector_4" d="M15.6943 6.59C16.1191 6.59 16.455 6.261 16.455 5.82V2.771C16.455 2.33 16.1191 2 15.6943 2C15.2597 2 14.9336 2.33 14.9336 2.771V5.82C14.9336 6.261 15.2597 6.59 15.6943 6.59Z" fill="#2F2F2F"/>
</g>
</svg>
