<svg width="24" height="24" viewBox="0 0 24 24" fill="none" xmlns="http://www.w3.org/2000/svg">
<g id="Calling 1" clip-path="url(#clip0_73_77465)">
<path id="Vector" opacity="0.4" d="M16.4182 5.48976C15.9422 5.40182 15.505 5.70561 15.4144 6.1703C15.3237 6.63498 15.6285 7.08866 16.0916 7.1796C17.4858 7.45142 18.5624 8.53067 18.8353 9.92971V9.93071C18.913 10.3334 19.2675 10.6262 19.6758 10.6262C19.7306 10.6262 19.7854 10.6212 19.8411 10.6112C20.3042 10.5183 20.609 10.0656 20.5184 9.59994C20.111 7.51037 18.5026 5.89648 16.4182 5.48976Z" fill="#2F2F2F"/>
<path id="Vector_2" opacity="0.4" d="M16.3559 2.00793C16.1328 1.97595 15.9087 2.04191 15.7305 2.18381C15.5472 2.32771 15.4327 2.53557 15.4078 2.76841C15.355 3.23908 15.6946 3.66479 16.1647 3.71776C19.4063 4.07951 21.926 6.60477 22.2905 9.85654C22.3393 10.2922 22.7048 10.621 23.141 10.621C23.1738 10.621 23.2057 10.619 23.2386 10.615C23.4666 10.59 23.6698 10.4771 23.8132 10.2972C23.9556 10.1174 24.0204 9.89351 23.9945 9.66467C23.5403 5.60746 20.4003 2.45862 16.3559 2.00793Z" fill="#2F2F2F"/>
<path id="Vector_3" d="M19.6047 14.6737C18.9564 14.5358 18.4435 14.8356 17.9894 15.0974C17.5243 15.3672 16.6389 16.0818 16.133 15.8979C13.5377 14.8346 11.0967 12.5712 10.04 9.9769C9.85381 9.46026 10.5679 8.57386 10.8358 8.10619C11.0977 7.6525 11.3925 7.13585 11.258 6.4863C11.1365 5.9017 9.565 3.91007 9.00928 3.36544C8.6418 3.00569 8.26734 2.80782 7.88192 2.77485C6.43289 2.71389 4.81455 4.63957 4.53071 5.10025C3.81864 6.08258 3.82362 7.38968 4.54266 8.97459C6.27553 13.2317 12.8296 19.6563 17.1199 21.4471C17.9107 21.8158 18.6357 22.0007 19.286 22.0007C19.9224 22.0007 20.4891 21.8238 20.9761 21.4731C21.3426 21.2622 23.3563 19.5704 23.3025 18.0884C23.2716 17.7106 23.0734 17.3329 22.7169 16.9672C22.1732 16.4085 20.1873 14.7966 19.6047 14.6737Z" fill="#2F2F2F"/>
</g>
<defs>
<clipPath id="clip0_73_77465">
<rect width="22.3316" height="24" fill="white" transform="translate(0.679688)"/>
</clipPath>
</defs>
</svg>
