<svg width="56" height="57" viewBox="0 0 56 57" fill="none" xmlns="http://www.w3.org/2000/svg">
<g clip-path="url(#clip0_860_94296)">
<circle cx="28.0709" cy="28.2643" r="27.2643" fill="#F4F4F4" stroke="#374957"/>
<g clip-path="url(#clip1_860_94296)">
<path d="M36.5217 17.3989H35.9084L33.272 13.9803C32.9322 13.543 32.4974 13.1889 32.0005 12.9446C31.5036 12.7003 30.9576 12.5723 30.4039 12.5703H25.7395C25.1857 12.5723 24.6397 12.7003 24.1428 12.9446C23.6459 13.1889 23.2111 13.543 22.8713 13.9803L20.2349 17.3989H19.6217C18.0215 17.4008 16.4874 18.0373 15.3559 19.1688C14.2244 20.3003 13.5879 21.8344 13.5859 23.4346V35.506C13.5879 37.1062 14.2244 38.6403 15.3559 39.7718C16.4874 40.9033 18.0215 41.5398 19.6217 41.5417H36.5217C38.1218 41.5398 39.6559 40.9033 40.7874 39.7718C41.9189 38.6403 42.5554 37.1062 42.5574 35.506V23.4346C42.5554 21.8344 41.9189 20.3003 40.7874 19.1688C39.6559 18.0373 38.1218 17.4008 36.5217 17.3989ZM24.7834 15.4554C24.8965 15.3094 25.0414 15.1911 25.207 15.1095C25.3727 15.0279 25.5548 14.9852 25.7395 14.9846H30.4039C30.5885 14.9854 30.7705 15.0282 30.9362 15.1098C31.1018 15.1913 31.2467 15.3095 31.3599 15.4554L32.8592 17.3989H23.2841L24.7834 15.4554ZM40.1431 35.506C40.1431 36.4665 39.7615 37.3876 39.0824 38.0668C38.4032 38.7459 37.4821 39.1275 36.5217 39.1275H19.6217C18.6612 39.1275 17.7401 38.7459 17.0609 38.0668C16.3818 37.3876 16.0002 36.4665 16.0002 35.506V23.4346C16.0002 22.4741 16.3818 21.553 17.0609 20.8739C17.7401 20.1947 18.6612 19.8132 19.6217 19.8132H36.5217C37.4821 19.8132 38.4032 20.1947 39.0824 20.8739C39.7615 21.553 40.1431 22.4741 40.1431 23.4346V35.506Z" fill="#374957"/>
<path d="M28.071 22.2266C26.6385 22.2266 25.2382 22.6513 24.0471 23.4472C22.856 24.2431 21.9277 25.3742 21.3795 26.6977C20.8313 28.0212 20.6878 29.4775 20.9673 30.8824C21.2468 32.2874 21.9366 33.578 22.9495 34.5909C23.9624 35.6038 25.253 36.2936 26.658 36.5731C28.063 36.8526 29.5192 36.7091 30.8427 36.1609C32.1662 35.6128 33.2973 34.6844 34.0932 33.4933C34.8891 32.3023 35.3138 30.9019 35.3138 29.4694C35.3119 27.5491 34.5482 25.7079 33.1903 24.3501C31.8325 22.9922 29.9913 22.2285 28.071 22.2266ZM28.071 34.298C27.116 34.298 26.1824 34.0148 25.3884 33.4842C24.5943 32.9537 23.9754 32.1995 23.61 31.3172C23.2445 30.4349 23.1489 29.4641 23.3352 28.5274C23.5215 27.5908 23.9814 26.7304 24.6567 26.0551C25.332 25.3798 26.1923 24.9199 27.129 24.7336C28.0656 24.5473 29.0365 24.6429 29.9188 25.0084C30.8011 25.3739 31.5552 25.9928 32.0858 26.7868C32.6164 27.5809 32.8996 28.5144 32.8996 29.4694C32.8996 30.75 32.3908 31.9782 31.4853 32.8837C30.5798 33.7893 29.3516 34.298 28.071 34.298Z" fill="#374957"/>
</g>
</g>
<defs>
<clipPath id="clip0_860_94296">
<rect width="55.5286" height="55.5286" fill="white" transform="translate(0.306641 0.5)"/>
</clipPath>
<clipPath id="clip1_860_94296">
<rect width="28.9714" height="28.9714" fill="white" transform="translate(13.5859 12.5703)"/>
</clipPath>
</defs>
</svg>
