<svg width="24" height="22" viewBox="0 0 24 22" fill="none" xmlns="http://www.w3.org/2000/svg">
<g id="credit-card-duotone 1">
<path id="Vector" d="M24 9.33301H0V5.33301H24V9.33301Z" fill="#0D0D0D"/>
<path id="Vector_2" d="M21.3333 1.33301C22.8042 1.33301 24 2.52676 24 3.99967V5.33301H0V3.99967C0 2.52676 1.19375 1.33301 2.66667 1.33301H21.3333ZM24 17.333C24 18.8038 22.8042 19.9997 21.3333 19.9997H2.66667C1.19375 19.9997 0 18.8038 0 17.333V9.33301H24V17.333ZM4.66667 14.6663C4.3 14.6663 4 14.9663 4 15.333C4 15.6997 4.3 15.9997 4.66667 15.9997H7.33333C7.7 15.9997 8 15.6997 8 15.333C8 14.9663 7.7 14.6663 7.33333 14.6663H4.66667ZM10 15.9997H15.3333C15.7 15.9997 16 15.6997 16 15.333C16 14.9663 15.7 14.6663 15.3333 14.6663H10C9.63333 14.6663 9.33333 14.9663 9.33333 15.333C9.33333 15.6997 9.63333 15.9997 10 15.9997Z" fill="white"/>
</g>
</svg>
