<svg width="49" height="49" viewBox="0 0 49 49" fill="none" xmlns="http://www.w3.org/2000/svg">
<g id="vuesax/outline/card">
<g id="card">
<path id="Vector" d="M44.1309 19.3984H4.13086C3.31086 19.3984 2.63086 18.7184 2.63086 17.8984C2.63086 17.0784 3.31086 16.3984 4.13086 16.3984H44.1309C44.9509 16.3984 45.6309 17.0784 45.6309 17.8984C45.6309 18.7184 44.9509 19.3984 44.1309 19.3984Z" fill="#4B4B4B"/>
<path id="Vector_2" d="M16.1309 35.3984H12.1309C11.3109 35.3984 10.6309 34.7184 10.6309 33.8984C10.6309 33.0784 11.3109 32.3984 12.1309 32.3984H16.1309C16.9509 32.3984 17.6309 33.0784 17.6309 33.8984C17.6309 34.7184 16.9509 35.3984 16.1309 35.3984Z" fill="#4B4B4B"/>
<path id="Vector_3" d="M29.1309 35.3984H21.1309C20.3109 35.3984 19.6309 34.7184 19.6309 33.8984C19.6309 33.0784 20.3109 32.3984 21.1309 32.3984H29.1309C29.9509 32.3984 30.6309 33.0784 30.6309 33.8984C30.6309 34.7184 29.9509 35.3984 29.1309 35.3984Z" fill="#4B4B4B"/>
<path id="Vector_4" d="M35.2509 43.3984H13.0109C5.05086 43.3984 2.63086 40.9984 2.63086 33.1184V16.6784C2.63086 8.79844 5.05086 6.39844 13.0109 6.39844H35.2309C43.1909 6.39844 45.6109 8.79844 45.6109 16.6784V33.0984C45.6309 40.9984 43.2109 43.3984 35.2509 43.3984ZM13.0109 9.39844C6.73086 9.39844 5.63086 10.4784 5.63086 16.6784V33.0984C5.63086 39.2984 6.73086 40.3784 13.0109 40.3784H35.2309C41.5109 40.3784 42.6109 39.2984 42.6109 33.0984V16.6784C42.6109 10.4784 41.5109 9.39844 35.2309 9.39844H13.0109Z" fill="#4B4B4B"/>
</g>
</g>
</svg>
