<svg width="40" height="36" viewBox="0 0 40 36" fill="none" xmlns="http://www.w3.org/2000/svg">
<g id="credit-card-duotone 1">
<path id="Vector" d="M40 15.5573H0V8.89062H40V15.5573Z" fill="#0D0D0D"/>
<path id="Vector_2" d="M35.5556 2.22266C38.0069 2.22266 40 4.21224 40 6.6671V8.88932H0V6.6671C0 4.21224 1.98958 2.22266 4.44444 2.22266H35.5556ZM40 28.8893C40 31.3407 38.0069 33.3338 35.5556 33.3338H4.44444C1.98958 33.3338 0 31.3407 0 28.8893V15.556H40V28.8893ZM7.77778 24.4449C7.16667 24.4449 6.66667 24.9449 6.66667 25.556C6.66667 26.1671 7.16667 26.6671 7.77778 26.6671H12.2222C12.8333 26.6671 13.3333 26.1671 13.3333 25.556C13.3333 24.9449 12.8333 24.4449 12.2222 24.4449H7.77778ZM16.6667 26.6671H25.5556C26.1667 26.6671 26.6667 26.1671 26.6667 25.556C26.6667 24.9449 26.1667 24.4449 25.5556 24.4449H16.6667C16.0556 24.4449 15.5556 24.9449 15.5556 25.556C15.5556 26.1671 16.0556 26.6671 16.6667 26.6671Z" fill="#747474"/>
</g>
</svg>
