<svg width="25" height="25" viewBox="0 0 25 25" fill="none" xmlns="http://www.w3.org/2000/svg">
<g id="credit-card-shield">
<path id="Icon" d="M22.7585 10.8073H2.8418M22.7585 11.8031V9.01479C22.7585 7.89936 22.7585 7.34164 22.5414 6.9156C22.3504 6.54084 22.0458 6.23615 21.671 6.04521C21.245 5.82812 20.6872 5.82812 19.5718 5.82812H6.02846C4.91303 5.82812 4.35531 5.82812 3.92927 6.0452C3.55451 6.23615 3.24982 6.54084 3.05888 6.91559C2.8418 7.34163 2.8418 7.89935 2.8418 9.01479V16.5831C2.8418 17.6986 2.8418 18.2563 3.05888 18.6823C3.24982 19.0571 3.55451 19.3618 3.92927 19.5527C4.35531 19.7698 4.91303 19.7698 6.02846 19.7698H12.3022M18.7751 21.7615C18.7751 21.7615 21.7626 20.3375 21.7626 18.2016V15.7097L19.5841 14.9312C19.0607 14.7438 18.4883 14.7438 17.9649 14.9312L15.7876 15.7097V18.2016C15.7876 20.3375 18.7751 21.7615 18.7751 21.7615Z" stroke="#424242" stroke-width="1.99167" stroke-linecap="round" stroke-linejoin="round"/>
</g>
</svg>
