<svg width="127" height="112" viewBox="0 0 127 112" fill="none" xmlns="http://www.w3.org/2000/svg">
<g id="credit-card-duotone 1" clip-path="url(#clip0_10548_105815)">
<path id="Vector" d="M126.5 48.999H0.5V27.999H126.5V48.999Z" fill="#0D0D0D"/>
<path id="Vector_2" d="M112.5 7.00098C120.222 7.00098 126.5 13.2682 126.5 21.001V28.001H0.5V21.001C0.5 13.2682 6.76719 7.00098 14.5 7.00098H112.5ZM126.5 91.001C126.5 98.7229 120.222 105.001 112.5 105.001H14.5C6.76719 105.001 0.5 98.7229 0.5 91.001V49.001H126.5V91.001ZM25 77.001C23.075 77.001 21.5 78.576 21.5 80.501C21.5 82.426 23.075 84.001 25 84.001H39C40.925 84.001 42.5 82.426 42.5 80.501C42.5 78.576 40.925 77.001 39 77.001H25ZM53 84.001H81C82.925 84.001 84.5 82.426 84.5 80.501C84.5 78.576 82.925 77.001 81 77.001H53C51.075 77.001 49.5 78.576 49.5 80.501C49.5 82.426 51.075 84.001 53 84.001Z" fill="#747474"/>
</g>
<defs>
<clipPath id="clip0_10548_105815">
<rect width="126" height="112" fill="white" transform="translate(0.5)"/>
</clipPath>
</defs>
</svg>
