<svg width="16" height="16" viewBox="0 0 16 16" fill="none" xmlns="http://www.w3.org/2000/svg">
<rect width="16" height="16" rx="2.66667" fill="#191919" fill-opacity="0.2"/>
<path d="M3.11111 2.49902H12.8889C13.051 2.49902 13.2064 2.56341 13.321 2.67801C13.4356 2.79262 13.5 2.94806 13.5 3.11013V12.8879C13.5 13.05 13.4356 13.2054 13.321 13.32C13.2064 13.4346 13.051 13.499 12.8889 13.499H3.11111C2.94903 13.499 2.7936 13.4346 2.67899 13.32C2.56438 13.2054 2.5 13.05 2.5 12.8879V3.11013C2.5 2.94806 2.56438 2.79262 2.67899 2.67801C2.7936 2.56341 2.94903 2.49902 3.11111 2.49902ZM7.39072 10.4435L11.7113 6.1223L10.8472 5.25819L7.39072 8.71525L5.66189 6.98641L4.79778 7.85052L7.39072 10.4435Z" fill="#191919"/>
</svg>
