<svg width="16" height="16" viewBox="0 0 16 16" fill="none" xmlns="http://www.w3.org/2000/svg">
<path id="Vector" d="M7.56429 10.9929C7.175 11.3821 6.53929 11.3821 6.15 10.9929L3.86429 8.70714C3.47393 8.31786 3.47393 7.68214 3.86429 7.29286C4.25357 6.90357 4.88929 6.90357 5.27857 7.29286L6.85714 8.87143L10.7214 5.00714C11.1107 4.61786 11.7464 4.61786 12.1357 5.00714C12.525 5.39643 12.525 6.03214 12.1357 6.42143L7.56429 10.9929ZM0 2.28571C0 1.02321 1.02321 0 2.28571 0H13.7143C14.975 0 16 1.02321 16 2.28571V13.7143C16 14.975 14.975 16 13.7143 16H2.28571C1.02321 16 0 14.975 0 13.7143V2.28571ZM1.71429 2.28571V13.7143C1.71429 14.0286 1.97 14.2857 2.28571 14.2857H13.7143C14.0286 14.2857 14.2857 14.0286 14.2857 13.7143V2.28571C14.2857 1.97 14.0286 1.71429 13.7143 1.71429H2.28571C1.97 1.71429 1.71429 1.97 1.71429 2.28571Z" fill="black"/>
</svg>
