<svg width="113" height="113" viewBox="0 0 113 113" fill="none" xmlns="http://www.w3.org/2000/svg">
<g id="vuesax/bold/wallet-3">
<g id="wallet-3">
<path id="Vector" d="M103.162 59.3938V69.0071C103.162 71.6205 101.016 73.7671 98.3558 73.7671H89.3491C84.3091 73.7671 79.6891 70.0805 79.2691 65.0405C78.9891 62.1005 80.1091 59.3471 82.0691 57.4338C83.7958 55.6605 86.1758 54.6338 88.7891 54.6338H98.3558C101.016 54.6338 103.162 56.7805 103.162 59.3938Z" fill="#747474"/>
<path id="Vector_2" d="M72.2798 65.6466C71.8598 60.7466 73.6332 55.94 77.1798 52.44C80.1665 49.4066 84.3198 47.6333 88.7998 47.6333H91.4598C92.7665 47.6333 93.8398 46.56 93.6532 45.2533C92.3932 36.2 84.5532 29.2 75.1732 29.2H28.5065C18.1932 29.2 9.83984 37.5533 9.83984 47.8666V80.5333C9.83984 90.8466 18.1932 99.2 28.5065 99.2H75.1732C84.5998 99.2 92.3932 92.1999 93.6532 83.1466C93.8398 81.8399 92.7665 80.7666 91.4598 80.7666H89.3598C80.4932 80.7666 73.0265 74.1399 72.2798 65.6466ZM61.1732 56.0333H33.1732C31.2598 56.0333 29.6732 54.4933 29.6732 52.5333C29.6732 50.5733 31.2598 49.0333 33.1732 49.0333H61.1732C63.0865 49.0333 64.6732 50.6199 64.6732 52.5333C64.6732 54.4466 63.0865 56.0333 61.1732 56.0333Z" fill="#747474"/>
<path id="Vector_3" d="M66.8215 19.0734C68.0349 20.3334 66.9615 22.2 65.1882 22.2H28.6482C23.5615 22.2 18.8015 23.6934 14.8349 26.26C13.0149 27.4267 10.5415 26.1667 11.4282 24.16C14.0415 18.0467 20.1549 13.8 27.2015 13.8H53.4282C58.8415 13.8 63.6482 15.7134 66.8215 19.0734Z" fill="#747474"/>
</g>
</g>
</svg>
