<svg width="32" height="32" viewBox="0 0 32 32" fill="none" xmlns="http://www.w3.org/2000/svg">
<path d="M21.3337 17.1993V22.7993C21.3337 27.466 19.467 29.3327 14.8003 29.3327H9.20033C4.53366 29.3327 2.66699 27.466 2.66699 22.7993V17.1993C2.66699 12.5327 4.53366 10.666 9.20033 10.666H14.8003C19.467 10.666 21.3337 12.5327 21.3337 17.1993Z" fill="#141414"/>
<path d="M22.7997 2.66602H17.1997C13.0889 2.66602 11.161 4.1248 10.7593 7.65137C10.6753 8.38914 11.2863 8.99935 12.0289 8.99935H14.7997C20.3997 8.99935 22.9997 11.5993 22.9997 17.1993V19.9701C22.9997 20.7127 23.6099 21.3237 24.3477 21.2397C27.8742 20.838 29.333 18.9101 29.333 14.7993V9.19935C29.333 4.53268 27.4664 2.66602 22.7997 2.66602Z" fill="#141414"/>
</svg>
