<svg width="29" height="30" viewBox="0 0 29 30" fill="none" xmlns="http://www.w3.org/2000/svg">
<g id="vuesax/outline/copy">
<g id="copy">
<path id="Vector" d="M13.5861 27.7728H8.5734C3.90678 27.7728 1.83008 25.6961 1.83008 21.0295V16.0168C1.83008 11.3501 3.90678 9.27344 8.5734 9.27344H13.5861C18.2528 9.27344 20.3295 11.3501 20.3295 16.0168V21.0295C20.3295 25.6961 18.2528 27.7728 13.5861 27.7728ZM8.5734 11.0637C4.87352 11.0637 3.62034 12.3169 3.62034 16.0168V21.0295C3.62034 24.7294 4.87352 25.9826 8.5734 25.9826H13.5861C17.286 25.9826 18.5392 24.7294 18.5392 21.0295V16.0168C18.5392 12.3169 17.286 11.0637 13.5861 11.0637H8.5734Z" fill="#292D32"/>
<path id="Vector_2" d="M20.7473 20.6127H19.4344C18.9451 20.6127 18.5393 20.2069 18.5393 19.7175V16.0177C18.5393 12.3178 17.2861 11.0646 13.5862 11.0646H9.88634C9.397 11.0646 8.99121 10.6588 8.99121 10.1695V8.8566C8.99121 4.18999 11.0679 2.11328 15.7345 2.11328H20.7473C25.4139 2.11328 27.4906 4.18999 27.4906 8.8566V13.8693C27.4906 18.536 25.4139 20.6127 20.7473 20.6127ZM20.3295 18.8224H20.7473C24.4471 18.8224 25.7003 17.5692 25.7003 13.8693V8.8566C25.7003 5.15673 24.4471 3.90354 20.7473 3.90354H15.7345C12.0347 3.90354 10.7815 5.15673 10.7815 8.8566V9.27433H13.5862C18.2528 9.27433 20.3295 11.351 20.3295 16.0177V18.8224Z" fill="#292D32"/>
</g>
</g>
</svg>
