<svg width="28" height="25" viewBox="0 0 28 25" fill="none" xmlns="http://www.w3.org/2000/svg">
<g id="credit-card-duotone 1" clip-path="url(#clip0_10103_113460)">
<path id="Vector" d="M27.5983 10.8803H0.238281V6.32031H27.5983V10.8803Z" fill="#0D0D0D"/>
<path id="Vector_2" d="M24.5583 1.75977C26.235 1.75977 27.5983 3.12064 27.5983 4.79977V6.31977H0.238281V4.79977C0.238281 3.12064 1.59916 1.75977 3.27828 1.75977H24.5583ZM27.5983 19.9998C27.5983 21.6765 26.235 23.0398 24.5583 23.0398H3.27828C1.59916 23.0398 0.238281 21.6765 0.238281 19.9998V10.8798H27.5983V19.9998ZM5.55828 16.9598C5.14028 16.9598 4.79828 17.3018 4.79828 17.7198C4.79828 18.1378 5.14028 18.4798 5.55828 18.4798H8.59828C9.01628 18.4798 9.35828 18.1378 9.35828 17.7198C9.35828 17.3018 9.01628 16.9598 8.59828 16.9598H5.55828ZM11.6383 18.4798H17.7183C18.1363 18.4798 18.4783 18.1378 18.4783 17.7198C18.4783 17.3018 18.1363 16.9598 17.7183 16.9598H11.6383C11.2203 16.9598 10.8783 17.3018 10.8783 17.7198C10.8783 18.1378 11.2203 18.4798 11.6383 18.4798Z" fill="#747474"/>
</g>
<defs>
<clipPath id="clip0_10103_113460">
<rect width="27.36" height="24.32" fill="white" transform="translate(0.238281 0.240234)"/>
</clipPath>
</defs>
</svg>
