<svg width="30" height="30" viewBox="0 0 30 30" fill="none" xmlns="http://www.w3.org/2000/svg">
<path opacity="0.4" d="M19.6756 13.2616C19.6756 13.3062 19.326 17.7269 19.1264 19.5874C19.0014 20.7291 18.2654 21.4217 17.1613 21.4413C16.313 21.4604 15.4825 21.4669 14.6655 21.4669C13.7981 21.4669 12.9498 21.4604 12.1263 21.4413C11.0593 21.4158 10.3226 20.7094 10.204 19.5874C9.99857 17.7203 9.65543 13.3062 9.64905 13.2616C9.64267 13.1271 9.68604 12.9993 9.77407 12.8956C9.8608 12.7999 9.98582 12.7422 10.1172 12.7422H19.2138C19.3445 12.7422 19.4632 12.7999 19.5569 12.8956C19.6443 12.9993 19.6883 13.1271 19.6756 13.2616Z" fill="#FF6A6A"/>
<path d="M20.5704 10.9519C20.5704 10.6823 20.358 10.4712 20.1029 10.4712H18.1907C17.8016 10.4712 17.4636 10.1944 17.3768 9.80421L17.2697 9.32614C17.1198 8.74838 16.6026 8.34375 16.0221 8.34375H13.3146C12.7278 8.34375 12.2156 8.74838 12.06 9.35762L11.9598 9.80487C11.8724 10.1944 11.5344 10.4712 11.146 10.4712H9.23378C8.97802 10.4712 8.76562 10.6823 8.76562 10.9519V11.2011C8.76562 11.464 8.97802 11.6818 9.23378 11.6818H20.1029C20.358 11.6818 20.5704 11.464 20.5704 11.2011V10.9519Z" fill="#FF6A6A"/>
<rect x="0.456168" y="0.694449" width="28.4141" height="28.4141" rx="5.10124" stroke="#282828" stroke-width="0.443586"/>
</svg>
