<svg width="22" height="23" viewBox="0 0 22 23" fill="none" xmlns="http://www.w3.org/2000/svg">
<g id="fi-rr-trash" clip-path="url(#clip0_10322_42507)">
<path id="Vector" d="M19.2487 4.11491H16.407C16.1943 3.08037 15.6314 2.15081 14.8132 1.4829C13.995 0.814991 12.9716 0.449576 11.9154 0.448242L10.082 0.448242C9.02584 0.449576 8.00241 0.814991 7.18422 1.4829C6.36603 2.15081 5.80312 3.08037 5.59036 4.11491H2.7487C2.50558 4.11491 2.27242 4.21149 2.10052 4.38339C1.92861 4.5553 1.83203 4.78846 1.83203 5.03158C1.83203 5.27469 1.92861 5.50785 2.10052 5.67976C2.27242 5.85167 2.50558 5.94824 2.7487 5.94824H3.66536V17.8649C3.66682 19.08 4.15017 20.245 5.0094 21.1042C5.86863 21.9634 7.03357 22.4468 8.2487 22.4482H13.7487C14.9638 22.4468 16.1288 21.9634 16.988 21.1042C17.8472 20.245 18.3306 19.08 18.332 17.8649V5.94824H19.2487C19.4918 5.94824 19.725 5.85167 19.8969 5.67976C20.0688 5.50785 20.1654 5.27469 20.1654 5.03158C20.1654 4.78846 20.0688 4.5553 19.8969 4.38339C19.725 4.21149 19.4918 4.11491 19.2487 4.11491ZM10.082 2.28158H11.9154C12.4839 2.28227 13.0384 2.45884 13.5027 2.78707C13.967 3.11529 14.3183 3.57911 14.5086 4.11491H7.48878C7.67907 3.57911 8.03044 3.11529 8.49472 2.78707C8.959 2.45884 9.51345 2.28227 10.082 2.28158ZM16.4987 17.8649C16.4987 18.5943 16.209 19.2937 15.6932 19.8095C15.1775 20.3252 14.478 20.6149 13.7487 20.6149H8.2487C7.51935 20.6149 6.81988 20.3252 6.30415 19.8095C5.78843 19.2937 5.4987 18.5943 5.4987 17.8649V5.94824H16.4987V17.8649Z" fill="#DC4141"/>
<path id="Vector_2" d="M9.16667 16.9486C9.40978 16.9486 9.64294 16.852 9.81484 16.6801C9.98675 16.5082 10.0833 16.275 10.0833 16.0319V10.5319C10.0833 10.2888 9.98675 10.0556 9.81484 9.88372C9.64294 9.71181 9.40978 9.61523 9.16667 9.61523C8.92355 9.61523 8.69039 9.71181 8.51849 9.88372C8.34658 10.0556 8.25 10.2888 8.25 10.5319V16.0319C8.25 16.275 8.34658 16.5082 8.51849 16.6801C8.69039 16.852 8.92355 16.9486 9.16667 16.9486Z" fill="#DC4141"/>
<path id="Vector_3" d="M12.8346 16.9486C13.0778 16.9486 13.3109 16.852 13.4828 16.6801C13.6547 16.5082 13.7513 16.275 13.7513 16.0319V10.5319C13.7513 10.2888 13.6547 10.0556 13.4828 9.88372C13.3109 9.71181 13.0778 9.61523 12.8346 9.61523C12.5915 9.61523 12.3584 9.71181 12.1865 9.88372C12.0145 10.0556 11.918 10.2888 11.918 10.5319V16.0319C11.918 16.275 12.0145 16.5082 12.1865 16.6801C12.3584 16.852 12.5915 16.9486 12.8346 16.9486Z" fill="#DC4141"/>
</g>
<defs>
<clipPath id="clip0_10322_42507">
<rect width="22" height="22" fill="white" transform="translate(0 0.448242)"/>
</clipPath>
</defs>
</svg>
