<svg width="16" height="16" viewBox="0 0 16 16" fill="none" xmlns="http://www.w3.org/2000/svg">
<g id="vuesax/outline/frame">
<g id="frame">
<path id="Vector" d="M7.92207 14.35C4.21571 14.35 1.20312 11.3374 1.20312 7.63105C1.20312 3.9247 4.21571 0.912109 7.92207 0.912109C8.17832 0.912109 8.39083 1.12462 8.39083 1.38087C8.39083 1.63713 8.17832 1.84964 7.92207 1.84964C4.73448 1.84964 2.14065 4.44346 2.14065 7.63105C2.14065 10.8186 4.73448 13.4125 7.92207 13.4125C11.1097 13.4125 13.7035 10.8186 13.7035 7.63105C13.7035 7.37479 13.916 7.16229 14.1722 7.16229C14.4285 7.16229 14.641 7.37479 14.641 7.63105C14.641 11.3374 11.6284 14.35 7.92207 14.35Z" fill="#1EC294"/>
<path id="Vector_2" d="M9.04533 6.97517C8.92657 6.97517 8.80782 6.93142 8.71407 6.83767C8.53281 6.65641 8.53281 6.35641 8.71407 6.17515L13.8392 1.05C14.0205 0.868749 14.3205 0.868749 14.5017 1.05C14.683 1.23126 14.683 1.53127 14.5017 1.71252L9.37659 6.83767C9.28908 6.92517 9.17033 6.97517 9.04533 6.97517Z" fill="#1EC294"/>
<path id="Vector_3" d="M11.5657 7.47492H8.54689C8.29063 7.47492 8.07812 7.26241 8.07812 7.00615V3.98732C8.07812 3.73106 8.29063 3.51855 8.54689 3.51855C8.80315 3.51855 9.01565 3.73106 9.01565 3.98732V6.53739H11.5657C11.822 6.53739 12.0345 6.7499 12.0345 7.00615C12.0345 7.26241 11.822 7.47492 11.5657 7.47492Z" fill="#1EC294"/>
</g>
</g>
</svg>
