<svg width="22" height="23" viewBox="0 0 22 23" fill="none" xmlns="http://www.w3.org/2000/svg">
<g id="vuesax/bold/import">
<g id="import">
<path id="Vector" d="M19.3418 9.44141H11.769V12.7265L13.1743 11.3212C13.4339 11.0616 13.8636 11.0616 14.1232 11.3212C14.3828 11.5808 14.3828 12.0104 14.1232 12.27L11.5721 14.8122C11.3125 15.0718 10.8828 15.0718 10.6232 14.8122L8.07209 12.27C7.93782 12.1358 7.87516 11.9657 7.87516 11.7956C7.87516 11.6255 7.94677 11.4555 8.08104 11.3212C8.34063 11.0616 8.77029 11.0616 9.02988 11.3212L10.4263 12.7176V9.44141H2.9788C2.54913 9.44141 2.20898 9.78156 2.20898 10.2112C2.20898 15.4835 5.88797 19.1625 11.1603 19.1625C16.4326 19.1625 20.1116 15.4835 20.1116 10.2112C20.1116 9.78156 19.7715 9.44141 19.3418 9.44141Z" fill="white"/>
<path id="Vector_2" d="M11.7675 4.15182C11.7675 3.78481 11.4632 3.48047 11.0962 3.48047C10.7291 3.48047 10.4248 3.78481 10.4248 4.15182V9.43309H11.7675V4.15182Z" fill="white"/>
</g>
</g>
</svg>
