<svg width="24" height="25" viewBox="0 0 24 25" fill="none" xmlns="http://www.w3.org/2000/svg">
<g id="vuesax/bold/sms">
<g id="sms">
<path id="Vector" d="M17 3.875H7C4 3.875 2 5.375 2 8.875V15.875C2 19.375 4 20.875 7 20.875H17C20 20.875 22 19.375 22 15.875V8.875C22 5.375 20 3.875 17 3.875ZM17.47 9.965L14.34 12.465C13.68 12.995 12.84 13.255 12 13.255C11.16 13.255 10.31 12.995 9.66 12.465L6.53 9.965C6.21 9.705 6.16 9.225 6.41 8.905C6.67 8.585 7.14 8.525 7.46 8.785L10.59 11.285C11.35 11.895 12.64 11.895 13.4 11.285L16.53 8.785C16.85 8.525 17.33 8.575 17.58 8.905C17.84 9.225 17.79 9.705 17.47 9.965Z" fill="black"/>
</g>
</g>
</svg>
