<svg width="113" height="100" viewBox="0 0 113 100" fill="none" xmlns="http://www.w3.org/2000/svg">
<g id="credit-card-duotone 1" clip-path="url(#clip0_10600_107359)">
<path id="Vector" d="M112.75 43.749H0.25V24.999H112.75V43.749Z" fill="white"/>
<path id="Vector_2" d="M100.25 6.25098C107.145 6.25098 112.75 11.8467 112.75 18.751V25.001H0.25V18.751C0.25 11.8467 5.8457 6.25098 12.75 6.25098H100.25ZM112.75 81.251C112.75 88.1455 107.145 93.751 100.25 93.751H12.75C5.8457 93.751 0.25 88.1455 0.25 81.251V43.751H112.75V81.251ZM22.125 68.751C20.4062 68.751 19 70.1572 19 71.876C19 73.5947 20.4062 75.001 22.125 75.001H34.625C36.3438 75.001 37.75 73.5947 37.75 71.876C37.75 70.1572 36.3438 68.751 34.625 68.751H22.125ZM47.125 75.001H72.125C73.8438 75.001 75.25 73.5947 75.25 71.876C75.25 70.1572 73.8438 68.751 72.125 68.751H47.125C45.4062 68.751 44 70.1572 44 71.876C44 73.5947 45.4062 75.001 47.125 75.001Z" fill="#747474"/>
</g>
<defs>
<clipPath id="clip0_10600_107359">
<rect width="112.5" height="100" fill="white" transform="translate(0.25)"/>
</clipPath>
</defs>
</svg>
