<svg width="40" height="37" viewBox="0 0 40 37" fill="none" xmlns="http://www.w3.org/2000/svg">
<g id="credit-card-duotone 1">
<path id="Vector" d="M40 16.0553H0V9.38867H40V16.0553Z" fill="#0D0D0D"/>
<path id="Vector_2" d="M35.5556 2.72266C38.0069 2.72266 40 4.71224 40 7.1671V9.38932H0V7.1671C0 4.71224 1.98958 2.72266 4.44444 2.72266H35.5556ZM40 29.3893C40 31.8407 38.0069 33.8338 35.5556 33.8338H4.44444C1.98958 33.8338 0 31.8407 0 29.3893V16.056H40V29.3893ZM7.77778 24.9449C7.16667 24.9449 6.66667 25.4449 6.66667 26.056C6.66667 26.6671 7.16667 27.1671 7.77778 27.1671H12.2222C12.8333 27.1671 13.3333 26.6671 13.3333 26.056C13.3333 25.4449 12.8333 24.9449 12.2222 24.9449H7.77778ZM16.6667 27.1671H25.5556C26.1667 27.1671 26.6667 26.6671 26.6667 26.056C26.6667 25.4449 26.1667 24.9449 25.5556 24.9449H16.6667C16.0556 24.9449 15.5556 25.4449 15.5556 26.056C15.5556 26.6671 16.0556 27.1671 16.6667 27.1671Z" fill="#747474"/>
</g>
</svg>
