<svg width="22" height="22" viewBox="0 0 22 22" fill="none" xmlns="http://www.w3.org/2000/svg">
<g id="fi-rr-time-past" clip-path="url(#clip0_4421_853)">
<path id="Vector" d="M11.0309 0.265625C8.3804 0.267515 5.82421 1.24941 3.85405 3.02243V1.16273C3.85405 0.924804 3.75953 0.696621 3.59129 0.528381C3.42305 0.360141 3.19487 0.265625 2.95694 0.265625C2.71902 0.265625 2.49083 0.360141 2.32259 0.528381C2.15435 0.696621 2.05984 0.924804 2.05984 1.16273V3.85405C2.05984 4.56783 2.34339 5.25238 2.84811 5.7571C3.35283 6.26182 4.03737 6.54537 4.75116 6.54537H7.44248C7.6804 6.54537 7.90859 6.45085 8.07683 6.28261C8.24507 6.11437 8.33958 5.88619 8.33958 5.64826C8.33958 5.41034 8.24507 5.18215 8.07683 5.01391C7.90859 4.84567 7.6804 4.75116 7.44248 4.75116H4.75116C4.7209 4.74667 4.69095 4.74038 4.66145 4.73232C6.1233 3.26001 8.05083 2.3407 10.115 2.13131C12.1792 1.92191 14.2521 2.43542 15.9798 3.58417C17.7076 4.73292 18.983 6.4457 19.5886 8.43015C20.1941 10.4146 20.0921 12.5477 19.3 14.4653C18.508 16.383 17.0749 17.9663 15.2455 18.9449C13.416 19.9236 11.3036 20.2371 9.26882 19.8317C7.23402 19.4264 5.40298 18.3274 4.08825 16.7223C2.77351 15.1173 2.05658 13.1057 2.05984 11.0309C2.05984 10.793 1.96532 10.5648 1.79708 10.3966C1.62884 10.2283 1.40066 10.1338 1.16273 10.1338C0.924804 10.1338 0.696621 10.2283 0.528381 10.3966C0.360141 10.5648 0.265625 10.793 0.265625 11.0309C0.265625 13.1601 0.896997 15.2414 2.0799 17.0118C3.26281 18.7821 4.94411 20.1619 6.91121 20.9767C8.87831 21.7915 11.0428 22.0047 13.1311 21.5893C15.2194 21.1739 17.1376 20.1487 18.6431 18.6431C20.1487 17.1376 21.1739 15.2194 21.5893 13.1311C22.0047 11.0428 21.7915 8.87831 20.9767 6.91121C20.1619 4.94411 18.7821 3.26281 17.0118 2.0799C15.2414 0.896997 13.1601 0.265625 11.0309 0.265625V0.265625Z" fill="#525252"/>
<path id="Vector_2" d="M11.0309 5.64844C10.793 5.64844 10.5648 5.74295 10.3965 5.91119C10.2283 6.07943 10.1338 6.30762 10.1338 6.54554V11.0311C10.1338 11.269 10.2284 11.4971 10.3966 11.6653L13.088 14.3566C13.2572 14.5201 13.4838 14.6105 13.719 14.6084C13.9542 14.6064 14.1792 14.5121 14.3455 14.3457C14.5119 14.1794 14.6062 13.9544 14.6083 13.7192C14.6103 13.4839 14.5199 13.2573 14.3565 13.0881L11.928 10.6597V6.54554C11.928 6.30762 11.8335 6.07943 11.6652 5.91119C11.497 5.74295 11.2688 5.64844 11.0309 5.64844Z" fill="#525252"/>
</g>
<defs>
<clipPath id="clip0_4421_853">
<rect width="21.5306" height="21.5306" fill="white" transform="translate(0.265625 0.265625)"/>
</clipPath>
</defs>
</svg>
