<svg width="16" height="17" viewBox="0 0 16 17" fill="none" xmlns="http://www.w3.org/2000/svg">
<path d="M9.33268 1.84639V4.60008C9.33268 4.97345 9.33268 5.16013 9.40534 5.30274C9.46926 5.42818 9.57125 5.53017 9.69669 5.59409C9.8393 5.66675 10.026 5.66675 10.3993 5.66675H13.153M13.3327 6.99223V11.8001C13.3327 12.9202 13.3327 13.4802 13.1147 13.9081C12.9229 14.2844 12.617 14.5903 12.2407 14.7821C11.8128 15.0001 11.2528 15.0001 10.1327 15.0001H5.86602C4.74591 15.0001 4.18586 15.0001 3.75803 14.7821C3.38171 14.5903 3.07575 14.2844 2.884 13.9081C2.66602 13.4802 2.66602 12.9202 2.66602 11.8001V4.86675C2.66602 3.74664 2.66602 3.18659 2.884 2.75877C3.07575 2.38244 3.38171 2.07648 3.75803 1.88474C4.18586 1.66675 4.74591 1.66675 5.86602 1.66675H8.0072C8.49638 1.66675 8.74097 1.66675 8.97115 1.72201C9.17522 1.771 9.37031 1.85181 9.54925 1.96147C9.75108 2.08515 9.92404 2.2581 10.2699 2.60401L12.3954 4.72949C12.7413 5.07539 12.9143 5.24835 13.038 5.45018C13.1476 5.62912 13.2284 5.82421 13.2774 6.02828C13.3327 6.25846 13.3327 6.50305 13.3327 6.99223Z" stroke="#4545FE" stroke-width="1.33333" stroke-linecap="round" stroke-linejoin="round"/>
</svg>
