<svg xmlns="http://www.w3.org/2000/svg" width="19" height="18" viewBox="0 0 19 18" fill="none">
  <path fill-rule="evenodd" clip-rule="evenodd" d="M6.27096 10.0425C5.78739 10.0425 5.39453 9.64964 5.39453 9.16604C5.39453 8.68387 5.78739 8.29102 6.27096 8.29102C6.75454 8.29102 7.14739 8.68387 7.14739 9.16604C7.14739 9.64964 6.75454 10.0425 6.27096 10.0425ZM9.6781 10.0425C9.1945 10.0425 8.80165 9.64964 8.80165 9.16604C8.80165 8.68387 9.1945 8.29102 9.6781 8.29102C10.1617 8.29102 10.5546 8.68387 10.5546 9.16604C10.5546 9.64964 10.1617 10.0425 9.6781 10.0425ZM12.2089 9.16604C12.2089 9.64964 12.6018 10.0425 13.0854 10.0425C13.5689 10.0425 13.9617 9.64964 13.9617 9.16604C13.9617 8.68387 13.5689 8.29102 13.0854 8.29102C12.6018 8.29102 12.2089 8.68387 12.2089 9.16604Z" fill="#606060"/>
  <path fill-rule="evenodd" clip-rule="evenodd" d="M9.515 1.5C5.1575 1.5 2 5.05959 2 9.01125C2 10.2731 2.3675 11.5718 3.0125 12.7586C3.1325 12.9547 3.1475 13.2018 3.065 13.4354L2.5625 15.1179C2.45 15.5235 2.795 15.8232 3.1775 15.7031L4.6925 15.2531C5.105 15.1179 5.4275 15.2899 5.81 15.5235C6.905 16.1687 8.27 16.5 9.5 16.5C13.22 16.5 17 13.6231 17 8.98875C17 4.99198 13.775 1.5 9.515 1.5Z" stroke="#606060" stroke-width="1.5" stroke-linecap="round" stroke-linejoin="round"/>
</svg>