<svg width="48" height="48" viewBox="0 0 48 48" fill="none" xmlns="http://www.w3.org/2000/svg">
<g id="Folder 1">
<path id="Vector" opacity="0.4" d="M33.7686 10.2297H27.8826C26.4162 10.2394 25.024 9.58711 24.0948 8.45503L22.1564 5.77525C21.2428 4.63323 19.8506 3.97789 18.3864 4.00057H14.2252C6.75636 4.00057 4 8.38403 4 15.8377V23.8948C3.9907 24.7808 43.9912 24.7796 43.9938 23.8948V21.5522C44.0294 14.0985 41.3442 10.2297 33.7686 10.2297Z" fill="#CBCBCB"/>
<path id="Vector_2" fill-rule="evenodd" clip-rule="evenodd" d="M41.6642 13.0876C42.3042 13.8357 42.7986 14.6963 43.1224 15.6254C43.7596 17.5347 44.0546 19.5412 43.9938 21.5528V32.0588C43.9912 32.9438 43.926 33.8274 43.7982 34.7032C43.555 36.2486 43.0114 37.7316 42.1978 39.0688C41.8238 39.7148 41.3698 40.311 40.8462 40.8434C38.4766 43.0184 35.33 44.1504 32.1148 43.9846H15.8612C12.641 44.1492 9.48924 43.0176 7.11202 40.8434C6.59482 40.31 6.14674 39.7138 5.7783 39.0688C4.9695 37.7326 4.43738 36.248 4.2134 34.7032C4.07098 33.8288 3.99962 32.9446 4 32.0588V21.5528C3.99966 20.6754 4.04714 19.7985 4.14228 18.9262C4.16228 18.7732 4.19228 18.6227 4.22196 18.4737C4.27146 18.2253 4.3201 17.9813 4.3201 17.7372C4.50062 16.6846 4.82992 15.6628 5.29816 14.7025C6.68524 11.7388 9.5305 10.2303 14.1896 10.2303H33.7508C36.3604 10.0285 38.9506 10.8141 41.0064 12.4309C41.243 12.6317 41.4632 12.8513 41.6642 13.0876ZM13.9407 31.0828H34.071H34.1066C34.5482 31.102 34.9792 30.9438 35.3034 30.6438C35.6274 30.3436 35.8176 29.9266 35.8314 29.4856C35.8564 29.098 35.7288 28.7158 35.4758 28.4208C35.1848 28.0242 34.7236 27.7874 34.231 27.7818H13.9407C13.0273 27.7818 12.2869 28.5208 12.2869 29.4324C12.2869 30.3438 13.0273 31.0828 13.9407 31.0828Z" fill="#CBCBCB"/>
</g>
</svg>
