<svg width="40" height="40" viewBox="0 0 40 40" fill="none" xmlns="http://www.w3.org/2000/svg">
<g opacity="0.3">
<path d="M27.976 18.1121L16.5625 25.1441C16.3069 25.3008 15.9796 25.2858 15.7403 25.1008C14.6559 24.2657 13.6872 23.419 13.0408 22.7073C13.0408 22.7073 12.4839 22.1373 12.243 21.7756C11.8538 21.2822 11.6666 20.6372 11.6666 20.0105C11.6666 19.3071 11.8717 18.6421 12.2804 18.1104C12.3732 18.0154 12.7265 17.597 13.0603 17.2554C15.0076 15.1286 20.0908 11.6151 22.7642 10.55C23.1534 10.3784 24.1921 10.02 24.7311 10C25.2505 10 25.7519 10.1133 26.2339 10.3617C26.8265 10.7034 27.2906 11.2334 27.5511 11.8618C27.7188 12.2984 27.9777 13.6085 27.9777 13.6468C28.1454 14.5819 28.2707 15.8953 28.3326 17.4287C28.344 17.7037 28.2056 17.9704 27.976 18.1121Z" fill="black"/>
<path opacity="0.4" d="M27.2127 21.8998C27.7158 21.5881 28.3492 21.9865 28.3248 22.5848C28.2645 23.9882 28.1603 25.2249 28.0333 26.145C28.0138 26.165 27.7549 27.7967 27.4569 28.3484C26.9375 29.3735 25.9183 30.0002 24.8225 30.0002H24.7314C24.0247 29.9819 22.5219 29.3552 22.5219 29.3168C21.7648 29.0018 20.7765 28.4684 19.7133 27.8267C19.2346 27.5367 19.2232 26.825 19.7019 26.53L27.2127 21.8998Z" fill="black"/>
</g>
</svg>
