<svg width="172" height="152" viewBox="0 0 172 152" fill="none" xmlns="http://www.w3.org/2000/svg">
<circle cx="86" cy="72" r="64" fill="#EAECF0"/>
<circle cx="20" cy="28" r="6" fill="#F2F4F7"/>
<circle cx="17" cy="120" r="8" fill="#F2F4F7"/>
<circle cx="160" cy="44" r="8" fill="#F2F4F7"/>
<circle cx="149" cy="17" r="5" fill="#F2F4F7"/>
<g filter="url(#filter0_dd_6991_72602)">
<path d="M86 44.6493L91.6161 42.297L86.0007 44.6891V111.664L137.748 89.9791V22.9748L138 22.8691L137.748 22.7573V22.6448L137.618 22.6999L86.4084 0L34 22.3246L34.2481 22.4312L34 89.1634L86 111.624L86 44.6493Z" fill="#F9FAFB"/>
<path d="M86 44.6488V111.623L34 89.1629L34.2481 22.4307L86 44.6488Z" fill="url(#paint0_linear_6991_72602)"/>
<path d="M86 44.6889V111.663L137.747 89.9788V22.6445L86 44.6889Z" fill="url(#paint1_linear_6991_72602)"/>
<path d="M86 44.6493L138 22.8691L86.4084 0L34 22.3246L86 44.6493Z" fill="#F2F4F7"/>
<path d="M53.6016 13.9752L105.403 36.5226L105.874 52.9535L120.367 46.9732L119.929 30.4385L66.5948 8.44043L53.6016 13.9752Z" fill="#EAECF0"/>
</g>
<g filter="url(#filter1_b_6991_72602)">
<rect x="58" y="72" width="56" height="56" rx="28" fill="#344054" fill-opacity="0.4"/>
<path d="M83.1348 108.773V105.716C83.1348 104.935 83.7722 104.302 84.5584 104.302H87.4326C87.8102 104.302 88.1723 104.451 88.4393 104.716C88.7063 104.981 88.8563 105.341 88.8563 105.716V108.773C88.8539 109.098 88.9821 109.41 89.2124 109.64C89.4427 109.87 89.7561 110 90.0829 110H92.0438C92.9596 110.002 93.8388 109.643 94.4872 109.001C95.1356 108.359 95.5 107.487 95.5 106.578V97.8669C95.5 97.1325 95.1721 96.4358 94.6046 95.9647L87.934 90.6759C86.7737 89.7486 85.1111 89.7785 83.9854 90.747L77.467 95.9647C76.8727 96.422 76.5176 97.1206 76.5 97.8669V106.569C76.5 108.464 78.0474 110 79.9562 110H81.8723C82.5512 110 83.103 109.456 83.1079 108.782L83.1348 108.773Z" fill="white"/>
</g>
<defs>
<filter id="filter0_dd_6991_72602" x="14" y="0" width="144" height="151.663" filterUnits="userSpaceOnUse" color-interpolation-filters="sRGB">
<feFlood flood-opacity="0" result="BackgroundImageFix"/>
<feColorMatrix in="SourceAlpha" type="matrix" values="0 0 0 0 0 0 0 0 0 0 0 0 0 0 0 0 0 0 127 0" result="hardAlpha"/>
<feMorphology radius="4" operator="erode" in="SourceAlpha" result="effect1_dropShadow_6991_72602"/>
<feOffset dy="8"/>
<feGaussianBlur stdDeviation="4"/>
<feColorMatrix type="matrix" values="0 0 0 0 0.0627451 0 0 0 0 0.0941176 0 0 0 0 0.156863 0 0 0 0.03 0"/>
<feBlend mode="normal" in2="BackgroundImageFix" result="effect1_dropShadow_6991_72602"/>
<feColorMatrix in="SourceAlpha" type="matrix" values="0 0 0 0 0 0 0 0 0 0 0 0 0 0 0 0 0 0 127 0" result="hardAlpha"/>
<feMorphology radius="4" operator="erode" in="SourceAlpha" result="effect2_dropShadow_6991_72602"/>
<feOffset dy="20"/>
<feGaussianBlur stdDeviation="12"/>
<feColorMatrix type="matrix" values="0 0 0 0 0.0627451 0 0 0 0 0.0941176 0 0 0 0 0.156863 0 0 0 0.08 0"/>
<feBlend mode="normal" in2="effect1_dropShadow_6991_72602" result="effect2_dropShadow_6991_72602"/>
<feBlend mode="normal" in="SourceGraphic" in2="effect2_dropShadow_6991_72602" result="shape"/>
</filter>
<filter id="filter1_b_6991_72602" x="50" y="64" width="72" height="72" filterUnits="userSpaceOnUse" color-interpolation-filters="sRGB">
<feFlood flood-opacity="0" result="BackgroundImageFix"/>
<feGaussianBlur in="BackgroundImageFix" stdDeviation="4"/>
<feComposite in2="SourceAlpha" operator="in" result="effect1_backgroundBlur_6991_72602"/>
<feBlend mode="normal" in="SourceGraphic" in2="effect1_backgroundBlur_6991_72602" result="shape"/>
</filter>
<linearGradient id="paint0_linear_6991_72602" x1="34" y1="89.4995" x2="54.5363" y2="33.8818" gradientUnits="userSpaceOnUse">
<stop stop-color="#DEE1E8"/>
<stop offset="1" stop-color="#EFF1F5"/>
</linearGradient>
<linearGradient id="paint1_linear_6991_72602" x1="85.9993" y1="45.9998" x2="144.634" y2="57.6734" gradientUnits="userSpaceOnUse">
<stop stop-color="#E4E7EC"/>
<stop offset="1" stop-color="#F2F4F7"/>
</linearGradient>
</defs>
</svg>
