<svg width="26" height="21" viewBox="0 0 26 21" fill="none" xmlns="http://www.w3.org/2000/svg">
<path d="M16.3842 19.9203C16.0681 19.3642 15.7467 18.8132 15.4333 18.257C15.4163 18.2202 15.388 18.1897 15.3525 18.1699C15.317 18.1501 15.2761 18.1421 15.2357 18.1469H11.4875C11.4471 18.1421 11.4063 18.1501 11.3708 18.1699C11.3353 18.1897 11.307 18.2202 11.29 18.257C10.9792 18.8132 10.6552 19.3642 10.3391 19.9203C10.3197 19.9603 10.303 20.0015 10.2891 20.0436H16.4474C16.4304 20.0006 16.4092 19.9593 16.3842 19.9203Z" fill="#FF9103"/>
<path d="M25.8602 1.37747C25.6969 0.328081 25.0858 0.351693 24.5432 0.422526C23.8188 1.37484 23.3052 2.32978 22.5308 2.97778C21.8912 3.4719 21.109 3.74785 20.2998 3.76481C17.9845 3.79892 8.72327 3.79892 6.40797 3.76481C5.59875 3.74785 4.8165 3.4719 4.17697 2.97778C3.40257 2.32978 2.88893 1.37484 2.16458 0.422526C1.63778 0.351693 1.01351 0.335952 0.847572 1.37747C0.594383 3.00777 0.817347 4.67621 1.48987 6.18379C2.1624 7.69138 3.2561 8.97449 4.64055 9.8801L8.26759 12.0103L6.53967 11.908C7.66966 14.1537 8.77068 16.4125 9.89014 18.6634C10.1377 18.2384 10.3853 17.8082 10.6277 17.3779C10.6533 17.3226 10.6952 17.2763 10.748 17.2454C10.8007 17.2144 10.8616 17.2003 10.9227 17.2048C11.7287 17.2048 14.9685 17.2048 15.7745 17.2048C15.8356 17.1999 15.8967 17.2139 15.9495 17.2449C16.0023 17.2759 16.0442 17.3223 16.0695 17.3779C16.3145 17.8082 16.5595 18.2384 16.8071 18.6634C17.9265 16.4125 19.0275 14.1537 20.1575 11.908L18.4322 12.0103L22.0567 9.8801C23.4435 8.97631 24.5397 7.69385 25.2142 6.18604C25.8887 4.67823 26.113 3.00885 25.8602 1.37747Z" fill="#FF9103"/>
</svg>
