<svg width="23" height="23" viewBox="0 0 23 23" fill="none" xmlns="http://www.w3.org/2000/svg">
<path opacity="0.4" d="M20.9914 14.6994C20.9914 17.2619 18.934 19.3376 16.3715 19.3468H16.3623H7.26032C4.70699 19.3468 2.62207 17.2803 2.62207 14.7178V14.7086C2.62207 14.7086 2.62758 10.6434 2.63493 8.59894C2.63585 8.21502 3.07671 8.0001 3.37705 8.2389C5.55932 9.97021 9.46188 13.127 9.51056 13.1683C10.1627 13.6909 10.9893 13.9857 11.8343 13.9857C12.6793 13.9857 13.5059 13.6909 14.158 13.1582C14.2067 13.1261 18.022 10.0639 20.2373 8.30411C20.5386 8.06439 20.9813 8.27931 20.9822 8.66231C20.9914 10.6912 20.9914 14.6994 20.9914 14.6994Z" fill="#4545FE"/>
<path d="M20.51 5.27043C19.7146 3.77149 18.1495 2.81445 16.4265 2.81445H7.2602C5.53716 2.81445 3.9721 3.77149 3.17671 5.27043C2.99852 5.60567 3.08302 6.02357 3.37969 6.26053L10.1993 11.7153C10.6769 12.1011 11.2555 12.293 11.8342 12.293C11.8378 12.293 11.8406 12.293 11.8433 12.293C11.8461 12.293 11.8498 12.293 11.8525 12.293C12.4312 12.293 13.0098 12.1011 13.4874 11.7153L20.307 6.26053C20.6037 6.02357 20.6882 5.60567 20.51 5.27043Z" fill="#4545FE"/>
</svg>
