<svg width="139" height="107" viewBox="0 0 139 107" fill="none" xmlns="http://www.w3.org/2000/svg">
<g id="Union 2" opacity="0.5">
<path fill-rule="evenodd" clip-rule="evenodd" d="M79.6844 79.6848L92.4505 85.3502L100.376 67.3685L73.7321 55.5444L79.6844 79.6848ZM37.7466 61.0734L59.7317 70.8301L53.7718 46.6863L45.6718 43.0916L37.7466 61.0734ZM74.754 131.686L65.6915 94.9737L29.8214 79.0551L17.8961 106.113L1.2652 98.6328L13.1538 71.6582L0.908109 66.2237L8.92247 48.2816L21.0789 53.6764L29.004 35.6947L16.9368 30.3394L24.9516 12.3965L36.9294 17.7122L46.2812 -3.50649L60.7796 3.01447L67.7795 31.4033L108.301 49.3864L117.496 28.5237L134.268 36.0677L125.11 56.8465L137.73 62.4471L129.716 80.3893L117.185 74.8283L109.26 92.8101L121.702 98.3315L113.687 116.274L101.335 110.792L89.2523 138.207L74.754 131.686Z" fill="white" fill-opacity="0.3"/>
<path d="M79.6844 79.6848L79.2816 79.7841L79.3303 79.9815L79.5161 80.064L79.6844 79.6848ZM92.4505 85.3502L92.2822 85.7294L92.6624 85.8981L92.8301 85.5175L92.4505 85.3502ZM100.376 67.3685L100.755 67.5358L100.922 67.1571L100.544 66.9893L100.376 67.3685ZM73.7321 55.5444L73.9004 55.1652L73.1266 54.8219L73.3293 55.6437L73.7321 55.5444ZM37.7466 61.0734L37.367 60.906L37.2001 61.2847L37.5784 61.4526L37.7466 61.0734ZM59.7317 70.8301L59.5635 71.2092L60.3374 71.5527L60.1345 70.7306L59.7317 70.8301ZM53.7718 46.6863L54.1746 46.5869L54.1259 46.3895L53.9401 46.3071L53.7718 46.6863ZM45.6718 43.0916L45.84 42.7124L45.4599 42.5437L45.2921 42.9243L45.6718 43.0916ZM74.754 131.686L74.3512 131.785L74.3996 131.982L74.5838 132.064L74.754 131.686ZM65.6915 94.9737L66.0943 94.8743L66.0456 94.677L65.8598 94.5945L65.6915 94.9737ZM29.8214 79.0551L29.9897 78.6759L29.6095 78.5071L29.4418 78.8877L29.8214 79.0551ZM17.8961 106.113L17.7259 106.491L18.1072 106.663L18.2757 106.28L17.8961 106.113ZM1.2652 98.6328L0.885572 98.4655L0.719515 98.8423L1.09503 99.0112L1.2652 98.6328ZM13.1538 71.6582L13.5334 71.8255L13.7003 71.4468L13.3221 71.279L13.1538 71.6582ZM0.908109 66.2237L0.52932 66.0545L0.359714 66.4342L0.739829 66.6029L0.908109 66.2237ZM8.92247 48.2816L9.09076 47.9024L8.71247 47.7345L8.54368 48.1124L8.92247 48.2816ZM21.0789 53.6764L20.9106 54.0556L21.2908 54.2243L21.4585 53.8437L21.0789 53.6764ZM29.004 35.6947L29.3836 35.862L29.5505 35.4833L29.1723 35.3155L29.004 35.6947ZM16.9368 30.3394L16.5581 30.1702L16.3884 30.5499L16.7686 30.7186L16.9368 30.3394ZM24.9516 12.3965L25.1198 12.0173L24.7416 11.8494L24.5728 12.2273L24.9516 12.3965ZM36.9294 17.7122L36.7612 18.0914L37.1413 18.2601L37.3091 17.8795L36.9294 17.7122ZM46.2812 -3.50649L46.4514 -3.88484L46.0701 -4.0563L45.9016 -3.6738L46.2812 -3.50649ZM60.7796 3.01447L61.1824 2.91515L61.134 2.71899L60.9498 2.63612L60.7796 3.01447ZM67.7795 31.4033L67.3767 31.5026L67.4253 31.7L67.6112 31.7825L67.7795 31.4033ZM108.301 49.3864L108.132 49.7656L108.513 49.9343L108.68 49.5537L108.301 49.3864ZM117.496 28.5237L117.666 28.1454L117.285 27.9739L117.116 28.3564L117.496 28.5237ZM134.268 36.0677L134.648 36.235L134.814 35.8582L134.439 35.6893L134.268 36.0677ZM125.11 56.8465L124.731 56.6792L124.564 57.0578L124.942 57.2257L125.11 56.8465ZM137.73 62.4471L138.109 62.6163L138.279 62.2366L137.899 62.0679L137.73 62.4471ZM129.716 80.3893L129.548 80.7685L129.926 80.9364L130.095 80.5585L129.716 80.3893ZM117.185 74.8283L117.354 74.4491L116.973 74.2804L116.806 74.661L117.185 74.8283ZM109.26 92.8101L108.881 92.6428L108.714 93.0214L109.092 93.1893L109.26 92.8101ZM121.702 98.3315L122.08 98.5007L122.25 98.121L121.87 97.9523L121.702 98.3315ZM113.687 116.274L113.519 116.653L113.897 116.821L114.066 116.443L113.687 116.274ZM101.335 110.792L101.503 110.413L101.123 110.244L100.955 110.625L101.335 110.792ZM89.2523 138.207L89.0822 138.585L89.4634 138.757L89.6319 138.374L89.2523 138.207ZM79.5161 80.064L92.2822 85.7294L92.6188 84.971L79.8527 79.3056L79.5161 80.064ZM92.8301 85.5175L100.755 67.5358L99.996 67.2012L92.0709 85.1829L92.8301 85.5175ZM100.544 66.9893L73.9004 55.1652L73.5638 55.9236L100.207 67.7477L100.544 66.9893ZM73.3293 55.6437L79.2816 79.7841L80.0872 79.5855L74.1349 55.4451L73.3293 55.6437ZM37.5784 61.4526L59.5635 71.2092L59.9 70.4509L37.9149 60.6942L37.5784 61.4526ZM60.1345 70.7306L54.1746 46.5869L53.3691 46.7857L59.329 70.9295L60.1345 70.7306ZM53.9401 46.3071L45.84 42.7124L45.5035 43.4708L53.6035 47.0655L53.9401 46.3071ZM45.2921 42.9243L37.367 60.906L38.1263 61.2407L46.0514 43.2589L45.2921 42.9243ZM75.1567 131.587L66.0943 94.8743L65.2888 95.0731L74.3512 131.785L75.1567 131.587ZM65.8598 94.5945L29.9897 78.6759L29.6531 79.4343L65.5232 95.3529L65.8598 94.5945ZM29.4418 78.8877L17.5165 105.946L18.2757 106.28L30.201 79.2224L29.4418 78.8877ZM18.0663 105.735L1.43537 98.2545L1.09503 99.0112L17.7259 106.491L18.0663 105.735ZM1.64482 98.8001L13.5334 71.8255L12.7741 71.4909L0.885572 98.4655L1.64482 98.8001ZM13.3221 71.279L1.07639 65.8445L0.739829 66.6029L12.9855 72.0374L13.3221 71.279ZM1.2869 66.3929L9.30126 48.4508L8.54368 48.1124L0.52932 66.0545L1.2869 66.3929ZM8.75419 48.6608L20.9106 54.0556L21.2472 53.2972L9.09076 47.9024L8.75419 48.6608ZM21.4585 53.8437L29.3836 35.862L28.6244 35.5273L20.6993 53.5091L21.4585 53.8437ZM29.1723 35.3155L17.1051 29.9602L16.7686 30.7186L28.8357 36.0738L29.1723 35.3155ZM17.3156 30.5086L25.3303 12.5657L24.5728 12.2273L16.5581 30.1702L17.3156 30.5086ZM24.7833 12.7757L36.7612 18.0914L37.0977 17.333L25.1198 12.0173L24.7833 12.7757ZM37.3091 17.8795L46.6608 -3.33918L45.9016 -3.6738L36.5498 17.5449L37.3091 17.8795ZM46.111 -3.12814L60.6094 3.39283L60.9498 2.63612L46.4514 -3.88484L46.111 -3.12814ZM60.3768 3.11379L67.3767 31.5026L68.1823 31.304L61.1824 2.91515L60.3768 3.11379ZM67.6112 31.7825L108.132 49.7656L108.469 49.0072L67.9477 31.0241L67.6112 31.7825ZM108.68 49.5537L117.875 28.691L117.116 28.3564L107.921 49.2191L108.68 49.5537ZM117.325 28.9021L134.098 36.446L134.439 35.6893L117.666 28.1454L117.325 28.9021ZM133.889 35.9003L124.731 56.6792L125.49 57.0138L134.648 36.235L133.889 35.9003ZM124.942 57.2257L137.562 62.8263L137.899 62.0679L125.279 56.4673L124.942 57.2257ZM137.352 62.2779L129.337 80.2201L130.095 80.5585L138.109 62.6163L137.352 62.2779ZM129.884 80.0101L117.354 74.4491L117.017 75.2075L129.548 80.7685L129.884 80.0101ZM116.806 74.661L108.881 92.6428L109.64 92.9774L117.565 74.9956L116.806 74.661ZM109.092 93.1893L121.533 98.7107L121.87 97.9523L109.428 92.4309L109.092 93.1893ZM121.323 98.1623L113.309 116.104L114.066 116.443L122.08 98.5007L121.323 98.1623ZM113.856 115.894L101.503 110.413L101.167 111.171L113.519 116.653L113.856 115.894ZM100.955 110.625L88.8727 138.04L89.6319 138.374L101.715 110.959L100.955 110.625ZM89.4225 137.829L74.9241 131.308L74.5838 132.064L89.0822 138.585L89.4225 137.829Z" fill="white" fill-opacity="0.01"/>
</g>
</svg>
