<svg width="25" height="24" viewBox="0 0 25 24" fill="none" xmlns="http://www.w3.org/2000/svg">
<g id="pepicons-pop:bank-circle-off" clip-path="url(#clip0_3553_8974)">
<g id="Group">
<path id="Vector" fill-rule="evenodd" clip-rule="evenodd" d="M12.5005 6.33638L10.1023 7.84654H14.8986L12.5005 6.33638ZM12.7469 4.30931C12.6733 4.2629 12.588 4.23828 12.5009 4.23828C12.4139 4.23828 12.3286 4.2629 12.2549 4.30931L5.05953 8.84069C4.66814 9.08715 4.8426 9.69269 5.30599 9.69269H19.6949C20.1583 9.69269 20.3328 9.08715 19.9414 8.84069L12.7469 4.30931ZM4.6543 18.4619C4.6543 18.2171 4.75155 17.9823 4.92466 17.8092C5.09777 17.6361 5.33256 17.5388 5.57737 17.5388H19.4235C19.6683 17.5388 19.9031 17.6361 20.0762 17.8092C20.2494 17.9823 20.3466 18.2171 20.3466 18.4619C20.3466 18.7067 20.2494 18.9415 20.0762 19.1146C19.9031 19.2877 19.6683 19.385 19.4235 19.385H5.57737C5.33256 19.385 5.09777 19.2877 4.92466 19.1146C4.75155 18.9415 4.6543 18.7067 4.6543 18.4619ZM6.96199 10.6158C7.2068 10.6158 7.44159 10.713 7.6147 10.8861C7.78781 11.0592 7.88507 11.294 7.88507 11.5388V16.1542C7.88507 16.399 7.78781 16.6338 7.6147 16.8069C7.44159 16.9801 7.2068 17.0773 6.96199 17.0773C6.71717 17.0773 6.48239 16.9801 6.30928 16.8069C6.13616 16.6338 6.03891 16.399 6.03891 16.1542V11.5388C6.03891 11.294 6.13616 11.0592 6.30928 10.8861C6.48239 10.713 6.71717 10.6158 6.96199 10.6158ZM9.73122 10.6158C9.97604 10.6158 10.2108 10.713 10.3839 10.8861C10.557 11.0592 10.6543 11.294 10.6543 11.5388V16.1542C10.6543 16.399 10.557 16.6338 10.3839 16.8069C10.2108 16.9801 9.97604 17.0773 9.73122 17.0773C9.4864 17.0773 9.25162 16.9801 9.07851 16.8069C8.9054 16.6338 8.80814 16.399 8.80814 16.1542V11.5388C8.80814 11.294 8.9054 11.0592 9.07851 10.8861C9.25162 10.713 9.4864 10.6158 9.73122 10.6158ZM12.5005 10.6158C12.7453 10.6158 12.9801 10.713 13.1532 10.8861C13.3263 11.0592 13.4235 11.294 13.4235 11.5388V16.1542C13.4235 16.399 13.3263 16.6338 13.1532 16.8069C12.9801 16.9801 12.7453 17.0773 12.5005 17.0773C12.2556 17.0773 12.0208 16.9801 11.8477 16.8069C11.6746 16.6338 11.5774 16.399 11.5774 16.1542V11.5388C11.5774 11.294 11.6746 11.0592 11.8477 10.8861C12.0208 10.713 12.2556 10.6158 12.5005 10.6158ZM15.2697 10.6158C15.5145 10.6158 15.7493 10.713 15.9224 10.8861C16.0955 11.0592 16.1928 11.294 16.1928 11.5388V16.1542C16.1928 16.399 16.0955 16.6338 15.9224 16.8069C15.7493 16.9801 15.5145 17.0773 15.2697 17.0773C15.0249 17.0773 14.7901 16.9801 14.617 16.8069C14.4439 16.6338 14.3466 16.399 14.3466 16.1542V11.5388C14.3466 11.294 14.4439 11.0592 14.617 10.8861C14.7901 10.713 15.0249 10.6158 15.2697 10.6158ZM18.0389 10.6158C18.2837 10.6158 18.5185 10.713 18.6916 10.8861C18.8647 11.0592 18.962 11.294 18.962 11.5388V16.1542C18.962 16.399 18.8647 16.6338 18.6916 16.8069C18.5185 16.9801 18.2837 17.0773 18.0389 17.0773C17.7941 17.0773 17.5593 16.9801 17.3862 16.8069C17.2131 16.6338 17.1158 16.399 17.1158 16.1542V11.5388C17.1158 11.294 17.2131 11.0592 17.3862 10.8861C17.5593 10.713 17.7941 10.6158 18.0389 10.6158Z" fill="#525252"/>
<path id="Vector_2" d="M4.46322 5.26747C4.29507 5.09338 4.20203 4.86021 4.20414 4.61818C4.20624 4.37615 4.30332 4.14463 4.47446 3.97349C4.64561 3.80234 4.87713 3.70526 5.11916 3.70316C5.36119 3.70106 5.59436 3.7941 5.76845 3.96224L20.5377 18.7315C20.7058 18.9056 20.7989 19.1387 20.7968 19.3808C20.7947 19.6228 20.6976 19.8543 20.5264 20.0255C20.3553 20.1966 20.1238 20.2937 19.8817 20.2958C19.6397 20.2979 19.4065 20.2049 19.2325 20.0367L4.46322 5.26747Z" fill="#525252"/>
<path id="Vector_3" fill-rule="evenodd" clip-rule="evenodd" d="M12.5 22.1538C18.1077 22.1538 22.6538 17.6077 22.6538 12C22.6538 6.39231 18.1077 1.84615 12.5 1.84615C6.89231 1.84615 2.34615 6.39231 2.34615 12C2.34615 17.6077 6.89231 22.1538 12.5 22.1538ZM12.5 24C19.1277 24 24.5 18.6277 24.5 12C24.5 5.37231 19.1277 0 12.5 0C5.87231 0 0.5 5.37231 0.5 12C0.5 18.6277 5.87231 24 12.5 24Z" fill="#525252"/>
</g>
</g>
<defs>
<clipPath id="clip0_3553_8974">
<rect width="24" height="24" fill="white" transform="translate(0.5)"/>
</clipPath>
</defs>
</svg>
