<svg width="126" height="99" viewBox="0 0 126 99" fill="none" xmlns="http://www.w3.org/2000/svg">
<path d="M112 0.554688C119.722 0.554688 126 6.82188 126 14.5547V21.5547H0V14.5547C0 6.82188 6.26719 0.554688 14 0.554688H112ZM126 84.5547C126 92.2766 119.722 98.5547 112 98.5547H14C6.26719 98.5547 0 92.2766 0 84.5547V42.5547H126V84.5547ZM24.5 70.5547C22.575 70.5547 21 72.1297 21 74.0547C21 75.9797 22.575 77.5547 24.5 77.5547H38.5C40.425 77.5547 42 75.9797 42 74.0547C42 72.1297 40.425 70.5547 38.5 70.5547H24.5ZM52.5 77.5547H80.5C82.425 77.5547 84 75.9797 84 74.0547C84 72.1297 82.425 70.5547 80.5 70.5547H52.5C50.575 70.5547 49 72.1297 49 74.0547C49 75.9797 50.575 77.5547 52.5 77.5547Z" fill="#747474"/>
</svg>
