<svg width="25" height="24" viewBox="0 0 25 24" fill="none" xmlns="http://www.w3.org/2000/svg">
<g id="vuesax/outline/notification">
<g id="notification">
<path id="Vector" d="M12.7074 20.5299C10.3774 20.5299 8.04737 20.1599 5.83737 19.4199C4.99737 19.1299 4.35737 18.5399 4.07737 17.7699C3.78737 16.9999 3.88737 16.1499 4.34737 15.3899L5.49737 13.4799C5.73737 13.0799 5.95737 12.2799 5.95737 11.8099V8.91992C5.95737 5.19992 8.98737 2.16992 12.7074 2.16992C16.4274 2.16992 19.4574 5.19992 19.4574 8.91992V11.8099C19.4574 12.2699 19.6774 13.0799 19.9174 13.4899L21.0574 15.3899C21.4874 16.1099 21.5674 16.9799 21.2774 17.7699C20.9874 18.5599 20.3574 19.1599 19.5674 19.4199C17.3674 20.1599 15.0374 20.5299 12.7074 20.5299ZM12.7074 3.66992C9.81737 3.66992 7.45737 6.01992 7.45737 8.91992V11.8099C7.45737 12.5399 7.15737 13.6199 6.78737 14.2499L5.63737 16.1599C5.41737 16.5299 5.35737 16.9199 5.48737 17.2499C5.60737 17.5899 5.90737 17.8499 6.31737 17.9899C10.4974 19.3899 14.9274 19.3899 19.1074 17.9899C19.4674 17.8699 19.7474 17.5999 19.8774 17.2399C20.0074 16.8799 19.9774 16.4899 19.7774 16.1599L18.6274 14.2499C18.2474 13.5999 17.9574 12.5299 17.9574 11.7999V8.91992C17.9574 6.01992 15.6074 3.66992 12.7074 3.66992Z" fill="#292D32"/>
<path id="Vector_2" d="M14.5681 3.93969C14.4981 3.93969 14.4281 3.92969 14.3581 3.90969C14.0681 3.82969 13.7881 3.76969 13.5181 3.72969C12.6681 3.61969 11.8481 3.67969 11.0781 3.90969C10.7981 3.99969 10.4981 3.90969 10.3081 3.69969C10.1181 3.48969 10.0581 3.18969 10.1681 2.91969C10.5781 1.86969 11.5781 1.17969 12.7181 1.17969C13.8581 1.17969 14.8581 1.85969 15.2681 2.91969C15.3681 3.18969 15.3181 3.48969 15.1281 3.69969C14.9781 3.85969 14.7681 3.93969 14.5681 3.93969Z" fill="#292D32"/>
<path id="Vector_3" d="M12.707 22.8096C11.717 22.8096 10.757 22.4096 10.057 21.7096C9.35703 21.0096 8.95703 20.0496 8.95703 19.0596H10.457C10.457 19.6496 10.697 20.2296 11.117 20.6496C11.537 21.0696 12.117 21.3096 12.707 21.3096C13.947 21.3096 14.957 20.2996 14.957 19.0596H16.457C16.457 21.1296 14.777 22.8096 12.707 22.8096Z" fill="#292D32"/>
</g>
</g>
</svg>
