<svg width="15" height="14" viewBox="0 0 15 14" fill="none" xmlns="http://www.w3.org/2000/svg">
<g id="alert-triangle">
<path id="Icon" d="M7.6645 5.29226V7.51818M7.6645 9.74409H7.67006M6.89395 2.44962L2.31698 10.3553C2.06312 10.7938 1.93618 11.013 1.95494 11.193C1.97131 11.3499 2.05354 11.4926 2.18117 11.5854C2.3275 11.6918 2.58084 11.6918 3.08753 11.6918H12.2415C12.7482 11.6918 13.0015 11.6918 13.1478 11.5854C13.2755 11.4926 13.3577 11.3499 13.3741 11.193C13.3928 11.013 13.2659 10.7938 13.012 10.3553L8.43504 2.44962C8.18209 2.01269 8.05561 1.79423 7.8906 1.72085C7.74666 1.65685 7.58234 1.65685 7.4384 1.72085C7.27339 1.79423 7.14691 2.01269 6.89395 2.44962Z" stroke="#DC6803" stroke-width="1.11296" stroke-linecap="round" stroke-linejoin="round"/>
</g>
</svg>
