<svg width="40" height="40" viewBox="0 0 40 40" fill="none" xmlns="http://www.w3.org/2000/svg">
<g id="Folder 1">
<path id="Vector" opacity="0.4" d="M27.9095 9.01426H23.1912C22.0158 9.02202 20.8998 8.49915 20.1549 7.59167L18.6011 5.44355C17.8687 4.52811 16.7528 4.00278 15.5791 4.02096H12.2434C6.25638 4.02096 4.04688 7.53476 4.04688 13.5096V19.9683C4.03942 20.6785 36.1039 20.6775 36.106 19.9683V18.0904C36.1346 12.1155 33.9821 9.01426 27.9095 9.01426Z" fill="#919191"/>
<path id="Vector_2" fill-rule="evenodd" clip-rule="evenodd" d="M34.2386 11.3046C34.7516 11.9043 35.1479 12.5942 35.4075 13.3389C35.9183 14.8694 36.1548 16.4778 36.106 18.0903V26.512C36.1039 27.2214 36.0517 27.9297 35.9492 28.6318C35.7543 29.8705 35.3185 31.0593 34.6663 32.1312C34.3665 32.6491 34.0026 33.127 33.5829 33.5538C31.6834 35.2972 29.1611 36.2047 26.5838 36.0718H13.5549C10.9735 36.2037 8.44707 35.2966 6.54148 33.5538C6.12689 33.1262 5.76771 32.6483 5.47237 32.1312C4.82403 31.0601 4.39748 29.8701 4.21794 28.6318C4.10377 27.9308 4.04657 27.2221 4.04688 26.512V18.0903C4.0466 17.387 4.08466 16.6841 4.16093 15.9849C4.17696 15.8622 4.20101 15.7415 4.2248 15.6221C4.26448 15.423 4.30347 15.2274 4.30347 15.0317C4.44817 14.1879 4.71214 13.3689 5.08749 12.5991C6.19937 10.2234 8.48014 9.0142 12.2149 9.0142H27.8952C29.9871 8.8524 32.0634 9.48214 33.7113 10.7782C33.901 10.9391 34.0775 11.1152 34.2386 11.3046ZM12.0154 25.7296H28.1519H28.1804C28.5344 25.745 28.8799 25.6182 29.1398 25.3777C29.3995 25.1371 29.552 24.8028 29.563 24.4493C29.5831 24.1386 29.4808 23.8322 29.278 23.5958C29.0447 23.2778 28.675 23.088 28.2801 23.0835H12.0154C11.2832 23.0835 10.6897 23.6759 10.6897 24.4067C10.6897 25.1372 11.2832 25.7296 12.0154 25.7296Z" fill="#919191"/>
</g>
</svg>
