<svg width="20" height="21" viewBox="0 0 20 21" fill="none" xmlns="http://www.w3.org/2000/svg">
<g id="Edit">
<path id="Vector" d="M16.9917 2.53906C16.2834 1.83073 15.1347 1.83073 14.4264 2.53906L13.9491 3.01638C13.8088 3.15669 13.7301 3.3472 13.7301 3.54565C13.7301 3.74409 13.8088 3.93431 13.9491 4.07462L16.2622 6.38777C16.4025 6.52809 16.5927 6.60676 16.7912 6.60676C16.9896 6.60676 17.1801 6.52809 17.3205 6.38777L17.7978 5.91046C18.5061 5.20212 18.5061 4.05346 17.7978 3.34511L16.9917 2.53906ZM11.8758 5.08968L1.99675 14.9687C1.78246 15.183 1.66211 15.4736 1.66211 15.7765V18.2013C1.66211 18.4625 1.87405 18.6745 2.13531 18.6745H4.56005C4.86299 18.6745 5.1536 18.5541 5.3679 18.3398L15.2469 8.46082L15.2472 8.46111C15.4794 8.22892 15.4794 7.85229 15.2472 7.62013L12.7168 5.08973C12.4846 4.85754 12.108 4.85754 11.8758 5.08973L11.8758 5.08968Z" fill="#5E5E5E"/>
</g>
</svg>
