<svg width="24" height="24" viewBox="0 0 24 24" fill="none" xmlns="http://www.w3.org/2000/svg">
<g id="vuesax/bold/call">
<g id="call">
<path id="Vector" d="M11.05 14.7024L9.2 16.4753C8.81 16.8491 8.19 16.8491 7.79 16.4849C7.68 16.3795 7.57 16.2837 7.46 16.1782C6.43 15.1816 5.5 14.137 4.67 13.0445C3.85 11.952 3.19 10.8595 2.71 9.77658C2.24 8.68408 2 7.63949 2 6.64283C2 5.99116 2.12 5.36824 2.36 4.79324C2.6 4.20866 2.98 3.67199 3.51 3.19283C4.15 2.58908 4.85 2.29199 5.59 2.29199C5.87 2.29199 6.15 2.34949 6.4 2.46449C6.66 2.57949 6.89 2.75199 7.07 3.00116L9.39 6.13491C9.57 6.37449 9.7 6.59491 9.79 6.80574C9.88 7.00699 9.93 7.20824 9.93 7.39033C9.93 7.62033 9.86 7.85033 9.72 8.07074C9.59 8.29116 9.4 8.52116 9.16 8.75116L8.4 9.50824C8.29 9.61366 8.24 9.73824 8.24 9.89158C8.24 9.96824 8.25 10.0353 8.27 10.112C8.3 10.1887 8.33 10.2462 8.35 10.3037C8.53 10.6199 8.84 11.032 9.28 11.5303C9.73 12.0287 10.21 12.5366 10.73 13.0445C10.83 13.1403 10.94 13.2362 11.04 13.332C11.44 13.7057 11.45 14.3191 11.05 14.7024Z" fill="black"/>
<path id="Vector_2" d="M21.9696 17.9413C21.9696 18.2097 21.9196 18.4876 21.8196 18.7559C21.7896 18.8326 21.7596 18.9092 21.7196 18.9859C21.5496 19.3309 21.3296 19.6567 21.0396 19.9634C20.5496 20.4809 20.0096 20.8547 19.3996 21.0942C19.3896 21.0942 19.3796 21.1038 19.3696 21.1038C18.7796 21.3338 18.1396 21.4584 17.4496 21.4584C16.4296 21.4584 15.3396 21.2284 14.1896 20.7588C13.0396 20.2892 11.8896 19.6567 10.7496 18.8613C10.3596 18.5834 9.96961 18.3055 9.59961 18.0084L12.8696 14.8747C13.1496 15.0759 13.3996 15.2292 13.6096 15.3347C13.6596 15.3538 13.7196 15.3826 13.7896 15.4113C13.8696 15.4401 13.9496 15.4497 14.0396 15.4497C14.2096 15.4497 14.3396 15.3922 14.4496 15.2867L15.2096 14.568C15.4596 14.3284 15.6996 14.1463 15.9296 14.0313C16.1596 13.8972 16.3896 13.8301 16.6396 13.8301C16.8296 13.8301 17.0296 13.8684 17.2496 13.9547C17.4696 14.0409 17.6996 14.1655 17.9496 14.3284L21.2596 16.5805C21.5196 16.753 21.6996 16.9542 21.8096 17.1938C21.9096 17.4334 21.9696 17.673 21.9696 17.9413Z" fill="black"/>
</g>
</g>
</svg>
