<svg width="100" height="100" viewBox="0 0 100 100" fill="none" xmlns="http://www.w3.org/2000/svg">
<path opacity="0.4" d="M91.6693 50.0203C91.6693 72.9741 72.9675 91.6668 50.0026 91.6668C27.0377 91.6668 8.33594 72.9741 8.33594 50.0203C8.33594 27.0262 27.0377 8.3335 50.0026 8.3335C72.9675 8.3335 91.6693 27.0262 91.6693 50.0203" fill="white"/>
<path d="M66.6706 50.0204C66.6706 51.0735 66.3391 52.1306 65.6763 52.9771C65.552 53.1431 64.9719 53.8276 64.5162 54.2731L64.2676 54.5162C60.7875 58.2059 52.1287 63.7547 47.7371 65.5328C47.7371 65.5733 45.127 66.6304 43.8841 66.6668H43.7184C41.8126 66.6668 40.0311 65.6178 39.1197 63.9167C38.6225 62.9811 38.1668 60.2675 38.1254 60.231C37.7525 57.7968 37.5039 54.0706 37.5039 49.9799C37.5039 45.6907 37.7525 41.7985 38.2082 39.4088C38.2082 39.3683 38.6639 37.1812 38.954 36.4522C39.4097 35.4032 40.2383 34.5081 41.274 33.941C42.1026 33.5401 42.9727 33.3335 43.8841 33.3335C44.837 33.378 46.6185 33.9815 47.3228 34.265C51.963 36.0471 60.829 41.8795 64.2262 45.4437C64.8062 46.0107 65.4277 46.7033 65.5934 46.8612C66.2977 47.7523 66.6706 48.8459 66.6706 50.0204" fill="white"/>
</svg>
