<svg width="129" height="128" viewBox="0 0 129 128" fill="none" xmlns="http://www.w3.org/2000/svg">
<g clip-path="url(#clip0_7491_81883)">
<path fill-rule="evenodd" clip-rule="evenodd" d="M0.5 64C0.5 28.6538 29.1538 0 64.5 0C99.8462 0 128.5 28.6538 128.5 64C128.5 99.3462 99.8462 128 64.5 128C29.1538 128 0.5 99.3462 0.5 64Z" fill="url(#paint0_linear_7491_81883)"/>
<path fill-rule="evenodd" clip-rule="evenodd" d="M64.2771 105.168C46.2902 105.168 31.1035 102.244 31.1035 90.9652C31.1035 79.6817 46.3857 76.8619 64.2771 76.8619C82.2679 76.8619 97.4506 79.7853 97.4506 91.0648C97.4506 102.348 82.1684 105.168 64.2771 105.168V105.168ZM86.2282 44.1825C86.2282 56.3616 76.4632 66.1271 64.2756 66.1271C52.0922 66.1271 42.3231 56.3616 42.3231 44.1825C42.3231 32.0036 52.0922 22.2422 64.2756 22.2422C76.4632 22.2422 86.2282 32.0036 86.2282 44.1825Z" fill="#191919"/>
</g>
<defs>
<linearGradient id="paint0_linear_7491_81883" x1="0.5" y1="0" x2="0.5" y2="128" gradientUnits="userSpaceOnUse">
<stop stop-color="#FEFEFE"/>
<stop offset="1" stop-color="#ECECEC"/>
</linearGradient>
<clipPath id="clip0_7491_81883">
<rect width="128" height="128" fill="white" transform="translate(0.5)"/>
</clipPath>
</defs>
</svg>
