<svg width="40" height="40" viewBox="0 0 40 40" fill="none" xmlns="http://www.w3.org/2000/svg">
<path d="M12.0239 21.8879L23.4374 14.8559C23.693 14.6992 24.0203 14.7142 24.2596 14.8992C25.344 15.7343 26.3127 16.581 26.9591 17.2927C26.9591 17.2927 27.5159 17.8627 27.7569 18.2244C28.1461 18.7178 28.3333 19.3628 28.3333 19.9895C28.3333 20.6929 28.1281 21.3579 27.7195 21.8896C27.6267 21.9846 27.2734 22.403 26.9396 22.7446C24.9923 24.8714 19.9091 28.3849 17.2356 29.45C16.8465 29.6216 15.8077 29.98 15.2688 30C14.7494 30 14.2479 29.8867 13.766 29.6383C13.1733 29.2966 12.7093 28.7666 12.4488 28.1382C12.2811 27.7016 12.0222 26.3915 12.0222 26.3532C11.8545 25.4181 11.7292 24.1047 11.6673 22.5713C11.6559 22.2963 11.7943 22.0296 12.0239 21.8879Z" fill="black"/>
<path opacity="0.4" d="M12.7872 18.1002C12.2841 18.4119 11.6507 18.0135 11.6751 17.4152C11.7354 16.0118 11.8396 14.7751 11.9666 13.855C11.9861 13.835 12.245 12.2033 12.5429 11.6516C13.0623 10.6265 14.0816 9.99981 15.1773 9.99981H15.2685C15.9751 10.0181 17.4779 10.6448 17.4779 10.6832C18.235 10.9982 19.2233 11.5316 20.2865 12.1733C20.7652 12.4633 20.7766 13.175 20.2979 13.47L12.7872 18.1002Z" fill="black"/>
</svg>
