<svg width="12" height="13" viewBox="0 0 12 13" fill="none" xmlns="http://www.w3.org/2000/svg">
<g clip-path="url(#clip0_11532_10306)">
<path d="M11.2038 1.34246C10.8172 0.950384 10.2533 0.789632 9.71802 0.918869L2.57036 2.42106C1.21299 2.62191 0.275456 3.88511 0.476313 5.24246C0.554399 5.77017 0.800271 6.25873 1.17755 6.63588L1.94383 7.40264C1.97971 7.43804 1.99976 7.48643 1.99947 7.53683V8.95066C2.0005 9.83022 2.71327 10.543 3.59283 10.544H5.00665C5.05713 10.544 5.10556 10.564 5.1413 10.5997L5.90759 11.3659C6.37093 11.8323 7.00107 12.0948 7.65849 12.0953C7.92988 12.0951 8.19944 12.0507 8.45658 11.9639C9.34396 11.6692 9.98879 10.8986 10.1224 9.97315L11.6246 2.84793C11.7596 2.30701 11.5997 1.73501 11.2038 1.34246ZM1.90879 4.53384C2.03585 4.14126 2.37875 3.85778 2.78822 3.80683C2.80474 3.80464 2.82109 3.80183 2.83731 3.79841L9.06581 2.48932L3.4021 8.14975V7.53681C3.40313 7.11397 3.23473 6.70833 2.93457 6.41052L2.16921 5.64424C1.87442 5.35592 1.77291 4.92317 1.90879 4.53384ZM8.74507 9.70852C8.74133 9.72489 8.739 9.74124 8.73666 9.75761C8.65546 10.3498 8.10956 10.7641 7.51734 10.6829C7.28336 10.6508 7.06629 10.5431 6.89925 10.3762L6.13343 9.61034C5.83546 9.31009 5.42967 9.14172 5.00668 9.14281H4.39374L10.056 3.4791L8.74507 9.70852Z" fill="white"/>
</g>
<defs>
<clipPath id="clip0_11532_10306">
<rect width="11.2224" height="11.2224" fill="white" transform="translate(0.449219 0.874023)"/>
</clipPath>
</defs>
</svg>
