<svg width="24" height="25" viewBox="0 0 24 25" fill="none" xmlns="http://www.w3.org/2000/svg">
<path d="M12 15.1504C13.6569 15.1504 15 13.8072 15 12.1504C15 10.4935 13.6569 9.15039 12 9.15039C10.3431 9.15039 9 10.4935 9 12.1504C9 13.8072 10.3431 15.1504 12 15.1504Z" stroke="#667085" stroke-width="2" stroke-linecap="round" stroke-linejoin="round"/>
<path d="M18.7273 14.8777C18.6063 15.1519 18.5702 15.456 18.6236 15.7509C18.6771 16.0458 18.8177 16.318 19.0273 16.5322L19.0818 16.5868C19.2509 16.7556 19.385 16.9561 19.4765 17.1769C19.568 17.3976 19.6151 17.6342 19.6151 17.8731C19.6151 18.1121 19.568 18.3487 19.4765 18.5694C19.385 18.7901 19.2509 18.9906 19.0818 19.1595C18.913 19.3285 18.7124 19.4626 18.4917 19.5541C18.271 19.6456 18.0344 19.6927 17.7955 19.6927C17.5565 19.6927 17.3199 19.6456 17.0992 19.5541C16.8785 19.4626 16.678 19.3285 16.5091 19.1595L16.4545 19.1049C16.2403 18.8954 15.9682 18.7548 15.6733 18.7013C15.3784 18.6478 15.0742 18.6839 14.8 18.8049C14.5311 18.9202 14.3018 19.1115 14.1403 19.3554C13.9788 19.5993 13.8921 19.8851 13.8909 20.1777V20.3322C13.8909 20.8144 13.6994 21.2769 13.3584 21.6179C13.0174 21.9588 12.5549 22.1504 12.0727 22.1504C11.5905 22.1504 11.1281 21.9588 10.7871 21.6179C10.4461 21.2769 10.2545 20.8144 10.2545 20.3322V20.2504C10.2475 19.9495 10.1501 19.6577 9.97501 19.4128C9.79991 19.168 9.55521 18.9816 9.27273 18.8777C8.99853 18.7566 8.69437 18.7206 8.39947 18.774C8.10456 18.8275 7.83244 18.9681 7.61818 19.1777L7.56364 19.2322C7.39478 19.4013 7.19425 19.5354 6.97353 19.6269C6.7528 19.7184 6.51621 19.7655 6.27727 19.7655C6.03834 19.7655 5.80174 19.7184 5.58102 19.6269C5.36029 19.5354 5.15977 19.4013 4.99091 19.2322C4.82186 19.0634 4.68775 18.8628 4.59626 18.6421C4.50476 18.4214 4.45766 18.1848 4.45766 17.9458C4.45766 17.7069 4.50476 17.4703 4.59626 17.2496C4.68775 17.0289 4.82186 16.8283 4.99091 16.6595L5.04545 16.6049C5.25503 16.3907 5.39562 16.1186 5.4491 15.8237C5.50257 15.5287 5.46647 15.2246 5.34545 14.9504C5.23022 14.6815 5.03887 14.4522 4.79497 14.2907C4.55107 14.1291 4.26526 14.0425 3.97273 14.0413H3.81818C3.33597 14.0413 2.87351 13.8497 2.53253 13.5088C2.19156 13.1678 2 12.7053 2 12.2231C2 11.7409 2.19156 11.2784 2.53253 10.9375C2.87351 10.5965 3.33597 10.4049 3.81818 10.4049H3.9C4.2009 10.3979 4.49273 10.3005 4.73754 10.1254C4.98236 9.9503 5.16883 9.7056 5.27273 9.42312C5.39374 9.14892 5.42984 8.84476 5.37637 8.54986C5.3229 8.25495 5.18231 7.98283 4.97273 7.76857L4.91818 7.71403C4.74913 7.54517 4.61503 7.34464 4.52353 7.12392C4.43203 6.90319 4.38493 6.6666 4.38493 6.42766C4.38493 6.18873 4.43203 5.95213 4.52353 5.73141C4.61503 5.51068 4.74913 5.31016 4.91818 5.1413C5.08704 4.97225 5.28757 4.83814 5.50829 4.74665C5.72901 4.65515 5.96561 4.60805 6.20455 4.60805C6.44348 4.60805 6.68008 4.65515 6.9008 4.74665C7.12152 4.83814 7.32205 4.97225 7.49091 5.1413L7.54545 5.19585C7.75971 5.40542 8.03183 5.54601 8.32674 5.59949C8.62164 5.65296 8.9258 5.61686 9.2 5.49585H9.27273C9.54161 5.38061 9.77093 5.18926 9.93245 4.94536C10.094 4.70146 10.1807 4.41565 10.1818 4.12312V3.96857C10.1818 3.48636 10.3734 3.0239 10.7144 2.68292C11.0553 2.34195 11.5178 2.15039 12 2.15039C12.4822 2.15039 12.9447 2.34195 13.2856 2.68292C13.6266 3.0239 13.8182 3.48636 13.8182 3.96857V4.05039C13.8193 4.34292 13.906 4.62873 14.0676 4.87263C14.2291 5.11653 14.4584 5.30788 14.7273 5.42312C15.0015 5.54413 15.3056 5.58023 15.6005 5.52676C15.8954 5.47329 16.1676 5.3327 16.3818 5.12312L16.4364 5.06857C16.6052 4.89952 16.8057 4.76542 17.0265 4.67392C17.2472 4.58242 17.4838 4.53532 17.7227 4.53532C17.9617 4.53532 18.1983 4.58242 18.419 4.67392C18.6397 4.76542 18.8402 4.89952 19.0091 5.06857C19.1781 5.23743 19.3122 5.43796 19.4037 5.65868C19.4952 5.8794 19.5423 6.116 19.5423 6.35494C19.5423 6.59387 19.4952 6.83047 19.4037 7.05119C19.3122 7.27192 19.1781 7.47244 19.0091 7.6413L18.9545 7.69585C18.745 7.9101 18.6044 8.18222 18.5509 8.47713C18.4974 8.77203 18.5335 9.07619 18.6545 9.35039V9.42312C18.7698 9.692 18.9611 9.92132 19.205 10.0828C19.4489 10.2444 19.7347 10.331 20.0273 10.3322H20.1818C20.664 10.3322 21.1265 10.5238 21.4675 10.8647C21.8084 11.2057 22 11.6682 22 12.1504C22 12.6326 21.8084 13.0951 21.4675 13.436C21.1265 13.777 20.664 13.9686 20.1818 13.9686H20.1C19.8075 13.9697 19.5217 14.0564 19.2778 14.2179C19.0339 14.3795 18.8425 14.6088 18.7273 14.8777Z" stroke="#667085" stroke-width="2" stroke-linecap="round" stroke-linejoin="round"/>
</svg>
