<svg width="24" height="24" viewBox="0 0 24 24" fill="none" xmlns="http://www.w3.org/2000/svg">
<g id="Frame 20684">
<path id="Vector" d="M6.99969 17.0001C8.41258 16.9968 9.75713 16.3923 10.6972 15.3378C10.7229 15.362 10.7502 15.3845 10.7792 15.4047L14.1782 17.239V17.2392C13.9544 18.3116 14.1857 19.429 14.8171 20.3246C15.4484 21.22 16.4231 21.8133 17.5086 21.963C18.594 22.1125 19.6928 21.8049 20.5427 21.1135C21.3926 20.4222 21.9176 19.4091 21.9923 18.3159C22.0669 17.2228 21.6846 16.1477 20.9365 15.3473C20.1884 14.5467 19.1417 14.0926 18.0459 14.0932C16.8581 14.0976 15.7359 14.6389 14.9929 15.5658L11.661 13.7676C12.1125 12.6327 12.1125 11.3679 11.661 10.233L14.9929 8.43493V8.43478C15.7862 9.39482 16.9873 9.92225 18.231 9.85655C19.4746 9.79084 20.6134 9.13976 21.3011 8.10154C21.9886 7.06315 22.1436 5.7605 21.7188 4.58992C21.2938 3.41934 20.3393 2.51925 19.1459 2.16372C17.9524 1.80804 16.661 2.03914 15.6648 2.78631C14.6686 3.53363 14.0853 4.7086 14.0926 5.95393C14.0929 6.2252 14.1211 6.49586 14.1764 6.76137L10.7773 8.59583C10.7483 8.61608 10.7211 8.6385 10.6954 8.6628C9.56249 7.40842 7.87162 6.81278 6.20252 7.08C4.53362 7.34707 3.11324 8.44074 2.42818 9.98602C1.74329 11.5313 1.88689 13.3181 2.80971 14.734C3.73269 16.1502 5.30942 17.003 6.99961 17.0002L6.99969 17.0001Z" fill="#2F2F2F"/>
</g>
</svg>
