<svg width="150" height="150" viewBox="0 0 150 150" fill="none" xmlns="http://www.w3.org/2000/svg">
<circle cx="75" cy="75" r="75" fill="#1A1A1A"/>
<g clip-path="url(#clip0_10375_113240)">
<path d="M103.591 85.8192L99.999 82.2275V105.555C99.9823 109.189 94.4573 109.186 94.4434 105.555V82.2275L90.8517 85.8192C89.7656 86.9053 88.0101 86.9053 86.924 85.8192C85.8378 84.7359 85.8378 82.9775 86.924 81.8914L91.4045 77.4081C94.6073 74.2053 99.824 74.1997 103.035 77.4081L107.518 81.8914C110.077 84.4692 106.168 88.3775 103.591 85.8192Z" fill="#6C6AFF"/>
<path d="M88.8854 41.668H61.1076C53.4382 41.668 47.2188 47.8874 47.2188 55.5569V97.2235C47.2188 103.36 52.1938 108.335 58.3299 108.335H86.1076C89.741 108.318 89.7382 102.793 86.1076 102.779H58.3299C54.9604 102.779 52.2799 99.7624 52.8521 96.2846C53.3021 93.5513 55.8743 91.668 58.6438 91.668H80.5549C84.1882 91.6513 84.1854 86.1263 80.5549 86.1124H63.8882V47.2235H88.8882C93.491 47.2235 97.2215 50.9541 97.2215 55.5569V66.668C97.2382 70.3013 102.76 70.2985 102.777 66.668V55.5569C102.777 47.8874 96.5576 41.668 88.8882 41.668H88.8854ZM58.3299 86.1124C56.2965 86.1124 54.416 86.7013 52.7743 87.6569V55.5569C52.7743 51.9402 55.1049 48.8846 58.3299 47.7346V86.1124Z" fill="#6C6AFF"/>
</g>
<defs>
<clipPath id="clip0_10375_113240">
<rect width="66.6667" height="66.6667" fill="white" transform="translate(41.6641 41.668)"/>
</clipPath>
</defs>
</svg>
