<svg width="21" height="21" viewBox="0 0 21 21" fill="none" xmlns="http://www.w3.org/2000/svg">
<g id="Arrow - Right 2 1">
<path id="Vector" d="M14.6507 10.9816C14.6036 11.0299 14.4258 11.2366 14.2602 11.4066C13.2893 12.4757 10.7563 14.2257 9.43067 14.7599C9.22933 14.8457 8.72031 15.0274 8.44835 15.0391C8.18775 15.0391 7.93933 14.9791 7.70228 14.8574C7.40678 14.6874 7.16973 14.4199 7.03984 14.1041C6.95622 13.8849 6.82633 13.2291 6.82633 13.2174C6.69644 12.4999 6.625 11.3341 6.625 10.0457C6.625 8.81823 6.69644 7.6999 6.80279 6.97156C6.81497 6.9599 6.94486 6.1449 7.08692 5.86573C7.34752 5.35573 7.85653 5.03906 8.40126 5.03906H8.44835C8.80312 5.05156 9.54917 5.36823 9.54917 5.3799C10.8034 5.9149 13.2778 7.57906 14.2723 8.6849C14.2723 8.6849 14.5524 8.96906 14.6742 9.14656C14.8642 9.40156 14.9583 9.7174 14.9583 10.0332C14.9583 10.3857 14.852 10.7141 14.6507 10.9816Z" fill="#DFCDF1"/>
</g>
</svg>
