<svg width="25" height="25" viewBox="0 0 25 25" fill="none" xmlns="http://www.w3.org/2000/svg">
<g id="mage:whatsapp-filled">
<g id="Group">
<g id="Clip path group">
<mask id="mask0_3099_9042" style="mask-type:luminance" maskUnits="userSpaceOnUse" x="2" y="3" width="20" height="20">
<g id="mageWhatsappFilled0">
<path id="Vector" d="M2.61719 3.38281H21.6172V22.3828H2.61719V3.38281Z" fill="white"/>
</g>
</mask>
<g mask="url(#mask0_3099_9042)">
<g id="Group_2">
<path id="Vector_2" d="M13.9072 3.52234L13.3372 3.44234C11.6241 3.195 9.87603 3.4397 8.29672 4.14791C6.71741 4.85612 5.37195 5.99866 4.41719 7.44234C3.40134 8.82232 2.79577 10.4611 2.67017 12.17C2.54456 13.879 2.90402 15.5887 3.70719 17.1023C3.78938 17.254 3.84056 17.4206 3.85773 17.5923C3.8749 17.764 3.85772 17.9374 3.80719 18.1023C3.39719 19.5123 3.01719 20.9323 2.61719 22.4223L3.11719 22.2723C4.46719 21.9123 5.81719 21.5523 7.16719 21.2223C7.45213 21.1631 7.7483 21.191 8.01719 21.3023C9.22838 21.8935 10.552 22.2187 11.8992 22.2561C13.2465 22.2936 14.5861 22.0425 15.8283 21.5196C17.0705 20.9967 18.1864 20.2141 19.1013 19.2245C20.0161 18.2348 20.7087 17.0609 21.1325 15.7815C21.5564 14.5021 21.7016 13.1469 21.5586 11.8067C21.4155 10.4666 20.9875 9.17258 20.3031 8.0115C19.6188 6.85041 18.694 5.84914 17.5909 5.07487C16.4878 4.3006 15.2318 3.77125 13.9072 3.52234ZM16.4272 16.6423C16.0637 16.9677 15.6206 17.191 15.1427 17.2894C14.6649 17.3877 14.1696 17.3577 13.7072 17.2023C11.6121 16.6115 9.79444 15.297 8.57719 13.4923C8.11236 12.8539 7.73877 12.1539 7.46719 11.4123C7.32004 10.9821 7.29351 10.5198 7.39046 10.0756C7.48742 9.63134 7.70416 9.22213 8.01719 8.89234C8.16957 8.69786 8.377 8.55377 8.61244 8.47886C8.84789 8.40395 9.10043 8.40167 9.33719 8.47234C9.53719 8.52234 9.67719 8.81234 9.85719 9.03234C10.0039 9.44568 10.1739 9.84901 10.3672 10.2423C10.5136 10.4428 10.5748 10.6931 10.5373 10.9386C10.4998 11.184 10.3668 11.4047 10.1672 11.5523C9.71719 11.9523 9.78719 12.2823 10.1072 12.7323C10.8142 13.7519 11.7905 14.555 12.9272 15.0523C13.2472 15.1923 13.4872 15.2223 13.6972 14.8923C13.7872 14.7623 13.9072 14.6523 14.0072 14.5323C14.5872 13.8023 14.4072 13.8123 15.3272 14.2123C15.6205 14.3357 15.9039 14.479 16.1772 14.6423C16.4472 14.8023 16.8572 14.9723 16.9172 15.2123C16.9749 15.4727 16.9597 15.744 16.8733 15.9962C16.7868 16.2485 16.6325 16.4721 16.4272 16.6423Z" fill="white"/>
</g>
</g>
</g>
</g>
</g>
</svg>
