<svg width="16" height="16" viewBox="0 0 16 16" fill="none" xmlns="http://www.w3.org/2000/svg">
<g id="vuesax/outline/frame">
<g id="frame">
<path id="Vector" d="M7.93731 1.04747C11.6437 1.04747 14.6563 4.06005 14.6562 7.76641C14.6562 11.4728 11.6437 14.4854 7.93731 14.4854C7.68105 14.4854 7.46854 14.2728 7.46854 14.0166C7.46854 13.7603 7.68105 13.5478 7.93731 13.5478C11.1249 13.5478 13.7187 10.954 13.7187 7.76641C13.7187 4.57882 11.1249 1.98499 7.93731 1.98499C4.74972 1.98499 2.15589 4.57882 2.15589 7.76641C2.15589 8.02267 1.94339 8.23517 1.68713 8.23517C1.43087 8.23517 1.21837 8.02267 1.21837 7.76641C1.21837 4.06005 4.23095 1.04747 7.93731 1.04747Z" fill="#FF3636"/>
<path id="Vector_2" d="M6.81405 8.42229C6.9328 8.42229 7.05156 8.46604 7.14531 8.55979C7.32656 8.74105 7.32656 9.04105 7.14531 9.22231L2.02016 14.3475C1.83891 14.5287 1.5389 14.5287 1.35764 14.3475C1.17639 14.1662 1.17639 13.8662 1.35764 13.6849L6.48279 8.55979C6.57029 8.47229 6.68905 8.42229 6.81405 8.42229Z" fill="#FF3636"/>
<path id="Vector_3" d="M4.29365 7.92254H7.31249C7.56874 7.92254 7.78125 8.13505 7.78125 8.39131V11.4101C7.78125 11.6664 7.56874 11.8789 7.31249 11.8789C7.05623 11.8789 6.84372 11.6664 6.84372 11.4101V8.86007H4.29365C4.03739 8.86007 3.82489 8.64756 3.82489 8.39131C3.82489 8.13505 4.03739 7.92254 4.29365 7.92254Z" fill="#FF3636"/>
</g>
</g>
</svg>
