<svg width="22" height="23" viewBox="0 0 22 23" fill="none" xmlns="http://www.w3.org/2000/svg">
<g id="vuesax/bold/import">
<g id="import">
<path id="Vector" d="M2.81153 13.1992H10.3843V9.91409L8.97898 11.3194C8.71939 11.579 8.28973 11.579 8.03014 11.3194C7.77055 11.0599 7.77055 10.6302 8.03014 10.3706L10.5813 7.82843C10.8409 7.56884 11.2705 7.56884 11.5301 7.82843L14.0812 10.3706C14.2155 10.5049 14.2782 10.6749 14.2782 10.845C14.2782 11.0151 14.2065 11.1852 14.0723 11.3194C13.8127 11.579 13.383 11.579 13.1234 11.3194L11.727 9.92304V13.1992L19.1745 13.1992C19.6042 13.1992 19.9443 12.8591 19.9443 12.4294C19.9443 7.15708 16.2653 3.47809 10.993 3.47809C5.72071 3.47809 2.04172 7.15708 2.04172 12.4294C2.04172 12.8591 2.38187 13.1992 2.81153 13.1992Z" fill="#CA1611"/>
<path id="Vector_2" d="M10.3858 18.4888C10.3858 18.8558 10.6902 19.1602 11.0572 19.1602C11.4242 19.1602 11.7285 18.8558 11.7285 18.4888V13.2075H10.3858V18.4888Z" fill="#CA1611"/>
</g>
</g>
</svg>
