<svg width="68" height="67" viewBox="0 0 68 67" fill="none" xmlns="http://www.w3.org/2000/svg">
<g clip-path="url(#clip0_676_7934)">
<path d="M59.1387 23.6005C59.9526 22.7868 59.9529 21.4694 59.1389 20.6553C59.1391 20.6557 59.1387 20.6551 59.1387 20.6551C58.7454 20.2618 58.2225 20.0451 57.6662 20.0451C55.8035 20.0451 54.8942 22.3012 56.1936 23.6004C57.0056 24.4123 58.3268 24.4125 59.1387 23.6005ZM62.7714 17.0226C63.2052 17.4565 63.2051 18.1598 62.7714 18.5935C62.3375 19.0272 61.6344 19.0271 61.2006 18.5935C59.2473 16.6401 56.0857 16.6397 54.1321 18.5934C53.6982 19.0272 52.995 19.0271 52.5613 18.5935C52.1275 18.1598 52.1274 17.4565 52.5613 17.0228C55.3824 14.2013 59.9494 14.2007 62.7714 17.0226ZM66.1094 14.7955C65.825 14.7955 65.5408 14.6871 65.324 14.4702C61.0918 10.2378 54.2414 10.2371 50.0085 14.4702C49.5748 14.9038 48.8716 14.9038 48.4378 14.4702C48.0039 14.0364 48.0039 13.3332 48.4378 12.8993C53.5386 7.79859 61.7938 7.79846 66.8948 12.8993C67.5966 13.6013 67.0899 14.7955 66.1094 14.7955ZM61.4036 27.6257C60.7973 27.7187 60.3812 28.2857 60.4744 28.892C63.1258 46.166 50.0686 61.678 32.9047 62.3275V34.4437H47.5456C47.2105 44.5297 42.3774 51.9229 38.2987 56.4026C37.6467 57.1186 38.1645 58.2611 39.1196 58.2611C39.4213 58.2611 39.7221 58.1388 39.9413 57.8982C44.2848 53.1277 49.4344 45.2391 49.769 34.4437H55.1193C55.7327 34.4437 56.23 33.9464 56.23 33.333C56.23 32.7196 55.7327 32.2223 55.1193 32.2223H49.7683C49.3285 17.8385 40.4172 8.57805 35.5191 4.55526C39.1892 5.02927 42.7473 6.19928 45.9712 8.00811C46.5063 8.3087 47.1832 8.11793 47.4834 7.58283C47.7836 7.04788 47.5932 6.37089 47.0581 6.07072C42.421 3.46897 37.1427 2.09375 31.794 2.09375C14.5281 2.09375 0.554688 16.0656 0.554688 33.333C0.554688 50.5955 14.5228 64.5702 31.7902 64.5723C50.9045 64.5723 65.5893 47.5703 62.67 28.5551C62.5768 27.9486 62.0097 27.5321 61.4036 27.6257ZM30.6832 61.3366C29.043 60.102 26.4362 57.9041 23.8747 54.7623C18.9117 48.675 16.2809 41.8441 16.0421 34.4436H30.6832V61.3366ZM39.7183 11.9057C44.6786 17.9931 47.3075 24.8233 47.5459 32.2223H32.9047V5.32417C34.5443 6.55833 37.1545 8.75896 39.7183 11.9057ZM30.6832 4.33853V32.2223H16.0426C16.3674 22.469 20.9142 15.2541 24.7525 10.8643C25.1562 10.4026 25.1092 9.70086 24.6475 9.29711C24.1856 8.89322 23.484 8.94028 23.0801 9.40221C18.9907 14.0792 14.1438 21.7809 13.8193 32.2223H2.79947C3.37164 17.1035 15.5644 4.91056 30.6832 4.33853ZM2.79947 34.4437H13.8196C14.2605 48.8334 23.1786 58.0931 28.0783 62.1137C14.1858 60.3303 3.33831 48.684 2.79947 34.4437Z" fill="#ffffff"/>
</g>
<defs>
<clipPath id="clip0_676_7934">
<rect width="66.6667" height="66.6667" fill="transparent" transform="translate(0.554688)"/>
</clipPath>
</defs>
</svg>
