<svg width="68" height="67" viewBox="0 0 68 67" fill="none" xmlns="http://www.w3.org/2000/svg">
<g clip-path="url(#clip0_702_23085)">
<path d="M62.2598 51.0252V36.7891C62.2598 36.6523 62.2328 36.5168 62.1805 36.3905C62.1281 36.2641 62.0514 36.1492 61.9547 36.0525L56.4413 30.5391H60.1764C60.3779 30.5391 60.5751 30.4807 60.7441 30.3709C60.9131 30.2611 61.0466 30.1046 61.1284 29.9205L65.2951 20.5455C65.3568 20.4066 65.3874 20.2559 65.3846 20.1039C65.3819 19.9519 65.346 19.8024 65.2794 19.6658C65.2127 19.5292 65.117 19.4088 64.9989 19.3131C64.8808 19.2174 64.7432 19.1487 64.5957 19.1119L60.429 18.0702C60.1991 18.0128 59.9565 18.0354 59.7412 18.1344C59.5259 18.2334 59.3508 18.4029 59.2448 18.6149L56.4077 24.2891H44.5514C44.2752 24.2891 44.0102 24.3988 43.8149 24.5942C43.6195 24.7895 43.5098 25.0545 43.5098 25.3308V29.4974C43.5098 29.7737 43.6195 30.0386 43.8149 30.234C44.0102 30.4293 44.2752 30.5391 44.5514 30.5391H48.2866L56.0098 38.2623V50.9948L51.3552 56.5808H44.6797L44.804 56.5496C44.9433 56.5148 45.0738 56.4516 45.1875 56.364C45.3012 56.2764 45.3955 56.1662 45.4646 56.0404C45.5337 55.9146 45.576 55.7758 45.5889 55.6329C45.6019 55.4899 45.5851 55.3458 45.5397 55.2097L44.4981 52.0847C44.4289 51.8773 44.2962 51.6969 44.1189 51.569C43.9415 51.4412 43.7284 51.3724 43.5098 51.3724H40.1387L37.223 40.6823C37.205 40.6161 37.1804 40.5519 37.1497 40.4905L32.0514 30.2931V27.1589L33.9944 28.3102C34.1551 28.4055 34.3385 28.4558 34.5254 28.4558H37.39C37.6294 28.4558 37.8614 28.3733 38.0472 28.2223C38.2329 28.0713 38.3609 27.8609 38.4098 27.6266L39.0608 24.5016C39.0902 24.3607 39.09 24.2153 39.0603 24.0745C39.0307 23.9336 38.9722 23.8005 38.8885 23.6834C38.8048 23.5663 38.6978 23.4679 38.5742 23.3942C38.4505 23.3206 38.313 23.2733 38.1702 23.2555L35.4612 22.917L33.0592 19.9547C33.4183 19.3481 33.6072 18.6559 33.6062 17.951C33.6053 17.2461 33.4144 16.5545 33.0536 15.9489L31.0098 12.5421V11.7891H31.2702C31.7535 11.7886 32.2169 11.5964 32.5586 11.2546C32.9004 10.9129 33.0926 10.4495 33.0931 9.96618V6.09795C33.0925 5.56878 32.9693 5.04694 32.7332 4.57334C32.4237 3.94954 31.952 3.42049 31.3677 3.04164C30.7834 2.6628 30.1079 2.44811 29.4121 2.42009C29.3806 2.41577 29.3488 2.41377 29.3171 2.4141H25.9279C25.0902 2.41182 24.2603 2.57571 23.4864 2.89628C22.7124 3.21684 22.0098 3.68773 21.419 4.28167C21.0213 4.68157 20.5482 4.99861 20.0271 5.21445C19.506 5.43029 18.9473 5.54063 18.3833 5.5391H15.3848C15.1787 5.53909 14.9773 5.60018 14.806 5.71464C14.6347 5.8291 14.5012 5.99179 14.4224 6.18213C14.3435 6.37247 14.3229 6.58192 14.3631 6.78399C14.4033 6.98606 14.5025 7.17167 14.6482 7.31735L16.2107 8.87985C16.8014 9.4738 17.5041 9.94468 18.278 10.2653C19.052 10.5858 19.8818 10.7497 20.7195 10.7474H21.0619C22.3209 10.7487 23.5519 10.3759 24.5988 9.67647L24.7598 9.56878V11.7891C24.6996 11.7894 24.6396 11.795 24.5803 11.8056C23.6496 11.8868 22.7775 12.2948 22.1186 12.9572L17.4941 17.5815C17.1545 17.9193 16.8853 18.3211 16.7021 18.7637C16.5188 19.2062 16.4251 19.6807 16.4264 20.1597V20.2215C16.427 21.0743 16.726 21.9 17.2715 22.5555L21.8762 28.0813C21.974 28.1985 22.0963 28.2929 22.2346 28.3576C22.3729 28.4223 22.5238 28.4558 22.6764 28.4558H23.4316C23.2358 29.6164 23.2723 30.8043 23.5391 31.9507L20.7363 40.3581L12.7733 47.3254L9.84701 48.3009C9.71724 48.3442 9.59725 48.4125 9.49392 48.5021C9.39059 48.5918 9.30593 48.7009 9.24479 48.8232L8.20313 50.9065C8.12484 51.0633 8.08737 51.2373 8.0942 51.4125C8.10103 51.5876 8.15193 51.7581 8.24219 51.9084L11.0449 56.5808H7.05143C5.94636 56.5808 4.88656 57.0197 4.10515 57.8012C3.32375 58.5826 2.88477 59.6424 2.88477 60.7474C2.88477 61.8525 3.32375 62.9123 4.10515 63.6937C4.88656 64.4751 5.94636 64.9141 7.05143 64.9141H64.3431C64.6194 64.9141 64.8843 64.8044 65.0797 64.609C65.275 64.4137 65.3848 64.1487 65.3848 63.8724V55.5391C65.3848 55.3137 65.3117 55.0944 65.1764 54.9141L62.2598 51.0252ZM32.0514 22.0194L34.1069 24.5546C34.2763 24.7635 34.52 24.8988 34.7868 24.9322L36.7908 25.1827L36.5436 26.3724H34.8119L32.0514 24.7371V22.0194ZM35.2402 41.3293L38.0582 51.6616L35.7844 52.23L33.5514 47.0197C33.2127 46.2281 32.9375 45.4108 32.7285 44.5756L32.021 41.7451C31.9893 41.6183 31.934 41.4986 31.8581 41.3922L26.6973 34.1671L26.1236 33.0198C25.9188 32.61 25.755 32.1809 25.6344 31.739C25.6296 31.7196 25.6242 31.6999 25.6182 31.6814C25.3391 30.6269 25.3161 29.5209 25.5513 28.4558H29.9681V30.5391C29.9681 30.7008 30.0058 30.8603 30.0781 31.005L35.2402 41.3293ZM34.884 56.5808H15.554L15.7145 56.5272C15.9218 56.4581 16.1021 56.3254 16.2299 56.1481C16.3577 55.9707 16.4264 55.7577 16.4264 55.5391V51.9299L25.3376 45.9891C25.5057 45.8772 25.6376 45.7189 25.7173 45.5334L28.1689 39.8129L30.0471 42.4431L30.7069 45.0819C30.9429 46.025 31.2537 46.9477 31.6363 47.8414L34.1869 53.7899L34.884 56.5808ZM27.2467 26.3724C27.2467 26.3724 27.8848 24.3983 27.8848 24.2891H29.9681V26.3724H27.2467ZM31.2672 17.0205C31.4736 17.3667 31.5597 17.7714 31.5121 18.1716C31.3539 18.0834 31.1754 18.038 30.9942 18.0401C30.8131 18.0422 30.6356 18.0917 30.4795 18.1836C30.3234 18.2755 30.1941 18.4067 30.1043 18.5641C30.0146 18.7215 29.9677 18.8996 29.9681 19.0808V22.2058H25.8014V19.8315L28.2142 19.0272C28.4216 18.9581 28.602 18.8255 28.7298 18.6481C28.8576 18.4708 28.9264 18.2577 28.9264 18.0391V15.777C28.9272 15.1115 28.7604 14.4565 28.4414 13.8724H29.3789L31.2672 17.0205ZM26.8431 6.94144C26.8422 6.63348 26.9025 6.3284 27.0203 6.04388C27.1382 5.75936 27.3113 5.50104 27.5297 5.28389L27.6635 5.15016C27.8699 4.94261 28.1154 4.77805 28.3859 4.666C28.6563 4.55396 28.9462 4.49667 29.2389 4.49743C29.6723 4.49637 30.0917 4.65045 30.4214 4.93181L28.4392 5.59261C28.1771 5.67994 27.9604 5.8678 27.8369 6.11488L27.0835 7.62243H26.8431V6.94144ZM26.8431 9.70576H27.7272C27.9207 9.70576 28.1103 9.65189 28.2748 9.55019C28.4394 9.4485 28.5723 9.30299 28.6589 9.12998L29.5077 7.43259L31.0098 6.93233V9.70576H29.9681C29.6918 9.70576 29.4269 9.81551 29.2315 10.0109C29.0362 10.2062 28.9264 10.4712 28.9264 10.7474V11.7891H26.8431V9.70576ZM23.4426 7.94313C22.7379 8.41385 21.9093 8.66477 21.0619 8.6641H20.7202C19.6904 8.66707 18.6944 8.29704 17.9164 7.62243H18.384C19.2217 7.62471 20.0515 7.46082 20.8255 7.14025C21.5994 6.81968 22.3021 6.3488 22.8928 5.75485C23.5868 5.05707 24.5009 4.62105 25.4799 4.52087C25.0083 5.23993 24.7579 6.08151 24.7598 6.94144V7.06501L23.4426 7.94313ZM23.1643 26.3724L18.8719 21.2215C18.6381 20.9406 18.51 20.5867 18.5098 20.2213V20.1594C18.5092 19.9541 18.5494 19.7508 18.6279 19.5611C18.7065 19.3715 18.8219 19.1993 18.9674 19.0546L23.5918 14.4302C23.8582 14.1639 24.1975 13.9825 24.567 13.909C24.9364 13.8355 25.3194 13.8732 25.6674 14.0174C26.0154 14.1615 26.3129 14.4056 26.5221 14.7189C26.7314 15.0321 26.8431 15.4003 26.8431 15.777V17.2883L25.0411 17.889L24.4552 17.303C24.3585 17.2063 24.2436 17.1296 24.1173 17.0772C23.9909 17.0249 23.8554 16.9979 23.7186 16.9979C23.5818 16.9979 23.4464 17.0249 23.32 17.0772C23.1936 17.1296 23.0788 17.2063 22.982 17.303L20.8987 19.3864C20.7284 19.5566 20.6224 19.7807 20.5986 20.0203C20.5749 20.26 20.6349 20.5004 20.7685 20.7008L22.8518 23.8258C22.9802 24.0186 23.1693 24.1629 23.3891 24.2361L25.5259 24.9485L25.0507 26.3724H23.1643ZM23.7181 19.5123V21.3696L22.9751 20.2552L23.7181 19.5123ZM22.3207 41.7397C22.4601 41.6178 22.5645 41.4609 22.623 41.2852L24.7444 34.921L24.8698 35.1716C24.894 35.2203 24.9221 35.267 24.9538 35.3112L26.752 37.8289L23.9241 44.4275L15.6734 49.9279L14.6749 48.4297L22.3207 41.7397ZM10.3221 51.3269L10.9152 50.1409L12.876 49.4873L14.3431 51.6878V54.7883L12.7232 55.3283L10.3221 51.3269ZM7.05143 62.8308C6.63939 62.8308 6.2366 62.7086 5.89399 62.4797C5.55139 62.2507 5.28437 61.9254 5.12668 61.5447C4.969 61.164 4.92774 60.7451 5.00813 60.341C5.08852 59.9369 5.28693 59.5656 5.57829 59.2743C5.86965 58.9829 6.24087 58.7845 6.64499 58.7041C7.04912 58.6237 7.46801 58.665 7.84869 58.8227C8.22937 58.9804 8.55474 59.2474 8.78366 59.59C9.01258 59.9326 9.13477 60.3354 9.13477 60.7474C9.13411 61.2998 8.91441 61.8293 8.52385 62.2198C8.13329 62.6104 7.60377 62.8301 7.05143 62.8308ZM20.112 62.8308H10.6576C11.0247 62.1978 11.2181 61.4791 11.2181 60.7474C11.2181 60.0157 11.0247 59.297 10.6576 58.6641H20.112C19.7448 59.297 19.5514 60.0157 19.5514 60.7474C19.5514 61.4791 19.7448 62.1978 20.112 62.8308ZM23.7181 62.8308C23.3061 62.8308 22.9033 62.7086 22.5607 62.4797C22.2181 62.2507 21.951 61.9254 21.7934 61.5447C21.6357 61.164 21.5944 60.7451 21.6748 60.341C21.7552 59.9369 21.9536 59.5656 22.245 59.2743C22.5363 58.9829 22.9075 58.7845 23.3117 58.7041C23.7158 58.6237 24.1347 58.665 24.5154 58.8227C24.896 58.9804 25.2214 59.2474 25.4503 59.59C25.6792 59.9326 25.8014 60.3354 25.8014 60.7474C25.8008 61.2998 25.5811 61.8293 25.1905 62.2198C24.8 62.6104 24.2704 62.8301 23.7181 62.8308ZM36.7786 62.8308H27.3249C27.692 62.1978 27.8854 61.4791 27.8854 60.7474C27.8854 60.0157 27.692 59.297 27.3249 58.6641H36.212H36.218H36.2221H36.7793C36.4121 59.297 36.2187 60.0157 36.2187 60.7474C36.2187 61.4791 36.4121 62.1978 36.7793 62.8308H36.7786ZM40.3848 62.8308C39.9727 62.8308 39.5699 62.7086 39.2273 62.4797C38.8847 62.2507 38.6177 61.9254 38.46 61.5447C38.3023 61.164 38.2611 60.7451 38.3415 60.341C38.4219 59.9369 38.6203 59.5656 38.9116 59.2743C39.203 58.9829 39.5742 58.7845 39.9783 58.7041C40.3825 58.6237 40.8013 58.665 41.182 58.8227C41.5627 58.9804 41.8881 59.2474 42.117 59.59C42.3459 59.9326 42.4681 60.3354 42.4681 60.7474C42.4674 61.2998 42.2477 61.8293 41.8572 62.2198C41.4666 62.6104 40.9371 62.8301 40.3848 62.8308ZM36.976 56.3594L36.4396 54.214L39.4714 53.4558H42.759L43.2076 54.8013L36.976 56.3594ZM50.8014 62.8308H43.9915C44.3587 62.1978 44.5521 61.4791 44.5521 60.7474C44.5521 60.0157 44.3587 59.297 43.9915 58.6641H50.8014V62.8308ZM45.5931 28.4558V26.3724H57.0514C57.2449 26.3724 57.4345 26.3186 57.599 26.2169C57.7636 26.1152 57.8966 25.9697 57.9831 25.7966L60.7344 20.2939L62.8876 20.8323L59.4994 28.4558H45.5931ZM51.2328 30.5391H53.4951L60.1764 37.2206V50.3308H58.0931V37.8308C58.0931 37.694 58.0662 37.5585 58.0138 37.4321C57.9615 37.3057 57.8848 37.1909 57.788 37.0942L51.2328 30.5391ZM63.3014 62.8308H52.8848V58L57.5393 52.4141H60.6973L63.3014 55.8864V62.8308Z" fill="#ffffff"/>
</g>
<defs>
<clipPath id="clip0_702_23085">
<rect width="66.6667" height="66.6667" fill="transparent" transform="translate(0.800781 0.332031)"/>
</clipPath>
</defs>
</svg>
