<svg width="67" height="67" viewBox="0 0 67 67" fill="none" xmlns="http://www.w3.org/2000/svg">
<g clip-path="url(#clip0_702_23076)">
<path d="M33.3977 29.9023C31.6192 29.9023 30.1719 31.3497 30.1719 33.1282C30.1719 34.9066 31.6192 36.354 33.3977 36.354C35.1762 36.354 36.6235 34.9066 36.6235 33.1282C36.6235 31.3497 35.1762 29.9023 33.3977 29.9023ZM33.3977 34.2034C32.8041 34.2034 32.3224 33.7217 32.3224 33.1282C32.3224 32.5346 32.8041 32.0529 33.3977 32.0529C33.9912 32.0529 34.473 32.5346 34.473 33.1282C34.473 33.7217 33.9912 34.2034 33.3977 34.2034Z" fill="#ffffff"/>
<path d="M63.2096 20.2242H62.7677C62.444 20.2242 62.1225 20.2683 61.815 20.3554L54.6644 22.3629L53.1085 16.1371L54.6279 15.7393C55.4913 15.5135 56.2064 14.9705 56.6408 14.2113C57.0612 13.4748 57.1655 12.6231 56.9354 11.8113V11.8102C56.4558 10.1285 54.6548 9.12959 52.9257 9.5812L44.4268 11.8049C43.5634 12.0317 42.8483 12.5748 42.415 13.335C41.9946 14.0704 41.8903 14.9221 42.1204 15.735C42.5214 17.1436 43.8462 18.0726 45.2838 18.0726C45.5644 18.0726 45.8483 18.0382 46.13 17.964L47.7494 17.5403L49.329 23.8608L36.6075 27.4317C35.6268 26.9457 34.5333 26.6758 33.3978 26.6758C30.8999 26.6758 28.6161 27.9898 27.3042 30.0425L16.9849 32.9393L15.4731 26.8898L16.9924 26.492C17.8559 26.2661 18.5709 25.7231 19.0053 24.964C19.4257 24.2274 19.53 23.3758 19.2999 22.564V22.5629C18.8214 20.8801 17.0214 19.8844 15.2903 20.3339L6.79133 22.5575C5.92789 22.7844 5.21284 23.3274 4.77951 24.0877C4.35908 24.8231 4.25478 25.6748 4.48488 26.4877C4.88596 27.8963 6.21069 28.8253 7.64832 28.8253C7.92897 28.8253 8.21284 28.7909 8.49456 28.7167L10.1139 28.293L11.6494 34.4371L2.63435 36.9672C1.12037 37.392 0.0644531 38.7866 0.0644531 40.3586C0.0644531 42.2995 1.6451 43.8801 3.58596 43.8801H4.02789C4.35155 43.8801 4.67306 43.836 4.98058 43.7489L24.0257 38.4038L20.4946 47.9887V49.2565H18.344V57.8586H48.4515V49.2565H46.301V47.9887L41.0128 33.635L64.1612 27.1371C65.6741 26.7135 66.7311 25.3188 66.7311 23.7468C66.7311 21.8049 65.1505 20.2242 63.2096 20.2242ZM45.5849 15.8834C44.9763 16.0414 44.3483 15.7135 44.187 15.1479C44.1161 14.8963 44.1494 14.6317 44.2806 14.4016C44.4257 14.1479 44.6709 13.964 44.9709 13.8866L53.4688 11.6629C53.5731 11.635 53.6763 11.6221 53.7795 11.6221C54.2784 11.6221 54.7322 11.9285 54.8666 12.3973C54.9376 12.6489 54.9042 12.9135 54.7731 13.1436C54.6279 13.3973 54.3827 13.5801 54.0827 13.6586L45.5849 15.8834ZM52.5935 22.9446L51.3989 23.2801L49.8279 16.9963L51.0279 16.6823L52.5935 22.9446ZM7.95047 26.636C7.34402 26.7952 6.71391 26.4661 6.55262 25.9006C6.48166 25.6489 6.51499 25.3834 6.64617 25.1543C6.79133 24.9006 7.0365 24.7167 7.3365 24.6393L15.8343 22.4156C15.9386 22.3877 16.0419 22.3748 16.1451 22.3748C16.644 22.3748 17.0978 22.6812 17.2322 23.15C17.3032 23.4016 17.2698 23.6672 17.1386 23.8963C16.9935 24.15 16.7483 24.3328 16.4483 24.4113L7.95047 26.636ZM14.915 33.521L13.7204 33.8554L12.1935 27.7489L13.3935 27.435L14.915 33.521ZM4.39671 41.6791C4.27843 41.7124 4.15478 41.7296 4.02897 41.7296H3.58596C2.83004 41.7296 2.21499 41.1145 2.21499 40.3586C2.21499 39.7468 2.62682 39.2038 3.21607 39.0382L26.1655 32.5963L24.944 35.9113L4.39671 41.6791ZM44.1505 48.3737V49.2565H41.9999V51.407H46.301V55.7081H20.4946V51.407H39.8494V49.2565H22.6451V48.3737L28.6193 32.1586C29.3526 30.1651 31.2731 28.8264 33.3978 28.8264C35.5225 28.8264 37.4429 30.1651 38.1763 32.1586L44.1505 48.3737ZM63.5795 25.0661L40.2666 31.6102L40.1946 31.4145C39.8666 30.5253 39.358 29.7425 38.7419 29.0662L62.3989 22.4253C62.5171 22.392 62.6408 22.3748 62.7666 22.3748H63.2085C63.9655 22.3748 64.5806 22.9898 64.5806 23.7457C64.5806 24.3586 64.1687 24.9016 63.5795 25.0661Z" fill="#ffffff"/>
</g>
<defs>
<clipPath id="clip0_702_23076">
<rect width="66.6667" height="66.6667" fill="transparent" transform="translate(0.0625 0.332031)"/>
</clipPath>
</defs>
</svg>
